<?xml version="1.0"?>
<svg xmlns="http://www.w3.org/2000/svg" xmlns:xlink="http://www.w3.org/1999/xlink" version="1.1" id="Capa_1" x="0px" y="0px" viewBox="0 0 292.805 292.805" style="enable-background:new 0 0 292.805 292.805;" xml:space="preserve" width="512px" height="512px"><g><g>
	<path d="M137.583,18.265L1.709,259.709c-4.933,8.767,1.402,19.601,11.462,19.599c57.413-0.01,208.901-0.037,266.469-0.047   c10.059-0.002,16.388-10.833,11.454-19.598c-44.565-79.158-135.89-241.399-135.89-241.399   C151.62,11.907,141.167,11.907,137.583,18.265z M145.761,248.714c-10.028,0-18.162-8.136-18.162-18.163   c0-10.029,8.134-18.165,18.162-18.165c10.03,0,18.165,8.136,18.165,18.165C163.926,240.578,155.791,248.714,145.761,248.714z    M160.925,98.708c0.023,0.487,0.02,0.992,0,1.471l-5.05,104.048c-3.149-1.214-6.539-1.948-10.114-1.948   c-3.572,0-6.963,0.734-10.112,1.948l-5.05-104.048c-0.402-8.376,6.051-15.493,14.428-15.898   C153.403,83.876,160.52,90.332,160.925,98.708z" data-original="#000000" class="active-path" fill="#000000"/>
</g></g> </svg>
