<?xml version="1.0" encoding="iso-8859-1"?>
<!-- Generator: Adobe Illustrator 16.0.0, SVG Export Plug-In . SVG Version: 6.00 Build 0)  -->
<!DOCTYPE svg PUBLIC "-//W3C//DTD SVG 1.1//EN" "http://www.w3.org/Graphics/SVG/1.1/DTD/svg11.dtd">
<svg version="1.1" id="Capa_1" xmlns="http://www.w3.org/2000/svg" xmlns:xlink="http://www.w3.org/1999/xlink" x="0px" y="0px"
	 width="48.932px" height="48.932px" viewBox="0 0 48.932 48.932" style="enable-background:new 0 0 48.932 48.932;"
	 xml:space="preserve">
<g>
	<g>
		<path d="M22.128,21.986c0,0.371,0.081,0.734,0.243,1.08c-0.037,0.295-0.062,0.599-0.062,0.917c0,2.251,1.935,4.009,2.018,4.083
			l0.087,0.079c-0.05,0.166-0.166,0.364-0.414,0.487c-0.239,0.041-0.489,0.071-0.739,0.101c-1.069,0.124-2.281,0.265-2.537,1.399
			l-0.012,0.096c-0.006,0.307,0.108,0.58,0.327,0.791c0.681,0.654,2.221,0.6,4.678,0.453c1.929-0.113,4.328-0.254,5.039,0.393
			c0.121,0.111,0.178,0.236,0.185,0.41c0.03,0.929-1.452,1.117-3.55,1.279c-1.697,0.133-3.299,0.259-4.033,1.121
			c-0.264,0.311-0.385,0.811-0.373,1.263l0,0v0.397h7.673c-1.025-0.441-2.297-0.668-3.906-0.668c-1.006,0-1.968,0.053-2.817,0.144
			c-0.015-0.216,0.03-0.384,0.147-0.521c0.478-0.562,2.021-0.682,3.382-0.789c2.104-0.164,4.489-0.35,4.427-2.261
			c-0.014-0.425-0.184-0.799-0.494-1.081c-1.006-0.919-3.41-0.775-5.736-0.638c-1.564,0.092-3.506,0.207-3.982-0.263
			c0.155-0.377,0.755-0.474,1.693-0.582c0.746-0.086,1.56-0.188,2.159-0.592c0.526-0.668,0.109-0.973-0.075-1.343
			c-0.001,0-0.001,0-0.002,0c0.565-0.606,1.7-2.032,1.7-3.762c0-0.292-0.021-0.588-0.063-0.92c0.161-0.344,0.241-0.706,0.241-1.076
			v-1.866h4.135V0H17.998v20.12h4.131V21.986z M24.806,1.214h5.447v17.693h-4.135v3.079c0,0.23-0.061,0.456-0.184,0.673l-0.102,0.18
			l0.031,0.205c0.043,0.299,0.075,0.61,0.075,0.938c0,1.15-0.728,2.189-1.207,2.748L24.806,1.214z"/>
		<path d="M34.466,3.902c0-1.284-1.042-2.325-2.327-2.325v4.65C33.424,6.229,34.466,5.188,34.466,3.902z"/>
		<path d="M16.972,6.229v-4.65c-1.285,0-2.327,1.041-2.327,2.325S15.687,6.229,16.972,6.229z"/>
		<path d="M33.521,39.113c-0.101-0.227-0.215-0.439-0.34-0.643H30.1c0.233,0.188,0.442,0.401,0.622,0.643H33.521z"/>
		<path d="M30.956,39.456c0.396,0.688,0.61,1.54,0.604,2.556c0,3.289-1.827,4.979-4.902,4.959c-0.479,0-0.979,0-1.307-0.058v-7.194
			h-2.365v8.963c0.769,0.097,1.807,0.174,3.191,0.174c2.52,0,4.574-0.598,5.863-1.77c1.229-1.115,2.019-2.845,2.019-5.15
			c0-0.949-0.149-1.768-0.409-2.479H30.956z"/>
		<path d="M22.987,36.678v0.513h9.078c-0.008-0.007-0.016-0.015-0.024-0.022c-0.217-0.182-0.455-0.341-0.705-0.49H22.987z"/>
		<path d="M27.235,37.533c0.934,0.034,1.731,0.232,2.374,0.596h3.339c-0.154-0.213-0.324-0.412-0.507-0.596H27.235z"/>
		<path d="M17.982,37.899c0.464,0,0.838,0.087,1.137,0.229h3.09c-0.073-0.209-0.17-0.408-0.293-0.596h-6.854l0.188,0.596h1.396
			C17.062,37.996,17.52,37.899,17.982,37.899z"/>
		<path d="M14.888,36.977l0.067,0.214h6.69c-0.173-0.19-0.376-0.361-0.611-0.513h-5.623C15.213,36.774,15.034,36.873,14.888,36.977z
			"/>
		<path d="M15.807,38.471h-0.448l0.068,0.217C15.531,38.618,15.667,38.545,15.807,38.471z"/>
		<path d="M20.079,42.031v-0.038c1.383-0.483,2.139-1.405,2.278-2.537h-2.374c-0.001,1.25-1.384,1.749-2.479,1.749h-1.058v1.729
			h1.096c1.442,0,2.826,0.635,2.826,2.115c0.019,0.979-0.711,2-2.518,2c-1.191,0-2.364-0.481-2.845-0.771l-0.539,1.789
			c0.673,0.442,1.98,0.864,3.499,0.864c3.095,0,4.864-1.672,4.864-3.786C22.828,43.454,21.598,42.301,20.079,42.031z"/>
		<path d="M16.306,36.336h4.042c-0.525-0.199-1.14-0.32-1.865-0.32C17.698,36.014,16.948,36.143,16.306,36.336z"/>
		<path d="M22.382,39.113c0-0.014,0.003-0.027,0.003-0.042c0-0.204-0.021-0.405-0.062-0.601h-2.725
			c0.173,0.186,0.291,0.402,0.344,0.643H22.382z"/>
	</g>
</g>
<g>
</g>
<g>
</g>
<g>
</g>
<g>
</g>
<g>
</g>
<g>
</g>
<g>
</g>
<g>
</g>
<g>
</g>
<g>
</g>
<g>
</g>
<g>
</g>
<g>
</g>
<g>
</g>
<g>
</g>
</svg>
