<?xml version="1.0" encoding="iso-8859-1"?>
<!-- Generator: Adobe Illustrator 16.0.0, SVG Export Plug-In . SVG Version: 6.00 Build 0)  -->
<!DOCTYPE svg PUBLIC "-//W3C//DTD SVG 1.1//EN" "http://www.w3.org/Graphics/SVG/1.1/DTD/svg11.dtd">
<svg version="1.1" id="Capa_1" xmlns="http://www.w3.org/2000/svg" xmlns:xlink="http://www.w3.org/1999/xlink" x="0px" y="0px"
	 width="53.762px" height="53.762px" viewBox="0 0 53.762 53.762" style="enable-background:new 0 0 53.762 53.762;"
	 xml:space="preserve">
<g>
	<g>
		<path d="M24.777,16.703l-5.838,3.089l0.052,0.098l-0.06-0.013v9.506l7.865,1.855l6.045-3.325l-0.001-9.657L24.777,16.703z
			 M26.402,30.673L19.35,29.05v-8.655l7.052,1.518V30.673z M26.776,21.567L19.5,20.001l5.346-2.828l7.289,1.46L26.776,21.567z"/>
		<path d="M4.964,38.895h43.834c0.621,0,1.124-0.503,1.124-1.123V11.921c0-0.621-0.503-1.124-1.124-1.124H4.964
			c-0.62,0-1.124,0.503-1.124,1.124v25.851C3.84,38.392,4.344,38.895,4.964,38.895z M6.088,13.045h41.586v23.604H6.088V13.045z"/>
		<path d="M0,40.257v0.683c0,0,9.91,2.025,26.767,2.025c16.858,0,26.995-2.025,26.995-2.025v-0.683H0z"/>
		<rect x="7.415" y="14.152" width="1.593" height="0.25"/>
		<rect x="7.415" y="14.73" width="5.854" height="0.25"/>
		<rect x="7.415" y="15.479" width="5.854" height="0.25"/>
		<rect x="7.415" y="17.103" width="5.854" height="0.25"/>
		<rect x="7.415" y="17.695" width="4.48" height="0.25"/>
		<path d="M38.261,35.992h8.759v-7.446h-8.759V35.992z M39.011,29.295h7.259v5.947h-7.259V29.295z"/>
		<rect x="44.209" y="29.857" width="1.592" height="0.328"/>
		<rect x="39.479" y="29.857" width="0.797" height="1.592"/>
		<rect x="43.24" y="31.683" width="1.765" height="0.585"/>
		<rect x="43.24" y="32.549" width="1.765" height="0.585"/>
		<rect x="43.24" y="33.402" width="1.765" height="0.584"/>
		<circle cx="42.747" cy="19.578" r="0.812"/>
		<path d="M41.021,17.118c0.096,0.098,0.254,0.098,0.352,0c0.048-0.048,0.072-0.111,0.072-0.175c0-0.063-0.024-0.127-0.072-0.176
			l-0.25-0.249h1.376v1.943h0.497v-1.942h1.373l-0.247,0.249c-0.097,0.096-0.097,0.254,0,0.351c0.097,0.097,0.254,0.097,0.351,0
			l0.674-0.674c0.047-0.046,0.072-0.109,0.072-0.176c0-0.066-0.025-0.129-0.072-0.176l-0.674-0.672
			c-0.097-0.097-0.254-0.097-0.351,0c-0.05,0.048-0.072,0.111-0.072,0.176c0,0.063,0.022,0.126,0.072,0.175l0.249,0.249h-1.375
			v-1.135l0.248,0.249c0.098,0.097,0.255,0.097,0.353,0c0.097-0.097,0.097-0.255,0-0.351l-0.674-0.673
			c-0.047-0.047-0.108-0.072-0.176-0.072s-0.13,0.025-0.177,0.072l-0.672,0.673c-0.098,0.096-0.098,0.254,0,0.351
			c0.049,0.048,0.11,0.072,0.176,0.072c0.062,0,0.127-0.024,0.176-0.072l0.249-0.25v1.134h-1.375l0.249-0.249
			c0.097-0.097,0.097-0.254,0-0.351c-0.098-0.097-0.256-0.097-0.352,0l-0.674,0.674c-0.047,0.046-0.072,0.109-0.072,0.175
			c0,0.066,0.025,0.129,0.072,0.176L41.021,17.118z"/>
	</g>
</g>
<g>
</g>
<g>
</g>
<g>
</g>
<g>
</g>
<g>
</g>
<g>
</g>
<g>
</g>
<g>
</g>
<g>
</g>
<g>
</g>
<g>
</g>
<g>
</g>
<g>
</g>
<g>
</g>
<g>
</g>
</svg>
