<?xml version="1.0" encoding="iso-8859-1"?>
<!-- Generator: Adobe Illustrator 16.0.0, SVG Export Plug-In . SVG Version: 6.00 Build 0)  -->
<!DOCTYPE svg PUBLIC "-//W3C//DTD SVG 1.1//EN" "http://www.w3.org/Graphics/SVG/1.1/DTD/svg11.dtd">
<svg version="1.1" id="Capa_1" xmlns="http://www.w3.org/2000/svg" xmlns:xlink="http://www.w3.org/1999/xlink" x="0px" y="0px"
	 width="53.963px" height="53.963px" viewBox="0 0 53.963 53.963" style="enable-background:new 0 0 53.963 53.963;"
	 xml:space="preserve">
<g>
	<g>
		<path d="M23.189,35.438c-0.504,0-0.914,0.41-0.914,0.914c0,0.149,0.035,0.293,0.104,0.424c0.159,0.303,0.469,0.49,0.81,0.49
			c0.339,0,0.649-0.187,0.807-0.488c0.071-0.133,0.106-0.275,0.106-0.426c0-0.244-0.094-0.474-0.267-0.646
			C23.663,35.533,23.434,35.438,23.189,35.438z"/>
		<path d="M34.11,35.438c-0.504,0-0.914,0.41-0.914,0.914c0,0.032,0.001,0.064,0.005,0.096c0.049,0.466,0.439,0.818,0.909,0.818
			c0.497,0,0.903-0.4,0.914-0.895V36.37l-0.001-0.031C35.02,35.844,34.609,35.438,34.11,35.438z"/>
		<path d="M27.379,32.102l-1.585,1.318l5.237-0.406c0,0,0-0.291,0-0.912C31.032,31.479,27.379,32.102,27.379,32.102z"/>
		<rect x="13.613" y="41.129" width="26.736" height="1.26"/>
		<path d="M38.373,36.457h-1.266c-0.021,0.121-0.049,0.247-0.085,0.378l-0.239,0.871l-0.428,0.024
			c-0.443,0.848-1.305,1.385-2.271,1.385c-0.863,0-1.656-0.43-2.131-1.135l-7.016,0.397c-0.479,0.463-1.111,0.737-1.774,0.737
			c-0.702,0-1.366-0.305-1.855-0.825c-0.947-0.251-1.29-0.796-1.404-1.22l-0.063-0.221c-0.037-0.127-0.073-0.26-0.107-0.393h-3.722
			l-2.397,4.111h26.736L38.373,36.457z"/>
		<path d="M44.576,7.085h-8.027c1.893-0.792,3.451-2.226,4.113-4.92l0.199-0.815l-1.322-0.326l0.104-0.442L37.172,0L36.98,0.817
			c-0.907,3.851-4.252,4.047-8.126,4.273c-1.67,0.098-3.248,0.19-4.623,0.6c-1.334,0.367-2.269,0.834-2.934,1.394H9.683L6.404,13.3
			v40.663h41.154V13.301L44.576,7.085z M43.379,8.833l1.937,4.463H23.477c-0.001-0.117-0.002-0.231-0.003-0.355
			c-0.029-2.764-0.029-3.468,1.997-4.107L43.379,8.833L43.379,8.833z M24.353,6.496c1.299-0.387,2.83-0.477,4.45-0.571
			c3.855-0.226,7.843-0.458,8.894-4.919l0.835,0.196c-0.67,2.845-2.377,4.179-4.447,4.844c2.283-0.475,4.17-1.546,4.844-4.287
			l0.816,0.201c-1.199,4.874-5.699,5.126-9.671,5.349c-1.571,0.088-3.055,0.171-4.271,0.519c-3.317,0.873-3.305,2.028-3.272,5.117
			c0.003,0.313,0.007,0.075,0.007,0.422h-0.84c0-0.344-0.003-0.104-0.007-0.413c-0.031-2.885-0.039-4.585,2.963-5.648
			c-0.021,0.006-0.045,0.009-0.066,0.015c-3.315,0.911-3.303,2.12-3.27,5.351c0.002,0.305,0.007,0.292,0.007,0.674h-0.858
			c0-0.358-0.003-0.342-0.007-0.666C20.426,9.39,20.408,7.579,24.353,6.496z M10.841,8.833h9.242
			c-0.388,1.103-0.376,2.412-0.361,3.916c0.002,0.174,0.002,0.363,0.004,0.547H8.538L10.841,8.833z M45.879,52.283H8.084v-37.24
			h37.794V52.283L45.879,52.283z"/>
		<path d="M15.224,46.884H38.74c2.779,0,5.04-2.26,5.04-5.039V22.141c0-2.779-2.261-5.039-5.04-5.039H15.224
			c-2.779,0-5.04,2.26-5.04,5.039v19.704C10.184,44.624,12.444,46.884,15.224,46.884z M42.1,24.437H25.301v-0.946h16.797
			L42.1,24.437L42.1,24.437z M15.224,18.782H38.74c1.854,0,3.359,1.507,3.359,3.359H25.301v-2.729h-7.769v2.729h-5.669
			C11.863,20.289,13.371,18.782,15.224,18.782z M11.863,23.491h5.669v0.946h-5.669V23.491z M11.863,24.989h5.669V27.9H20v1.83
			c0,0.666,0.459,1.219,1.077,1.371c0.299,0.887,1.104,1.063,1.741,1.063c0.291,0,0.546-0.037,0.704-0.06
			c0.872-0.145,1.484-0.422,2.025-0.666c0.277-0.125,0.532-0.238,0.793-0.324c-0.492,0.299-1.327,1.027-1.781,1.435
			c-2.006,0.185-3.282,0.673-3.895,1.496c-0.156,0.209-0.252,0.424-0.306,0.625c-0.042,0.047-0.079,0.097-0.112,0.151
			c-0.323,0.52-0.147,1.135,0.023,1.73l0.064,0.227c0.129,0.481,0.537,0.803,1.211,0.953c0.405,0.483,0.997,0.781,1.644,0.781
			c0.625,0,1.201-0.273,1.605-0.728l7.409-0.421c0.364,0.689,1.084,1.148,1.907,1.148c0.908,0,1.685-0.566,2.002-1.371l0.372-0.021
			l0.159-0.581c0.284-1.027,0.047-1.689-0.211-2.07c0.012-1.02-0.457-1.626-0.901-1.923c-0.148-0.259-0.338-0.524-0.511-0.747
			c0.042-0.154,0.037-0.314-0.015-0.48c-0.045-0.152-0.254-0.649-0.981-0.649c-0.231,0-0.517,0.049-0.694,0.084
			c-0.744-0.085-1.684-0.104-2.359-0.104c-0.701,0-1.424,0.021-2.082,0.056l0.023-0.075c-1.799-0.574-2.641-0.191-3.618,0.251
			c-0.531,0.24-1.08,0.489-1.866,0.62c-0.894,0.129-1.406-0.008-1.656-0.402c0.61-0.158,1.063-0.707,1.063-1.367V27.9H25.3V24.99
			h16.797v16.856c0,1.854-1.508,3.359-3.359,3.359H15.224c-1.853,0-3.359-1.508-3.359-3.359L11.863,24.989L11.863,24.989z
			 M34.904,33.162c0,0,0.829,0.283,0.667,1.598c0,0,0.586,0.385,0.263,1.557l-0.162,0.01c-0.015-0.85-0.709-1.536-1.562-1.536
			c-0.861,0-1.562,0.7-1.562,1.563c0,0.051,0.002,0.101,0.008,0.149l-7.923,0.448c0.077-0.184,0.12-0.387,0.12-0.6
			c0-0.861-0.701-1.562-1.562-1.562s-1.563,0.701-1.563,1.562c0,0.198,0.038,0.387,0.106,0.562
			c-0.311-0.069-0.541-0.181-0.587-0.354c-0.177-0.647-0.439-1.334,0.005-1.416c0,0-0.323-1.477,3.762-1.779
			c0,0,1.428-1.309,1.926-1.568l0.404-0.104c1.189-0.189,4.532-0.297,6.125-0.088c0,0,1.395-0.322,0.586,0.223
			C33.953,31.826,34.662,32.615,34.904,33.162z M35.431,36.352c0,0.729-0.591,1.319-1.32,1.319c-0.683,0-1.244-0.519-1.313-1.183
			c-0.004-0.045-0.006-0.09-0.006-0.137c0-0.729,0.59-1.318,1.319-1.318c0.724,0,1.313,0.584,1.319,1.307
			C35.43,36.343,35.431,36.348,35.431,36.352z M24.508,36.352c0,0.223-0.056,0.432-0.153,0.615
			c-0.221,0.419-0.661,0.705-1.167,0.705c-0.508,0-0.948-0.287-1.169-0.707c-0.095-0.184-0.15-0.391-0.15-0.611
			c0-0.729,0.59-1.32,1.32-1.32C23.917,35.033,24.508,35.623,24.508,36.352z"/>
		<rect x="34.11" y="49.072" width="3.056" height="1.05"/>
		<circle cx="39.703" cy="49.572" r="0.647"/>
		<circle cx="42.625" cy="49.572" r="0.647"/>
		<path d="M31.881,51.936h12.598v-4.689H31.881V51.936z M32.721,48.085h10.918v3.01H32.721V48.085z"/>
	</g>
</g>
<g>
</g>
<g>
</g>
<g>
</g>
<g>
</g>
<g>
</g>
<g>
</g>
<g>
</g>
<g>
</g>
<g>
</g>
<g>
</g>
<g>
</g>
<g>
</g>
<g>
</g>
<g>
</g>
<g>
</g>
</svg>
