<?xml version="1.0" encoding="iso-8859-1"?>
<!-- Generator: Adobe Illustrator 16.0.0, SVG Export Plug-In . SVG Version: 6.00 Build 0)  -->
<!DOCTYPE svg PUBLIC "-//W3C//DTD SVG 1.1//EN" "http://www.w3.org/Graphics/SVG/1.1/DTD/svg11.dtd">
<svg version="1.1" id="Capa_1" xmlns="http://www.w3.org/2000/svg" xmlns:xlink="http://www.w3.org/1999/xlink" x="0px" y="0px"
	 width="58.652px" height="58.652px" viewBox="0 0 58.652 58.652" style="enable-background:new 0 0 58.652 58.652;"
	 xml:space="preserve">
<g>
	<g>
		<path d="M47.374,43.376c-0.585,0-1.005,0.045-1.261,0.104v7.24c0.256,0.045,0.646,0.045,1.021,0.045
			c2.402,0.015,3.83-1.307,3.83-3.875C50.98,44.653,49.688,43.376,47.374,43.376z"/>
		<path d="M52.439,39.465V6.933H29.782c1.397-1.271,3.997-1.219,6.522-1.154c2.688,0.065,5.469,0.132,6.963-1.437
			c0.838-0.881,1.184-2.154,1.056-3.894l-0.892,0.065c0.107,1.474-0.156,2.524-0.812,3.212C41.82,4.564,40.485,4.826,38.93,4.89
			c0.349-0.182,0.672-0.405,0.945-0.703c0.832-0.899,1.168-2.27,1.027-4.187l-0.891,0.067c0.123,1.656-0.138,2.807-0.791,3.516
			c-0.985,1.065-2.816,1.076-4.754,1.087c-2.106,0.013-4.285,0.025-5.663,1.428c-0.238,0.242-0.433,0.527-0.606,0.836H3.248v49.191
			h33.473c1.969,1.578,4.465,2.527,7.184,2.527s5.214-0.949,7.184-2.527h1.352V54.84c1.837-2.037,2.965-4.728,2.965-7.688
			S54.276,41.503,52.439,39.465z M28.643,12.268h13.164c2.468,0,4.468,2,4.468,4.468v4.43H35.376
			c0.332-0.276,0.548-0.688,0.548-1.154c0-0.833-0.675-1.509-1.508-1.509h-0.297v2.663h-0.466v-6.628h-5.012
			C28.641,13.725,28.642,12.949,28.643,12.268z M9.412,16.736c0-2.468,2.001-4.468,4.469-4.468h13.621
			c-0.001,0.682-0.002,1.458-0.002,2.27h-4.274v6.628h-0.707v-2.663h-0.297c-0.834,0-1.508,0.676-1.508,1.509
			c0,0.466,0.215,0.878,0.548,1.154H9.412V16.736z M39.105,52.299c-1.188,0-2.209-0.33-2.733-0.677l0.421-1.396
			c0.375,0.225,1.291,0.6,2.223,0.6c1.412,0,1.983-0.796,1.968-1.562c0-1.156-1.081-1.651-2.208-1.651h-0.856v-1.351h0.826
			c0.856,0,1.938-0.393,1.938-1.367c0-0.661-0.498-1.217-1.563-1.217c-0.795,0-1.591,0.346-1.997,0.615l-0.421-1.336
			c0.558-0.39,1.638-0.751,2.81-0.751c2.012,0,3.049,1.111,3.049,2.388c0,1.021-0.602,1.861-1.803,2.282v0.03
			c1.187,0.21,2.146,1.111,2.146,2.434C42.905,50.99,41.523,52.299,39.105,52.299z M32.404,47.152c0,1.261,0.21,2.47,0.585,3.605
			h-2.095l0.093,0.031H13.881c-2.468,0-4.469-2-4.469-4.468V23.995h13.814v6.628h3.489v2.148c0,0.852,0.62,1.555,1.432,1.693
			l0.867-0.076c0.668-0.237,1.148-0.869,1.148-1.617v-2.148h3.49v-6.628h12.621v11.904c-0.766-0.16-1.557-0.247-2.37-0.247
			C37.553,35.652,32.404,40.801,32.404,47.152z M51.342,50.855c-1.008,0.916-2.615,1.383-4.582,1.383
			c-1.08,0-1.893-0.061-2.494-0.137v-9.957c0.812-0.135,1.849-0.209,2.943-0.209c1.893,0,3.199,0.39,4.131,1.172
			c0.977,0.796,1.576,1.996,1.576,3.724C52.917,48.633,52.303,49.985,51.342,50.855z"/>
	</g>
</g>
<g>
</g>
<g>
</g>
<g>
</g>
<g>
</g>
<g>
</g>
<g>
</g>
<g>
</g>
<g>
</g>
<g>
</g>
<g>
</g>
<g>
</g>
<g>
</g>
<g>
</g>
<g>
</g>
<g>
</g>
</svg>
