<?xml version="1.0" encoding="iso-8859-1"?>
<!-- Generator: Adobe Illustrator 16.0.0, SVG Export Plug-In . SVG Version: 6.00 Build 0)  -->
<!DOCTYPE svg PUBLIC "-//W3C//DTD SVG 1.1//EN" "http://www.w3.org/Graphics/SVG/1.1/DTD/svg11.dtd">
<svg version="1.1" id="Capa_1" xmlns="http://www.w3.org/2000/svg" xmlns:xlink="http://www.w3.org/1999/xlink" x="0px" y="0px"
	 width="55.909px" height="55.909px" viewBox="0 0 55.909 55.909" style="enable-background:new 0 0 55.909 55.909;"
	 xml:space="preserve">
<g>
	<g>
		<path d="M55.702,21.48c-0.215-0.39-0.569-0.672-0.997-0.796l-18.135-5.2V4.864c0-0.396-0.22-0.758-0.568-0.942
			c-0.125-0.066-0.259-0.096-0.396-0.109c-0.002,0-0.004-0.002-0.007-0.002l-2.144-0.398c0.942-0.386,2.207-0.381,3.3,0.071
			c0.627,0.245,1.244,0.703,1.896,1.188c0.889,0.661,1.808,1.343,2.985,1.68c3.657,0.887,7.143-1.318,9.688-2.93
			c0.331-0.21,0.429-0.648,0.22-0.98c-0.209-0.331-0.648-0.43-0.979-0.22C48.234,3.698,45.042,5.717,42,4.979
			c-0.085-0.025-0.167-0.065-0.251-0.096c3.583,0.567,6.868-1.7,9.28-3.374c0.322-0.224,0.401-0.666,0.179-0.988
			c-0.225-0.323-0.666-0.403-0.988-0.179c-2.266,1.573-5.369,3.724-8.441,3.114c-0.912-0.22-1.749-0.789-2.56-1.34
			c-0.721-0.49-1.466-0.998-2.271-1.272c-1.884-0.688-4.095-0.377-5.377,0.756c-0.412,0.364-0.721,0.8-0.925,1.292l-3.412-0.633
			c-0.163-0.031-0.332-0.002-0.477,0.079l-7.129,4.003c-0.167,0.093-0.276,0.249-0.327,0.424c-0.079,0.151-0.125,0.319-0.125,0.494
			v2.991L2.133,5.363C1.978,5.318,1.822,5.296,1.666,5.296c-0.737,0-1.395,0.495-1.599,1.204c-0.124,0.428-0.074,0.878,0.141,1.268
			S0.776,8.44,1.205,8.564l17.974,5.153v10.757c0,0.485,0.327,0.908,0.796,1.031l8.284,2.157V12.85h0.77v14.863
			c0.02-0.005,0.04-0.004,0.061-0.01c0.038-0.012,0.07-0.035,0.104-0.051c0.059-0.025,0.116-0.045,0.17-0.082l6.743-4.614
			c0.29-0.198,0.464-0.527,0.464-0.879V18.95l17.206,4.934c0.885,0.254,1.818-0.278,2.066-1.137
			C55.966,22.319,55.917,21.87,55.702,21.48z M28.281,7.854l-6.054-1.179l-0.2-0.052l5.203-2.922l3.134,0.55
			c-0.018,0.438,0.021,0.898,0.132,1.38c0.01,0.046,0.034,0.084,0.052,0.125c0.005,0.268,0.027,0.543,0.075,0.827L28.281,7.854z
			 M31.965,5.856c-0.026-0.489,0.039-0.92,0.207-1.287l1.636,0.287L31.965,5.856z"/>
		<path d="M18.083,51.092c-0.008-0.003-0.017-0.004-0.025-0.006c-0.262-0.072-0.522-0.171-0.778-0.304
			c-0.25-0.128-0.482-0.282-0.697-0.453c-0.014-0.011-0.027-0.022-0.04-0.034c-0.191-0.155-0.366-0.33-0.528-0.515
			c-0.056-0.065-0.106-0.136-0.159-0.203c-0.099-0.125-0.191-0.257-0.277-0.394c-0.098-0.155-0.182-0.32-0.263-0.487
			c-0.053-0.112-0.111-0.222-0.156-0.336c-0.035-0.09-0.062-0.182-0.091-0.272c-0.063-0.19-0.12-0.383-0.158-0.581
			c-0.006-0.028-0.013-0.055-0.018-0.083c-0.046-0.263-0.072-0.529-0.075-0.797c0-0.018,0-0.037,0-0.055
			c0-0.271,0.022-0.54,0.067-0.808c0.003-0.013,0.004-0.024,0.007-0.037c0.049-0.278,0.123-0.554,0.225-0.821
			c0.119-0.309,0.269-0.587,0.44-0.844c0.012-0.018,0.024-0.033,0.035-0.051c0.141-0.202,0.304-0.376,0.472-0.542
			c0.164-0.161,0.342-0.294,0.525-0.419c0.085-0.059,0.163-0.127,0.251-0.177c0.28-0.158,0.577-0.285,0.887-0.364l-1.289,0.323
			c-0.31,0.078-0.605,0.204-0.885,0.362c-0.092,0.052-0.172,0.123-0.26,0.184c-0.181,0.124-0.355,0.254-0.515,0.412
			c-0.033,0.033-0.076,0.052-0.108,0.087c-0.098,0.103-0.189,0.211-0.277,0.327c-0.032,0.043-0.062,0.09-0.093,0.135
			c-0.01,0.014-0.02,0.028-0.029,0.042c-0.024,0.035-0.05,0.068-0.072,0.104c-0.054,0.085-0.104,0.172-0.152,0.263
			c-0.043,0.082-0.084,0.166-0.124,0.252c-0.034,0.074-0.066,0.15-0.095,0.227c-0.003,0.008-0.005,0.015-0.008,0.021
			c-0.029,0.077-0.056,0.154-0.081,0.23c-0.024,0.081-0.048,0.162-0.068,0.242c-0.021,0.082-0.04,0.165-0.056,0.247
			c-0.005,0.028-0.008,0.054-0.013,0.081c-0.002,0.013-0.005,0.025-0.006,0.038c-0.008,0.043-0.016,0.087-0.023,0.131
			c-0.012,0.086-0.022,0.173-0.029,0.259c-0.008,0.092-0.014,0.182-0.016,0.271c-0.001,0.047,0,0.096,0,0.145
			c0,0.019,0,0.037,0,0.056c0,0.028,0,0.059,0,0.087c0.003,0.104,0.009,0.209,0.02,0.312c0.011,0.118,0.026,0.236,0.046,0.354
			c0.002,0.015,0.006,0.028,0.01,0.043c0.005,0.027,0.012,0.056,0.018,0.085c0.019,0.101,0.038,0.202,0.064,0.302
			c0.025,0.095,0.063,0.186,0.094,0.279c0.03,0.091,0.057,0.183,0.092,0.272c0.016,0.037,0.024,0.079,0.04,0.117
			c0.032,0.076,0.081,0.144,0.117,0.217c0.081,0.168,0.165,0.333,0.264,0.49c0.026,0.042,0.042,0.09,0.07,0.131
			c0.061,0.091,0.136,0.172,0.203,0.259c0.055,0.069,0.105,0.141,0.162,0.206c0.022,0.024,0.038,0.052,0.059,0.076
			c0.095,0.104,0.194,0.202,0.299,0.297c0.053,0.048,0.109,0.094,0.166,0.14c0.016,0.012,0.03,0.024,0.046,0.039
			c0.016,0.012,0.031,0.025,0.047,0.04c0.079,0.06,0.16,0.118,0.243,0.174c0.077,0.051,0.155,0.1,0.236,0.146
			c0.055,0.032,0.112,0.062,0.168,0.092c0.023,0.013,0.046,0.023,0.07,0.035c0.075,0.038,0.15,0.071,0.227,0.104
			c0.074,0.031,0.15,0.06,0.225,0.085c0.075,0.024,0.149,0.05,0.225,0.071c0.01,0.002,0.021,0.004,0.029,0.007
			c0.01,0.002,0.019,0.005,0.028,0.007c0.058,0.016,0.114,0.031,0.171,0.044c0.079,0.015,0.157,0.03,0.235,0.042
			c0.083,0.013,0.165,0.021,0.247,0.029c0.042,0.003,0.083,0.006,0.125,0.007c0.046,0.003,0.093,0.003,0.138,0.004
			c0.096,0,0.19-0.003,0.286-0.011c0.11-0.009,0.219-0.021,0.327-0.04c0.091-0.017,0.181-0.035,0.27-0.057l1.29-0.32
			c-0.331,0.082-0.674,0.116-1.022,0.103C18.604,51.203,18.344,51.162,18.083,51.092z"/>
		<path d="M20.617,46.004c-0.004-0.012-0.007-0.025-0.012-0.038c-0.017-0.04-0.042-0.073-0.06-0.111
			c-0.043-0.089-0.087-0.176-0.14-0.259c-0.01-0.016-0.017-0.035-0.028-0.051c-0.039-0.058-0.083-0.108-0.127-0.161
			c-0.023-0.029-0.044-0.06-0.069-0.088c-0.006-0.007-0.011-0.015-0.018-0.022c-0.047-0.052-0.097-0.101-0.149-0.147
			c-0.033-0.031-0.068-0.058-0.103-0.086c-0.006-0.003-0.011-0.008-0.017-0.013c-0.003-0.004-0.006-0.008-0.011-0.011
			c-0.039-0.029-0.08-0.059-0.121-0.086c-0.037-0.024-0.076-0.049-0.115-0.07c-0.028-0.016-0.055-0.03-0.083-0.045
			c-0.003-0.001-0.004-0.003-0.007-0.004c-0.008-0.003-0.014-0.008-0.021-0.012c-0.038-0.017-0.073-0.035-0.111-0.049
			c-0.036-0.015-0.073-0.03-0.11-0.042c-0.036-0.013-0.074-0.024-0.112-0.035c-0.004-0.001-0.008-0.002-0.013-0.004
			c-0.003,0-0.008-0.001-0.011-0.003c-0.03-0.008-0.059-0.016-0.089-0.022c-0.04-0.008-0.079-0.016-0.119-0.021
			c-0.042-0.006-0.083-0.011-0.125-0.014c-0.021-0.003-0.042-0.004-0.063-0.005c-0.023-0.001-0.047-0.001-0.071-0.002
			c-0.049,0-0.098,0.002-0.145,0.006c-0.055,0.004-0.11,0.012-0.164,0.02c-0.045,0.008-0.088,0.017-0.132,0.028l-1.289,0.321
			c0.163-0.041,0.335-0.059,0.512-0.051c0.137,0.006,0.271,0.027,0.401,0.063c0,0,0,0,0.001,0c0.128,0.035,0.252,0.084,0.372,0.144
			c0.002,0.001,0.004,0.002,0.006,0.004c0.116,0.061,0.226,0.131,0.33,0.211c0.006,0.004,0.011,0.011,0.016,0.015
			c0.097,0.076,0.187,0.164,0.271,0.257c0.024,0.026,0.045,0.057,0.068,0.085c0.055,0.068,0.107,0.139,0.156,0.215
			c0.051,0.081,0.095,0.167,0.138,0.255c0.024,0.051,0.053,0.099,0.074,0.152c0.016,0.037,0.026,0.078,0.039,0.116
			c0.034,0.099,0.064,0.197,0.086,0.301c0.004,0.016,0.007,0.034,0.011,0.05c0.025,0.139,0.042,0.281,0.043,0.426
			c0.003,0.254-0.033,0.496-0.102,0.72l0,0c-0.067,0.221-0.169,0.422-0.295,0.6c-0.003,0.005-0.006,0.01-0.01,0.015
			c-0.101,0.141-0.229,0.251-0.361,0.358c-0.047,0.039-0.092,0.083-0.144,0.116c-0.164,0.106-0.34,0.195-0.533,0.243l1.289-0.321
			c0.194-0.048,0.371-0.137,0.536-0.245c0.05-0.033,0.093-0.075,0.14-0.113c0.066-0.054,0.14-0.098,0.2-0.161
			c0.048-0.051,0.093-0.104,0.137-0.162c0.009-0.012,0.018-0.024,0.026-0.038c0.004-0.004,0.006-0.009,0.01-0.014
			c0.02-0.029,0.042-0.058,0.061-0.088c0.026-0.042,0.052-0.085,0.076-0.13c0.021-0.042,0.042-0.082,0.061-0.125
			c0.018-0.04,0.035-0.08,0.05-0.122c0.015-0.039,0.029-0.079,0.042-0.119c0.001-0.004,0.002-0.009,0.003-0.013
			c0.001-0.002,0.002-0.004,0.003-0.007c0.01-0.033,0.02-0.066,0.028-0.101c0.011-0.041,0.02-0.081,0.028-0.123
			c0.008-0.041,0.015-0.083,0.021-0.125c0.005-0.042,0.01-0.086,0.014-0.131s0.007-0.091,0.008-0.137
			c0.001-0.034,0.002-0.067,0.001-0.104c0-0.015-0.001-0.029-0.001-0.044c-0.001-0.054-0.005-0.105-0.009-0.158
			c-0.007-0.06-0.013-0.119-0.023-0.177c-0.002-0.015-0.007-0.029-0.009-0.046c-0.003-0.016-0.007-0.031-0.01-0.048
			c-0.008-0.041-0.016-0.083-0.026-0.123c-0.016-0.062-0.041-0.121-0.061-0.182C20.643,46.082,20.633,46.042,20.617,46.004z"/>
		<path d="M24.851,50.16l-1.694-1.779l0.018-0.169c0.052-0.494,0.054-0.951,0.005-1.399l-0.021-0.183l1.688-1.589
			c-0.133-0.467-0.297-0.917-0.487-1.34l-2.294-0.008l-0.114-0.16c-0.268-0.384-0.569-0.736-0.9-1.053l-0.123-0.114l0.112-2.5
			c-0.19-0.12-0.387-0.232-0.589-0.337c-0.174-0.086-0.357-0.176-0.548-0.255l-0.824,0.965c-0.052-0.007-0.105-0.015-0.157-0.019
			c-0.066-0.006-0.13-0.009-0.194-0.012c-0.079-0.004-0.157-0.005-0.233-0.005c-0.117-0.001-0.232,0.001-0.347,0.006l-1.555-1.982
			l-1.289,0.321l1.555,1.984c0.193-0.011,0.386-0.012,0.58-0.001c0.25,0.01,0.503,0.038,0.76,0.087l0.708-0.179l-0.515,0.604
			l-0.211-0.04c-0.239-0.045-0.473-0.071-0.708-0.081c-0.185-0.009-0.365-0.007-0.546,0l-0.19,0.009l-1.521-1.938
			c-0.384,0.114-0.752,0.261-1.1,0.437l0.111,2.505l-0.144,0.117c-0.12,0.097-0.204,0.221-0.312,0.326l-1.95-0.23l-1.289,0.322
			l2.311,0.274l0.762-0.191c-0.136,0.146-0.293,0.271-0.412,0.433l-0.128,0.172l-2.267-0.268c-0.091,0.189-0.175,0.388-0.256,0.591
			c-0.075,0.22-0.151,0.439-0.218,0.662l1.694,1.791l-0.021,0.169c-0.053,0.479-0.054,0.947-0.005,1.396l0.021,0.184l-1.688,1.577
			c0.132,0.465,0.296,0.917,0.49,1.351l2.264,0.012l0.109,0.154c0.285,0.4,0.581,0.739,0.907,1.037l0.128,0.117l-0.125,2.504
			c0.189,0.119,0.386,0.231,0.587,0.336c0.183,0.101,0.375,0.186,0.549,0.256l1.508-1.75l0.204,0.031
			c0.243,0.039,0.485,0.066,0.724,0.076l0.205,0.005c0.004,0,0.007,0,0.011,0l-1.049,0.263l-1.543,1.792l1.288-0.324l1.499-1.738
			c0.044-0.002,0.088-0.002,0.132-0.004l0.198-0.016l1.515,1.946c0.355-0.102,0.726-0.249,1.106-0.44l-0.123-2.504l0.146-0.118
			c0.341-0.277,0.634-0.579,0.9-0.923l0.129-0.168l1.091,0.12l-0.985,0.247c-0.283,0.372-0.602,0.7-0.957,0.988l0.126,2.554
			c-0.506,0.271-1.036,0.493-1.578,0.63l1.289-0.323c0.542-0.135,1.072-0.356,1.578-0.629l-0.125-2.553
			c0.199-0.164,0.387-0.337,0.563-0.524c0.108-0.114,0.208-0.238,0.308-0.364l0.979,0.109c0.09-0.191,0.176-0.387,0.257-0.583
			C24.713,50.611,24.787,50.388,24.851,50.16z M21.601,49.191c-0.641,1.664-2.139,2.739-3.813,2.739l-0.178-0.004
			c-0.598-0.026-1.183-0.185-1.737-0.472c-2.189-1.127-3.239-3.971-2.338-6.335c0.642-1.665,2.143-2.74,3.822-2.74l0.174,0.003
			c0.599,0.026,1.185,0.187,1.743,0.473C21.459,43.973,22.534,46.815,21.601,49.191z"/>
		<path d="M24.761,47.739c0.012-0.138,0.019-0.274,0.023-0.412c0.001-0.034,0-0.069,0-0.104c0-0.043,0-0.087,0-0.13
			c0-0.055,0.001-0.107,0-0.163c-0.003-0.134-0.012-0.269-0.023-0.401c-0.004-0.034-0.007-0.068-0.011-0.103l1.715-1.615
			c-0.102-0.395-0.238-0.781-0.388-1.163c-0.017-0.046-0.028-0.094-0.047-0.139c-0.072-0.177-0.15-0.352-0.233-0.522l-2.309-0.009
			c-0.189-0.276-0.395-0.537-0.617-0.778c-0.107-0.114-0.215-0.226-0.329-0.332l0.114-2.542c-0.006-0.004-0.011-0.009-0.016-0.012
			c-0.142-0.094-0.287-0.183-0.436-0.269c-0.069-0.087-0.171-0.216-0.186-0.217c0.017-0.034,0.074-0.11,0.216-0.212
			c0.707-0.561,4.385-0.487,5.769-0.462c0.337,0.006,0.625,0.012,0.837,0.012c0.116,0,0.309,0.007,0.557,0.015
			c3.246,0.109,5.533-0.003,6.138-0.915c0.194-0.294,0.214-0.649,0.051-1.003c-0.614-1.32-2.434-1.234-4.194-1.152
			c-0.683,0.03-1.374,0.061-1.979,0.016c0.973-0.412,1.655-1.376,1.655-2.5v-5.236c-0.54,0.54-1.429,1.155-2.667,1.168
			c-1.237,0.014-1.896-0.25-2.758-0.803v4.872c0,0.939,0.479,1.768,1.205,2.255c0.082,0.145,0.175,0.28,0.288,0.399
			c0.928,0.985,2.642,0.904,4.301,0.827c1.433-0.064,2.91-0.135,3.266,0.604c-0.113,0.19-0.853,0.618-5.271,0.469
			c-0.263-0.009-0.468-0.016-0.591-0.016c-0.208,0-0.488-0.005-0.818-0.012c-2.744-0.053-5.498-0.045-6.388,0.663
			c-0.281,0.2-0.46,0.44-0.55,0.691c-0.018-0.006-0.035-0.014-0.052-0.021l-1.289,0.322c0.288,0.105,0.563,0.236,0.828,0.367
			c0.276,0.145,0.542,0.3,0.795,0.47l-0.113,2.543c0.352,0.333,0.666,0.703,0.946,1.111l2.309,0.009
			c0.105,0.219,0.195,0.446,0.285,0.673c0.149,0.378,0.281,0.762,0.383,1.152l-1.716,1.615c0.024,0.229,0.035,0.457,0.035,0.686
			c0,0.03,0,0.062,0,0.093c-0.003,0.231-0.016,0.464-0.041,0.698l1.719,1.807c-0.08,0.312-0.172,0.611-0.287,0.911
			c-0.115,0.284-0.244,0.568-0.384,0.841l1.289-0.322c0.075-0.146,0.146-0.294,0.214-0.446c0.059-0.131,0.115-0.263,0.169-0.395
			c0.007-0.016,0.013-0.03,0.019-0.046c0.049-0.13,0.093-0.263,0.136-0.396c0.047-0.148,0.091-0.301,0.13-0.455
			c0.001-0.005,0.002-0.011,0.004-0.016l-1.72-1.806C24.75,47.848,24.754,47.793,24.761,47.739z"/>
		<polygon points="31.904,42.51 31.39,42.513 30.1,42.835 30.615,42.833 31.128,42.881 31.602,44.316 31.8,44.931 33.088,44.608 
			32.891,43.994 32.417,42.558 		"/>
		<path d="M35.302,46.727l-0.552-0.236l0.244-0.569l0.558-1.322c-0.145-0.199-0.302-0.394-0.468-0.575
			c-0.083-0.091-0.17-0.179-0.259-0.263l-1.29,0.323c0.267,0.249,0.511,0.538,0.728,0.837l-0.559,1.323l-0.244,0.567l0.554,0.237
			l1.272,0.557l0.043,0.57l-0.03,0.565l-1.261,0.445l-0.547,0.188l0.257,0.591l0.59,1.374c-0.048,0.063-0.101,0.121-0.151,0.183
			c-0.063,0.078-0.127,0.159-0.194,0.234c-0.115,0.125-0.235,0.241-0.362,0.343l1.291-0.322c0.118-0.097,0.231-0.205,0.34-0.32
			c0.126-0.135,0.248-0.282,0.36-0.433c0.003-0.003,0.005-0.004,0.008-0.007l-0.591-1.374l-0.258-0.592l0.548-0.187l1.261-0.446
			l0.029-0.568l-0.043-0.566L35.302,46.727z"/>
		<path d="M15.946,47.062c0.011,1.019,0.762,1.876,1.671,1.915l0.067,0.003c0.379,0,0.74-0.152,1.012-0.43
			c0.325-0.328,0.501-0.791,0.495-1.303c-0.012-1.023-0.756-1.89-1.66-1.928c-0.002,0-0.004-0.001-0.005-0.001
			c-0.443,0-0.805,0.155-1.081,0.435C16.122,46.082,15.938,46.558,15.946,47.062z"/>
		<path d="M33.999,51.306l-0.918-2.129l1.951-0.68l0.014-0.319l-0.023-0.302l-1.962-0.848l0.866-2.033
			c-0.124-0.162-0.251-0.312-0.381-0.445l-1.881,0.919l-0.726-2.222l-0.273-0.026l-0.208,0.001l-0.292,0.941l-1.155-0.646
			L27.72,43.84l1.228,0.688l0.529,0.3L30,44.697l-0.218,0.702l-1.927-1.084c-0.118,0.109-0.233,0.232-0.34,0.362l0.932,2.13
			l-1.974,0.68l-0.009,0.31l0.018,0.311l1.979,0.852l-0.864,2.034c0.11,0.141,0.237,0.286,0.379,0.43l1.883-0.907l0.125,0.387
			l-0.433,0.107l-0.521,0.254l-1.213,0.58l1.29-0.323l0.937-0.446l0.542,1.664l0.254,0.023l0.228-0.001l0.673-2.174l0.688,0.388
			l-0.555,0.139l-0.185,0.599l-0.438,1.394l1.291-0.321l0.438-1.396l0.027-0.089l0.659,0.373
			C33.776,51.566,33.889,51.445,33.999,51.306z M31.719,49.08c-0.242,0.244-0.562,0.38-0.899,0.38
			c-0.812-0.034-1.408-0.694-1.421-1.506c-0.003-0.405,0.142-0.777,0.407-1.047c0.243-0.245,0.563-0.379,0.9-0.379l0.062,0.001
			c0.193,0.009,0.376,0.061,0.542,0.146l-0.903,0.225c-0.149,0.038-0.276,0.125-0.39,0.231c-0.015,0.013-0.036,0.014-0.049,0.028
			c-0.021,0.025-0.046,0.053-0.067,0.081c-0.005,0.007-0.01,0.015-0.014,0.021c-0.002,0-0.002,0.001-0.002,0.001
			c-0.011,0.016-0.021,0.031-0.033,0.047c-0.013,0.022-0.026,0.043-0.038,0.065c-0.011,0.021-0.021,0.042-0.029,0.063
			c-0.009,0.019-0.019,0.039-0.026,0.061c-0.008,0.019-0.015,0.039-0.021,0.06c0,0.002-0.001,0.004-0.001,0.007l-0.003,0.001
			c-0.004,0.019-0.009,0.035-0.014,0.053c-0.006,0.021-0.01,0.041-0.015,0.061c-0.003,0.021-0.007,0.042-0.01,0.062
			c-0.004,0.021-0.007,0.043-0.009,0.064c-0.001,0.023-0.002,0.045-0.003,0.069c0,0.018,0,0.034,0,0.051c0,0.007,0,0.016,0,0.023
			c0.001,0.025,0.002,0.052,0.005,0.078c0.003,0.029,0.007,0.059,0.013,0.088c0.005,0.038,0.013,0.071,0.021,0.107
			c0.012,0.042,0.027,0.083,0.042,0.121c0.001,0.008,0.004,0.014,0.006,0.021c0.002,0.008,0.006,0.017,0.01,0.023
			c0.031,0.075,0.068,0.145,0.111,0.209c0.028,0.04,0.059,0.078,0.09,0.114c0.001,0.001,0.002,0.002,0.005,0.004
			c0.004,0.005,0.007,0.012,0.012,0.016c0.023,0.026,0.048,0.052,0.075,0.073c0.02,0.02,0.042,0.038,0.063,0.055
			c0.02,0.015,0.04,0.029,0.062,0.044c0.018,0.012,0.037,0.022,0.057,0.034c0.013,0.01,0.029,0.018,0.044,0.025
			c0.002,0,0.002,0.001,0.003,0.001c0.003,0.001,0.006,0.002,0.009,0.004c0.019,0.008,0.036,0.017,0.056,0.025
			c0.018,0.007,0.036,0.015,0.055,0.021c0.019,0.007,0.038,0.014,0.056,0.02c0.02,0.004,0.039,0.011,0.059,0.015
			c0.02,0.002,0.04,0.007,0.059,0.009c0.021,0.003,0.043,0.006,0.063,0.008c0.012,0.001,0.021,0.001,0.031,0.001
			c0.014,0.001,0.024,0.001,0.037,0.001c0.025,0,0.05-0.001,0.073-0.002c0.028-0.002,0.055-0.006,0.083-0.01
			c0.021-0.003,0.044-0.009,0.066-0.014l0.948-0.237C31.84,48.897,31.796,49.001,31.719,49.08z M31.941,48.735
			c-0.257-0.022-0.489-0.145-0.663-0.337c-0.005-0.005-0.009-0.011-0.014-0.017c-0.085-0.1-0.157-0.214-0.207-0.341
			c-0.002-0.004-0.003-0.01-0.006-0.017c-0.049-0.131-0.079-0.272-0.081-0.419c-0.002-0.127,0.019-0.248,0.05-0.357
			c0-0.001,0.002-0.003,0.002-0.004c0.032-0.11,0.083-0.209,0.146-0.297c0.002-0.002,0.004-0.007,0.005-0.009
			c0.036-0.05,0.084-0.085,0.127-0.126c0.031-0.028,0.072-0.039,0.105-0.063c0.417,0.261,0.709,0.729,0.718,1.286
			C32.127,48.291,32.051,48.52,31.941,48.735z"/>
	</g>
</g>
<g>
</g>
<g>
</g>
<g>
</g>
<g>
</g>
<g>
</g>
<g>
</g>
<g>
</g>
<g>
</g>
<g>
</g>
<g>
</g>
<g>
</g>
<g>
</g>
<g>
</g>
<g>
</g>
<g>
</g>
</svg>
