<?xml version="1.0" encoding="iso-8859-1"?>
<!-- Generator: Adobe Illustrator 16.0.0, SVG Export Plug-In . SVG Version: 6.00 Build 0)  -->
<!DOCTYPE svg PUBLIC "-//W3C//DTD SVG 1.1//EN" "http://www.w3.org/Graphics/SVG/1.1/DTD/svg11.dtd">
<svg version="1.1" id="Capa_1" xmlns="http://www.w3.org/2000/svg" xmlns:xlink="http://www.w3.org/1999/xlink" x="0px" y="0px"
	 width="55.91px" height="55.91px" viewBox="0 0 55.91 55.91" style="enable-background:new 0 0 55.91 55.91;" xml:space="preserve"
	>
<g>
	<g>
		<path d="M55.703,29.779c-0.217-0.391-0.569-0.673-0.998-0.797l-18.135-5.2v-10.62c0-0.396-0.219-0.758-0.568-0.942
			c-0.125-0.066-0.26-0.096-0.396-0.109c-0.002,0-0.004-0.002-0.006-0.002l-2.146-0.398c0.943-0.386,2.207-0.381,3.299,0.071
			c0.63,0.245,1.244,0.703,1.896,1.188c0.889,0.661,1.807,1.343,2.986,1.68c3.655,0.887,7.141-1.318,9.688-2.93
			c0.33-0.21,0.428-0.648,0.219-0.98c-0.209-0.331-0.647-0.43-0.979-0.22c-2.33,1.476-5.523,3.495-8.566,2.757
			c-0.084-0.025-0.166-0.065-0.25-0.096c3.582,0.567,6.867-1.7,9.279-3.374c0.324-0.224,0.402-0.666,0.18-0.988
			c-0.225-0.323-0.666-0.403-0.987-0.179c-2.267,1.573-5.367,3.724-8.441,3.114c-0.912-0.22-1.748-0.789-2.559-1.34
			c-0.722-0.49-1.468-0.998-2.271-1.272c-1.883-0.688-4.094-0.377-5.377,0.756c-0.412,0.364-0.719,0.8-0.924,1.292l-3.412-0.633
			c-0.162-0.031-0.332-0.002-0.477,0.079l-7.129,4.003c-0.166,0.093-0.275,0.249-0.326,0.424c-0.08,0.151-0.125,0.319-0.125,0.494
			v2.991L2.134,13.663c-0.154-0.045-0.311-0.067-0.467-0.067c-0.736,0-1.395,0.495-1.6,1.204c-0.123,0.428-0.074,0.878,0.141,1.268
			c0.217,0.39,0.57,0.672,0.998,0.796l17.973,5.153v10.757c0,0.485,0.328,0.908,0.797,1.031l8.283,2.157V21.148h0.77v14.863
			c0.02-0.005,0.041-0.004,0.061-0.01c0.037-0.012,0.07-0.035,0.105-0.051c0.059-0.025,0.117-0.045,0.17-0.082l6.744-4.614
			c0.289-0.198,0.463-0.527,0.463-0.879v-3.127l17.207,4.934c0.885,0.254,1.818-0.277,2.066-1.137
			C55.968,30.619,55.918,30.169,55.703,29.779z M28.281,16.154l-6.055-1.179l-0.199-0.052L27.229,12l3.135,0.55
			c-0.018,0.438,0.021,0.898,0.131,1.38c0.012,0.046,0.035,0.084,0.053,0.125c0.007,0.268,0.027,0.543,0.076,0.827L28.281,16.154z
			 M31.965,14.156c-0.024-0.489,0.039-0.92,0.207-1.287l1.638,0.287L31.965,14.156z"/>
		<path d="M22.293,47.396c-0.029-0.018-0.059-0.037-0.088-0.055c-0.07-0.087-0.172-0.216-0.186-0.217
			c0.016-0.034,0.072-0.11,0.215-0.212c0.707-0.561,4.385-0.487,5.77-0.462c0.339,0.006,0.625,0.012,0.839,0.012
			c0.114,0,0.309,0.007,0.557,0.015c3.246,0.109,5.533-0.003,6.137-0.915c0.195-0.294,0.215-0.649,0.051-1.003
			c-0.612-1.319-2.434-1.234-4.192-1.152c-0.685,0.03-1.375,0.061-1.98,0.016c0.974-0.412,1.656-1.376,1.656-2.5v-5.236
			c-0.539,0.54-1.428,1.155-2.666,1.168c-1.238,0.014-1.896-0.25-2.76-0.803v4.871c0,0.94,0.479,1.768,1.205,2.255
			c0.082,0.146,0.176,0.28,0.289,0.399c0.928,0.985,2.643,0.904,4.301,0.828c1.434-0.065,2.91-0.136,3.266,0.604
			c-0.112,0.19-0.852,0.618-5.271,0.469c-0.263-0.009-0.467-0.016-0.59-0.016c-0.209,0-0.488-0.005-0.818-0.012
			c-2.744-0.053-5.498-0.044-6.389,0.664c-0.281,0.199-0.461,0.439-0.551,0.69c-0.018-0.006-0.035-0.014-0.053-0.021l-0.551,0.138
			C21.097,47.053,21.698,47.218,22.293,47.396z"/>
	</g>
</g>
<g>
</g>
<g>
</g>
<g>
</g>
<g>
</g>
<g>
</g>
<g>
</g>
<g>
</g>
<g>
</g>
<g>
</g>
<g>
</g>
<g>
</g>
<g>
</g>
<g>
</g>
<g>
</g>
<g>
</g>
</svg>
