<?xml version="1.0" encoding="iso-8859-1"?>
<!-- Generator: Adobe Illustrator 16.0.0, SVG Export Plug-In . SVG Version: 6.00 Build 0)  -->
<!DOCTYPE svg PUBLIC "-//W3C//DTD SVG 1.1//EN" "http://www.w3.org/Graphics/SVG/1.1/DTD/svg11.dtd">
<svg version="1.1" id="Capa_1" xmlns="http://www.w3.org/2000/svg" xmlns:xlink="http://www.w3.org/1999/xlink" x="0px" y="0px"
	 width="57.207px" height="57.208px" viewBox="0 0 57.207 57.208" style="enable-background:new 0 0 57.207 57.208;"
	 xml:space="preserve">
<g>
	<g>
		<path d="M13.732,19.382l-0.002-0.82c-0.123,0.032-0.246,0.064-0.369,0.093v0.713l-0.885-0.533
			c-0.135,0.022-0.268,0.042-0.402,0.061l1.541,0.929v0.004l0.002-0.002l0.004,0.002v-0.004l1.715-1.034l-0.297-0.165L13.732,19.382
			z"/>
		<path d="M13.523,11.85l-3.305,1.862l0.014,0.009v0.375l0.031-0.019v1.225l-0.031,0.02v2.463l0.268,0.161
			c0.158,0.001,0.32-0.002,0.486-0.01l-0.33-0.199l2.705-1.244v1.069c0.123-0.031,0.244-0.063,0.367-0.097L13.726,16.5l0.645,0.279
			l0.154-0.275l-0.799-0.347V15.83l3.018-1.812v3.448l-0.313-0.136l-0.156,0.275l0.299,0.13l-0.547,0.316l-0.271,0.483l1.248-0.752
			v-4.077l-0.018,0.01l0.018-0.011L13.523,11.85z M13.361,16.146l-2.869,1.319v-3.447l2.869,1.729V16.146z M13.369,15.419
			l-2.73-1.646l2.73-1.534V15.419z M13.683,15.464v-3.232l2.895,1.484L13.683,15.464z"/>
		<path d="M19.083,14.02c0.102,0.333-0.094,0.779-0.555,1.258l0.381,0.368c0.771-0.799,0.795-1.41,0.682-1.782
			c-0.213-0.688-1.057-1.111-2.375-1.194c-0.508-0.031-1.066-0.01-1.654,0.057l0.875,0.468c0.258-0.009,0.51-0.009,0.746,0.006
			C18.249,13.265,18.943,13.564,19.083,14.02z"/>
		<path d="M14.927,16.529l-0.258,0.464l0.559,0.313c-0.295,0.11-0.594,0.216-0.898,0.311c-1.49,0.46-2.957,0.674-4.127,0.602
			c-1.066-0.066-1.76-0.365-1.9-0.82c-0.139-0.455,0.264-1.092,1.107-1.748c0.211-0.163,0.443-0.321,0.691-0.476v-0.617
			c-0.373,0.216-0.715,0.44-1.016,0.674c-1.043,0.811-1.502,1.636-1.289,2.324c0.213,0.687,1.055,1.111,2.375,1.192
			c0.158,0.011,0.322,0.015,0.492,0.015c1.135,0,2.473-0.221,3.824-0.639c0.293-0.091,0.582-0.192,0.867-0.299l-0.27,0.484
			l0.461,0.259l0.723-1.288L14.927,16.529z"/>
		<path d="M14.294,12.934c-0.105,0.022-0.209,0.044-0.314,0.068v0.547c0.369-0.089,0.73-0.163,1.086-0.219L14.294,12.934z"/>
		<path d="M11.798,14.25c0.402-0.163,0.822-0.315,1.258-0.45c0.027-0.008,0.053-0.015,0.078-0.022v-0.553
			c-0.078,0.023-0.156,0.044-0.234,0.068c-0.582,0.18-1.143,0.388-1.666,0.617L11.798,14.25z"/>
		<path d="M57.207,28.345l-0.141-12.743l-13.504-1.813l-4.32,1.417v-3.762L4.498,7.42v0.136C4.234,7.576,0,7.987,0,14.658v25.954
			l4.752,8.998l0.01,0.177l34.48-7.927V29.875l4.146,0.269L57.207,28.345z M52.455,19.679l-2.158-0.272l0.004-1.048l2.045,0.256
			c1.313,0.177,2.406,0.324,3.051,0.979c0.674,0.669,0.845,1.25,0.84,2.305c-0.006,1.234-0.229,1.745-0.913,2.453
			c-0.718,0.745-1.854,0.917-3.255,1.099c-0.768,0.101-1.344,0.132-1.77,0.134l-0.006-4.942l1.281,0.006l0.035,3.785
			c0.184,0.008,0.459-0.028,0.727-0.063c1.707-0.212,2.594-0.538,2.6-2.406C54.953,20.335,54.061,19.895,52.455,19.679z
			 M45.492,24.823c0.277,0.13,0.949,0.318,1.635,0.229c1.037-0.135,1.477-0.891,1.465-1.467c0.004-0.87-0.771-1.245-1.578-1.249
			l-0.615-0.002l0.004-1.017l0.595,0.002c0.614,0.003,1.394-0.536,1.396-1.27c0.002-0.498-0.354-0.964-1.119-1.067
			c-0.572-0.076-1.144,0.107-1.437,0.271l-0.297-1.044c0.397-0.24,1.179-0.408,2.019-0.295c1.444,0.194,2.186,1.129,2.184,2.089
			c-0.004,0.769-0.438,1.471-1.301,1.785v0.022c0.852,0.161,1.539,0.842,1.535,1.836c-0.006,1.243-1.006,2.245-2.781,2.477
			c-0.873,0.113-1.623-0.031-2.01-0.233L45.492,24.823z M1.705,40.122V14.658c0-4.731,2.338-5.318,2.805-5.388l0.223,35.68
			L1.705,40.122z M23.667,43.51c-0.354,0-0.639-0.425-0.639-0.947s0.285-0.947,0.639-0.947s0.641,0.425,0.641,0.947
			S24.021,43.51,23.667,43.51z M37.537,37.78L6.429,43.961L6.212,9.335l31.324,3.627v2.802l-18.91,6.201l-0.256,6.562l19.166,1.236
			L37.537,37.78L37.537,37.78z"/>
	</g>
</g>
<g>
</g>
<g>
</g>
<g>
</g>
<g>
</g>
<g>
</g>
<g>
</g>
<g>
</g>
<g>
</g>
<g>
</g>
<g>
</g>
<g>
</g>
<g>
</g>
<g>
</g>
<g>
</g>
<g>
</g>
</svg>
