<?xml version="1.0" encoding="iso-8859-1"?>
<!-- Generator: Adobe Illustrator 16.0.0, SVG Export Plug-In . SVG Version: 6.00 Build 0)  -->
<!DOCTYPE svg PUBLIC "-//W3C//DTD SVG 1.1//EN" "http://www.w3.org/Graphics/SVG/1.1/DTD/svg11.dtd">
<svg version="1.1" id="Capa_1" xmlns="http://www.w3.org/2000/svg" xmlns:xlink="http://www.w3.org/1999/xlink" x="0px" y="0px"
	 width="55.434px" height="55.433px" viewBox="0 0 55.434 55.433" style="enable-background:new 0 0 55.434 55.433;"
	 xml:space="preserve">
<g>
	<g>
		<path d="M10.958,23.536l0.028,0.054l-0.033-0.006v5.283l4.372,1.032l3.359-1.849v-5.368l-4.482-0.863L10.958,23.536z
			 M15.106,29.583l-3.919-0.902v-4.811l3.919,0.844V29.583z M18.291,22.892l-2.978,1.631l-4.044-0.871l2.971-1.571L18.291,22.892z"
			/>
		<path d="M19.044,4.933c1.548,0.038,3.149,0.076,4.011-0.827c0.482-0.508,0.682-1.242,0.608-2.244L23.149,1.9
			c0.063,0.85-0.091,1.455-0.468,1.851c-0.46,0.484-1.229,0.635-2.126,0.671c0.202-0.105,0.388-0.234,0.546-0.405
			c0.479-0.519,0.673-1.308,0.592-2.412l-0.514,0.038C21.25,2.598,21.1,3.26,20.723,3.669c-0.568,0.614-1.622,0.62-2.739,0.625
			c-1.213,0.007-2.468,0.015-3.261,0.823c-0.138,0.139-0.25,0.303-0.35,0.481H0v28.339h28.338V5.598H15.286
			C16.091,4.867,17.589,4.897,19.044,4.933z M3.551,11.246c0-1.422,1.152-2.574,2.574-2.574h7.848
			c-0.001,0.393-0.002,0.841-0.002,1.308H11.51v3.818h-0.408v-1.534h-0.171c-0.48,0-0.869,0.389-0.869,0.869
			c0,0.268,0.124,0.506,0.316,0.665H3.551V11.246z M24.787,28.291c0,1.422-1.152,2.572-2.574,2.572H6.125
			c-1.422,0-2.574-1.15-2.574-2.572V15.427h7.959v3.819h2.01v1.237c0,0.491,0.357,0.896,0.825,0.977l0.499-0.044
			c0.385-0.137,0.661-0.5,0.661-0.933v-1.237h2.011v-3.819h7.271V28.291z M22.213,8.672c1.422,0,2.574,1.152,2.574,2.574v2.552
			h-6.279c0.192-0.159,0.316-0.397,0.316-0.665c0-0.48-0.39-0.869-0.869-0.869h-0.171v1.534h-0.269V9.98h-2.887
			c0-0.468,0-0.916,0.001-1.308H22.213z"/>
		<path d="M52.434,26.819h-9.667c-1.653,0-3,1.347-3,3v10.983l-0.032,0.018l0.028,0.055l-0.032-0.007v5.283l0.036,0.009v4.669
			c0,1.654,1.347,3,3,3h9.667c1.654,0,3-1.346,3-3v-21.01C55.434,28.164,54.088,26.819,52.434,26.819z M41.767,41.544L43.881,42
			v4.869l-2.114-0.486V41.544z M41.767,41.306v-1.281l1.249-0.661l4.053,0.812l-2.979,1.631L41.767,41.306z M47.601,53.177
			c-0.553,0-1-0.448-1-1c0-0.553,0.447-1,1-1c0.552,0,1,0.447,1,1C48.601,52.729,48.152,53.177,47.601,53.177z M53.434,49.329
			c0,0.552-0.447,1-1,1h-9.667c-0.551,0-1-0.448-1-1v-2.696l2.334,0.551l3.36-1.85l-0.001-5.367l-4.481-0.862l-1.212,0.641v-9.926
			c0-0.552,0.449-1,1-1h9.667c0.553,0,1,0.448,1,1V49.329z"/>
		<path d="M48.281,31.339v-0.008c0.334-0.117,0.5-0.351,0.5-0.635c0-0.355-0.287-0.664-0.847-0.664c-0.325,0-0.627,0.102-0.78,0.209
			l0.115,0.372c0.113-0.075,0.336-0.171,0.557-0.171c0.297,0,0.435,0.154,0.435,0.338c0,0.271-0.301,0.38-0.539,0.38h-0.229v0.376
			h0.238c0.313,0,0.613,0.139,0.613,0.459c0.005,0.213-0.154,0.434-0.547,0.434c-0.26,0-0.514-0.104-0.618-0.166l-0.116,0.389
			c0.146,0.096,0.43,0.188,0.76,0.188c0.672,0,1.058-0.363,1.058-0.822C48.879,31.649,48.611,31.399,48.281,31.339z"/>
		<path d="M50.781,29.488c-1.074,0-1.946,0.872-1.946,1.947c0,1.076,0.872,1.947,1.946,1.947c1.076,0,1.947-0.871,1.947-1.947
			C52.729,30.361,51.859,29.488,50.781,29.488z M51.71,32.438c-0.28,0.255-0.728,0.385-1.272,0.385
			c-0.302,0-0.527-0.017-0.693-0.038v-2.77c0.226-0.037,0.514-0.059,0.818-0.059c0.525,0,0.889,0.109,1.147,0.326
			c0.271,0.223,0.438,0.557,0.438,1.036C52.148,31.821,51.979,32.196,51.71,32.438z"/>
		<path d="M50.607,30.359c-0.162,0-0.279,0.012-0.351,0.029v2.013c0.071,0.013,0.181,0.013,0.284,0.013
			c0.668,0.004,1.064-0.363,1.064-1.076C51.609,30.714,51.251,30.359,50.607,30.359z"/>
		<circle cx="39.031" cy="25.925" r="0.527"/>
		<path d="M39.51,21.816c-1.217-0.118-2.441,0.3-3.361,1.145c-0.92,0.846-1.438,2.031-1.426,3.254l0.506-0.006
			c-0.014-1.08,0.445-2.129,1.26-2.877c0.814-0.749,1.898-1.118,2.975-1.014L39.51,21.816z"/>
		<path d="M39.419,23.703c-0.714-0.069-1.433,0.176-1.974,0.671c-0.539,0.496-0.842,1.191-0.834,1.908l0.455-0.005
			c-0.009-0.589,0.242-1.16,0.688-1.569c0.443-0.408,1.035-0.61,1.622-0.554L39.419,23.703z"/>
		<path d="M39.889,20.36l0.049-0.502c-1.83-0.176-3.675,0.452-5.059,1.723c-1.383,1.271-2.164,3.055-2.143,4.894l0.504-0.005
			c-0.02-1.696,0.701-3.342,1.979-4.517C36.499,20.778,38.199,20.197,39.889,20.36z"/>
	</g>
</g>
<g>
</g>
<g>
</g>
<g>
</g>
<g>
</g>
<g>
</g>
<g>
</g>
<g>
</g>
<g>
</g>
<g>
</g>
<g>
</g>
<g>
</g>
<g>
</g>
<g>
</g>
<g>
</g>
<g>
</g>
</svg>
