<?xml version="1.0" encoding="iso-8859-1"?>
<!-- Generator: Adobe Illustrator 16.0.0, SVG Export Plug-In . SVG Version: 6.00 Build 0)  -->
<!DOCTYPE svg PUBLIC "-//W3C//DTD SVG 1.1//EN" "http://www.w3.org/Graphics/SVG/1.1/DTD/svg11.dtd">
<svg version="1.1" id="Capa_1" xmlns="http://www.w3.org/2000/svg" xmlns:xlink="http://www.w3.org/1999/xlink" x="0px" y="0px"
	 width="55.909px" height="55.909px" viewBox="0 0 55.909 55.909" style="enable-background:new 0 0 55.909 55.909;"
	 xml:space="preserve">
<g>
	<g>
		<path d="M42.767,47.636c0.397-3.24-1.645-3.937-1.645-3.937c-0.599-1.347-2.343-3.289-2.343-3.289
			c1.993-1.347-1.444-0.548-1.444-0.548c-3.923-0.518-12.16-0.251-15.09,0.217l0.073-0.243c-0.199-0.061-0.278-0.123-0.299-0.125
			c0.017-0.034,0.074-0.11,0.216-0.212c0.707-0.561,4.385-0.487,5.769-0.462c0.337,0.006,0.625,0.012,0.837,0.012
			c0.116,0,0.309,0.007,0.557,0.015c3.246,0.109,5.533-0.003,6.138-0.915c0.194-0.294,0.214-0.649,0.051-1.003
			c-0.614-1.319-2.433-1.234-4.194-1.152c-0.683,0.03-1.374,0.061-1.979,0.016c0.973-0.412,1.656-1.376,1.656-2.5v-5.236
			c-0.54,0.54-1.43,1.155-2.667,1.168c-1.238,0.014-1.896-0.25-2.759-0.803v4.871c0,0.94,0.479,1.768,1.205,2.255
			c0.082,0.146,0.175,0.28,0.288,0.399c0.928,0.985,2.643,0.904,4.301,0.828c1.433-0.065,2.91-0.136,3.266,0.604
			c-0.113,0.19-0.853,0.618-5.271,0.469c-0.263-0.009-0.468-0.016-0.591-0.016c-0.208,0-0.488-0.005-0.818-0.012
			c-2.743-0.053-5.498-0.044-6.388,0.664c-0.455,0.324-0.677,0.749-0.608,1.164c0.021,0.123,0.077,0.296,0.224,0.468
			c-1.228,0.642-4.747,3.865-4.747,3.865c-10.066,0.748-9.269,4.386-9.269,4.386c-1.096,0.2-0.449,1.894-0.015,3.491
			C7.334,52.5,7.9,52.771,8.666,52.943c-0.167-0.43-0.261-0.895-0.261-1.383c0-2.122,1.728-3.849,3.85-3.849
			c2.123,0,3.849,1.727,3.849,3.849c0,0.523-0.105,1.023-0.296,1.479l19.526-1.107c-0.012-0.122-0.02-0.246-0.02-0.372
			c0-2.122,1.729-3.849,3.851-3.849c2.102,0,3.812,1.692,3.847,3.786l0.402-0.023C44.211,48.582,42.767,47.636,42.767,47.636z
			 M31.582,43.334l-12.904,1l3.904-3.25c0,0,9-1.531,9,0S31.582,43.334,31.582,43.334z"/>
		<path d="M12.255,48.309c-1.797,0-3.252,1.455-3.252,3.25c0,0.546,0.135,1.06,0.371,1.509c0.545,1.036,1.629,1.743,2.881,1.743
			c1.247,0,2.331-0.704,2.875-1.735c0.239-0.452,0.376-0.968,0.376-1.518C15.508,49.764,14.051,48.309,12.255,48.309z
			 M14.246,52.609c-0.391,0.742-1.153,1.202-1.99,1.202c-0.838,0-1.604-0.463-1.995-1.207c-0.171-0.325-0.257-0.678-0.257-1.045
			c0-1.241,1.01-2.25,2.252-2.25c0.602,0,1.167,0.234,1.592,0.659c0.425,0.425,0.659,0.99,0.659,1.591
			C14.506,51.93,14.418,52.282,14.246,52.609z"/>
		<path d="M39.166,48.309c-1.796,0-3.253,1.455-3.253,3.25c0,0.115,0.006,0.229,0.018,0.337c0.17,1.639,1.554,2.915,3.235,2.915
			c1.796,0,3.252-1.455,3.252-3.252c0-0.01-0.002-0.021-0.002-0.029C42.4,49.748,40.951,48.309,39.166,48.309z M39.166,53.812
			c-1.158,0-2.122-0.868-2.241-2.017c-0.008-0.077-0.012-0.156-0.012-0.236c0-1.241,1.011-2.25,2.253-2.25
			c1.229,0,2.239,1,2.25,2.221l0.001,0.075v0.004C41.391,52.829,40.391,53.812,39.166,53.812z"/>
		<path d="M55.702,22.364c-0.215-0.39-0.569-0.672-0.997-0.796l-18.135-5.2V5.748c0-0.396-0.22-0.758-0.568-0.942
			c-0.125-0.066-0.259-0.096-0.396-0.109c-0.002,0-0.004-0.002-0.007-0.002l-2.144-0.398c0.942-0.386,2.207-0.381,3.3,0.071
			c0.627,0.245,1.244,0.703,1.896,1.188c0.889,0.661,1.808,1.343,2.985,1.68c3.657,0.887,7.143-1.318,9.688-2.93
			c0.331-0.21,0.429-0.648,0.22-0.98c-0.209-0.331-0.648-0.43-0.979-0.22C48.234,4.582,45.042,6.601,42,5.863
			c-0.085-0.025-0.167-0.065-0.251-0.096c3.583,0.567,6.868-1.7,9.28-3.374c0.322-0.224,0.401-0.666,0.179-0.988
			c-0.225-0.323-0.666-0.403-0.988-0.179c-2.266,1.573-5.369,3.724-8.441,3.114C40.866,4.12,40.029,3.55,39.218,3
			c-0.721-0.49-1.466-0.998-2.271-1.272c-1.884-0.688-4.095-0.377-5.377,0.756c-0.412,0.364-0.721,0.8-0.925,1.292l-3.412-0.632
			c-0.163-0.031-0.332-0.002-0.477,0.079l-7.129,4.003c-0.167,0.093-0.276,0.249-0.327,0.424c-0.079,0.151-0.125,0.319-0.125,0.494
			v2.991L2.133,6.248C1.978,6.203,1.822,6.181,1.666,6.181c-0.737,0-1.395,0.495-1.599,1.204c-0.124,0.428-0.074,0.878,0.141,1.268
			c0.215,0.39,0.569,0.672,0.997,0.796l17.974,5.153v10.757c0,0.485,0.327,0.908,0.796,1.031l8.284,2.157V13.733h0.77v14.863
			c0.02-0.005,0.04-0.004,0.061-0.01c0.038-0.012,0.07-0.035,0.104-0.051c0.059-0.025,0.116-0.045,0.17-0.082l6.743-4.615
			c0.29-0.198,0.464-0.527,0.464-0.879v-3.127l17.206,4.934c0.885,0.254,1.818-0.278,2.066-1.137
			C55.966,23.204,55.917,22.753,55.702,22.364z M28.281,8.739L22.227,7.56l-0.2-0.052l5.203-2.922l3.134,0.55
			c-0.018,0.438,0.021,0.898,0.132,1.38c0.01,0.046,0.034,0.084,0.052,0.125c0.005,0.268,0.027,0.543,0.075,0.827L28.281,8.739z
			 M32.171,5.454l1.636,0.287l-1.843,1C31.938,6.251,32.004,5.82,32.171,5.454z"/>
	</g>
</g>
<g>
</g>
<g>
</g>
<g>
</g>
<g>
</g>
<g>
</g>
<g>
</g>
<g>
</g>
<g>
</g>
<g>
</g>
<g>
</g>
<g>
</g>
<g>
</g>
<g>
</g>
<g>
</g>
<g>
</g>
</svg>
