<?xml version="1.0" encoding="iso-8859-1"?>
<!-- Generator: Adobe Illustrator 16.0.0, SVG Export Plug-In . SVG Version: 6.00 Build 0)  -->
<!DOCTYPE svg PUBLIC "-//W3C//DTD SVG 1.1//EN" "http://www.w3.org/Graphics/SVG/1.1/DTD/svg11.dtd">
<svg version="1.1" id="Capa_1" xmlns="http://www.w3.org/2000/svg" xmlns:xlink="http://www.w3.org/1999/xlink" x="0px" y="0px"
	 width="57.093px" height="57.093px" viewBox="0 0 57.093 57.093" style="enable-background:new 0 0 57.093 57.093;"
	 xml:space="preserve">
<g>
	<g>
		<path d="M51.13,19.307H34.38V11.89H22.712v7.417H5.963c-0.875,0-1.584,0.709-1.584,1.583s0.709,1.583,1.584,1.583h16.749v7.417
			h3.905v2.404c0,0.856,0.563,1.575,1.336,1.826c0.047,0.801,0.23,1.335,0.574,1.708c0.605,0.656,1.551,0.654,2.765,0.646
			c0.354,0,0.737-0.003,1.153,0.01c0.787,0.024,1.195,0.162,1.365,0.254c-0.375,0.308-1.947,0.822-5.251,0.492
			c-1.772-0.181-4.224-0.297-5.024,0.781c-0.216,0.291-0.408,0.794-0.098,1.54c0.101,0.244,0.253,0.431,0.426,0.591
			c-0.581,0.17-1.145,0.393-1.681,0.678l0.092,2.547c-0.387,0.302-0.743,0.647-1.062,1.037l-2.55-0.168
			c-0.159,0.279-0.308,0.567-0.437,0.871c-0.129,0.299-0.238,0.605-0.333,0.914l1.874,1.739c-0.063,0.499-0.072,0.995-0.023,1.484
			l-1.919,1.682c0.172,0.625,0.413,1.231,0.717,1.806l2.551-0.093c0.301,0.39,0.648,0.744,1.035,1.062l-0.166,2.552
			c0.278,0.158,0.566,0.306,0.869,0.437c0.301,0.131,0.605,0.237,0.912,0.332l1.741-1.871c0.499,0.063,0.995,0.072,1.483,0.023
			l1.683,1.919c0.626-0.171,1.231-0.412,1.806-0.717l-0.094-2.554c0.389-0.301,0.745-0.647,1.062-1.036l2.552,0.168
			c0.158-0.278,0.307-0.566,0.438-0.869c0.13-0.302,0.236-0.606,0.332-0.914l-1.87-1.741c0.063-0.498,0.071-0.994,0.026-1.484
			l1.916-1.682c-0.172-0.627-0.412-1.232-0.719-1.805l-2.552,0.094c-0.301-0.389-0.647-0.745-1.035-1.062l0.166-2.551
			c-0.118-0.068-0.248-0.123-0.371-0.187c-0.688-0.808-2-0.842-3.273-0.871c-1.179-0.026-2.398-0.053-2.671-0.713
			c-0.158-0.378-0.057-0.515-0.023-0.56c0.168-0.226,0.899-0.711,4.199-0.375c3.118,0.312,5.538-0.084,6.173-1.01
			c0.191-0.277,0.218-0.6,0.074-0.884c-0.334-0.657-1.438-0.827-2.307-0.854c-0.432-0.014-0.828-0.013-1.19-0.01
			c-0.996,0.006-1.719,0.008-2.024-0.324c-0.165-0.18-0.261-0.508-0.3-0.978c0.864-0.19,1.513-0.959,1.513-1.881V29.89h3.904v-7.417
			h16.75c0.874,0,1.583-0.709,1.583-1.583S52.004,19.307,51.13,19.307z M30.365,50.341c-0.964,2.235-3.556,3.265-5.79,2.302
			c-2.236-0.964-3.266-3.556-2.304-5.791c0.964-2.236,3.558-3.266,5.792-2.302C30.298,45.513,31.328,48.105,30.365,50.341z
			 M27.01,40.882c0.4,0.009,0.805,0.019,1.176,0.051l-1.031,1.11c-0.496-0.062-0.994-0.072-1.483-0.023l-1.384-1.576
			C25.027,40.83,26.058,40.861,27.01,40.882z"/>
		<path d="M21.589,16.203h0.332v-3.375h-0.332c-0.933,0-1.688,0.755-1.688,1.688C19.901,15.449,20.656,16.203,21.589,16.203z"/>
		<path d="M34.9,12.828v3.375h0.332c0.934,0,1.688-0.755,1.688-1.688c0-0.933-0.755-1.688-1.688-1.688L34.9,12.828L34.9,12.828z"/>
		<path d="M29.396,11.512l0.275-0.003C29.65,9.84,30.034,8.64,30.843,7.84c1.537-1.518,4.521-1.448,7.406-1.375
			c3.007,0.073,6.118,0.148,7.79-1.607c0.938-0.985,1.324-2.411,1.182-4.357l-0.996,0.073c0.12,1.649-0.177,2.825-0.908,3.594
			c-0.896,0.939-2.39,1.232-4.131,1.304c0.391-0.204,0.752-0.454,1.06-0.787c0.931-1.007,1.307-2.54,1.149-4.685l-0.998,0.074
			c0.137,1.854-0.154,3.141-0.887,3.934c-1.104,1.193-3.15,1.205-5.318,1.217c-2.357,0.014-4.795,0.028-6.337,1.598
			c-1.009,1.026-1.485,2.571-1.459,4.722l1-0.013C29.395,11.524,29.396,11.519,29.396,11.512z"/>
		<circle cx="26.319" cy="48.596" r="2.203"/>
		<path d="M44.22,46.697l-0.606-0.215l0.275-0.586l0.639-1.342c-0.234-0.294-0.504-0.564-0.801-0.803l-1.346,0.641l-0.582,0.277
			l-0.215-0.607l-0.499-1.406l-0.567-0.031l-0.568,0.031l-0.5,1.406l-0.215,0.607l-0.584-0.277l-1.344-0.638
			c-0.296,0.235-0.564,0.506-0.804,0.8l0.642,1.346l0.276,0.584l-0.606,0.215l-1.406,0.5l-0.031,0.565l0.031,0.565l1.406,0.5
			l0.606,0.216l-0.276,0.584l-0.639,1.345c0.234,0.295,0.505,0.563,0.801,0.801l1.346-0.639l0.584-0.277l0.217,0.608l0.498,1.405
			l0.566,0.031l0.567-0.031l0.499-1.405l0.215-0.608l0.585,0.277l1.343,0.639c0.297-0.235,0.565-0.506,0.805-0.801l-0.643-1.345
			l-0.277-0.583l0.607-0.215l1.406-0.502l0.031-0.565l-0.031-0.565L44.22,46.697z M40.518,48.865c-0.609,0-1.103-0.492-1.103-1.102
			s0.493-1.102,1.103-1.102c0.608,0,1.102,0.492,1.102,1.102S41.125,48.865,40.518,48.865z"/>
	</g>
</g>
<g>
</g>
<g>
</g>
<g>
</g>
<g>
</g>
<g>
</g>
<g>
</g>
<g>
</g>
<g>
</g>
<g>
</g>
<g>
</g>
<g>
</g>
<g>
</g>
<g>
</g>
<g>
</g>
<g>
</g>
</svg>
