<?xml version="1.0" encoding="iso-8859-1"?>
<!-- Generator: Adobe Illustrator 16.0.0, SVG Export Plug-In . SVG Version: 6.00 Build 0)  -->
<!DOCTYPE svg PUBLIC "-//W3C//DTD SVG 1.1//EN" "http://www.w3.org/Graphics/SVG/1.1/DTD/svg11.dtd">
<svg version="1.1" id="Capa_1" xmlns="http://www.w3.org/2000/svg" xmlns:xlink="http://www.w3.org/1999/xlink" x="0px" y="0px"
	 width="55.982px" height="55.982px" viewBox="0 0 55.982 55.982" style="enable-background:new 0 0 55.982 55.982;"
	 xml:space="preserve">
<g>
	<g>
		<path d="M37.938,3.952c0-1.301-1.056-2.355-2.357-2.355v4.71C36.882,6.308,37.938,5.254,37.938,3.952z"/>
		<path d="M20.218,6.308v-4.71c-1.302,0-2.357,1.054-2.357,2.355C17.86,5.254,18.916,6.308,20.218,6.308z"/>
		<path d="M37.49,38.235c-1.102-1.099-3.354-1.093-5.953-1.08c-2.893,0.012-6.151,0.021-6.913-1.679
			c-1.017-2.27-0.003-2.998,1.529-4.103c1.044-0.752,2.26-1.668,2.611-3.22c0.556-0.586,1.768-2.067,1.768-3.862
			c0-0.296-0.021-0.596-0.063-0.932c0.162-0.349,0.244-0.715,0.244-1.09v-1.89h4.188V0H21.257v20.38h4.186v1.89
			c0,0.376,0.082,0.744,0.246,1.094c-0.038,0.298-0.063,0.606-0.063,0.928c0,1.642,1.011,3.014,1.611,3.688
			c-0.259,0.837-0.953,1.427-1.975,2.16c-1.579,1.14-3.548,2.558-2.025,5.957c1.164,2.604,4.978,2.591,8.304,2.578
			c2.001-0.002,4.227-0.016,4.879,0.637c0.084,0.084,0.182,0.217,0.182,0.494c0,0.709-0.228,0.813-1.19,0.957
			c-0.213,0.033-0.429,0.074-0.636,0.132c-1.491,0.132-2.987,0.261-4.467,0.413c0.57-0.077,1.144-0.155,1.716-0.231
			c-4.852,0.424-9.418,0.144-13.985-1.55V55.03c0,0.524,0.424,0.952,0.949,0.952h17.129c0.525,0,0.954-0.426,0.954-0.952V41.836
			c0.569-0.326,1.051-0.908,1.051-2.027C38.12,39.182,37.908,38.651,37.49,38.235z M28.153,1.229h5.519v17.922h-4.188v3.119
			c0,0.233-0.062,0.462-0.186,0.682l-0.103,0.182l0.03,0.208c0.045,0.303,0.078,0.619,0.078,0.95c0,1.165-0.737,2.218-1.224,2.784
			L28.153,1.229z"/>
	</g>
</g>
<g>
</g>
<g>
</g>
<g>
</g>
<g>
</g>
<g>
</g>
<g>
</g>
<g>
</g>
<g>
</g>
<g>
</g>
<g>
</g>
<g>
</g>
<g>
</g>
<g>
</g>
<g>
</g>
<g>
</g>
</svg>
