<?xml version="1.0" encoding="iso-8859-1"?>
<!-- Generator: Adobe Illustrator 16.0.0, SVG Export Plug-In . SVG Version: 6.00 Build 0)  -->
<!DOCTYPE svg PUBLIC "-//W3C//DTD SVG 1.1//EN" "http://www.w3.org/Graphics/SVG/1.1/DTD/svg11.dtd">
<svg version="1.1" id="Capa_1" xmlns="http://www.w3.org/2000/svg" xmlns:xlink="http://www.w3.org/1999/xlink" x="0px" y="0px"
	 width="59.628px" height="59.628px" viewBox="0 0 59.628 59.628" style="enable-background:new 0 0 59.628 59.628;"
	 xml:space="preserve">
<g>
	<g>
		<path d="M57.562,21.265c-0.216-0.39-0.569-0.672-0.997-0.796l-18.135-5.2V4.649c0-0.396-0.22-0.758-0.568-0.942
			c-0.125-0.066-0.259-0.096-0.396-0.109c-0.002,0-0.004-0.002-0.007-0.002l-2.145-0.398c0.942-0.386,2.207-0.381,3.3,0.071
			c0.627,0.245,1.244,0.703,1.896,1.188c0.889,0.661,1.808,1.343,2.985,1.68c3.656,0.887,7.141-1.318,9.688-2.93
			c0.33-0.21,0.429-0.648,0.219-0.98c-0.209-0.331-0.647-0.43-0.979-0.22c-2.33,1.476-5.521,3.495-8.564,2.757
			c-0.085-0.025-0.167-0.065-0.251-0.096c3.583,0.567,6.867-1.7,9.28-3.374c0.322-0.224,0.401-0.666,0.179-0.988
			c-0.225-0.323-0.666-0.403-0.987-0.179c-2.266,1.573-5.368,3.724-8.441,3.114c-0.912-0.22-1.748-0.789-2.559-1.34
			c-0.721-0.49-1.466-0.998-2.271-1.272c-1.884-0.688-4.095-0.377-5.377,0.756c-0.412,0.364-0.721,0.8-0.925,1.292l-3.413-0.633
			c-0.163-0.031-0.332-0.002-0.477,0.079l-7.129,4.003c-0.167,0.093-0.276,0.249-0.327,0.424c-0.079,0.151-0.125,0.319-0.125,0.494
			v2.991L3.993,5.148C3.837,5.104,3.682,5.082,3.525,5.082c-0.737,0-1.395,0.495-1.599,1.204C1.802,6.714,1.853,7.164,2.067,7.553
			c0.215,0.39,0.569,0.672,0.997,0.796l17.974,5.153v10.757c0,0.485,0.327,0.908,0.796,1.031l8.284,2.157V12.635h0.769v14.863
			c0.02-0.005,0.04-0.004,0.061-0.01c0.038-0.012,0.07-0.035,0.104-0.051c0.059-0.025,0.116-0.045,0.17-0.082l6.743-4.614
			c0.29-0.198,0.464-0.527,0.464-0.879v-3.127l17.206,4.934c0.886,0.254,1.818-0.278,2.066-1.137
			C57.826,22.105,57.776,21.655,57.562,21.265z M30.141,7.64l-6.054-1.179l-0.2-0.052l5.203-2.922l3.134,0.55
			c-0.018,0.438,0.021,0.898,0.132,1.38c0.01,0.046,0.034,0.084,0.052,0.125c0.005,0.268,0.027,0.543,0.075,0.827L30.141,7.64z
			 M33.825,5.642c-0.026-0.489,0.039-0.92,0.207-1.287l1.636,0.287L33.825,5.642z"/>
		<path d="M33.251,34.894c-0.683,0.03-1.374,0.061-1.979,0.016c0.973-0.412,1.655-1.376,1.655-2.5v-5.236
			c-0.539,0.54-1.429,1.155-2.667,1.168c-1.238,0.013-1.896-0.25-2.759-0.803v4.871c0,0.94,0.479,1.768,1.205,2.255
			c0.082,0.146,0.175,0.28,0.288,0.399c0.929,0.985,2.643,0.904,4.301,0.828c1.433-0.065,2.91-0.136,3.266,0.604
			c-0.113,0.19-0.853,0.618-5.271,0.469c-0.263-0.009-0.468-0.016-0.59-0.016c-0.208,0-0.488-0.005-0.818-0.012
			c-2.744-0.053-5.498-0.044-6.389,0.664c-0.147,0.104-0.263,0.221-0.356,0.343l-1.097-0.234l-8.804,4.657l0.078,0.149l-0.089-0.02
			v14.333l11.861,2.799l9.115-5.016L34.18,40.617l0.011-0.309l-0.013-0.002v-0.025l-0.033,0.018l-9.682-2.07
			c1.177-0.371,4.18-0.313,5.401-0.291c0.337,0.006,0.625,0.012,0.837,0.012c0.116,0,0.308,0.007,0.556,0.015
			c3.246,0.109,5.533-0.003,6.138-0.915c0.194-0.294,0.214-0.649,0.051-1.003C36.831,34.727,35.013,34.812,33.251,34.894z
			 M24.488,58.775l-10.632-2.448v-13.05l10.632,2.289V58.775z"/>
	</g>
</g>
<g>
</g>
<g>
</g>
<g>
</g>
<g>
</g>
<g>
</g>
<g>
</g>
<g>
</g>
<g>
</g>
<g>
</g>
<g>
</g>
<g>
</g>
<g>
</g>
<g>
</g>
<g>
</g>
<g>
</g>
</svg>
