<?xml version="1.0" encoding="iso-8859-1"?>
<!-- Generator: Adobe Illustrator 16.0.0, SVG Export Plug-In . SVG Version: 6.00 Build 0)  -->
<!DOCTYPE svg PUBLIC "-//W3C//DTD SVG 1.1//EN" "http://www.w3.org/Graphics/SVG/1.1/DTD/svg11.dtd">
<svg version="1.1" id="Capa_1" xmlns="http://www.w3.org/2000/svg" xmlns:xlink="http://www.w3.org/1999/xlink" x="0px" y="0px"
	 width="53.498px" height="53.498px" viewBox="0 0 53.498 53.498" style="enable-background:new 0 0 53.498 53.498;"
	 xml:space="preserve">
<g>
	<g>
		<path d="M26.924,42.685L26.917,39c-0.557,0.145-1.112,0.285-1.664,0.414v3.205l-3.977-2.397c-0.608,0.104-1.208,0.19-1.805,0.274
			l6.926,4.178v0.017l0.009-0.007l0.015,0.007v-0.017l7.709-4.65l-1.329-0.742L26.924,42.685z"/>
		<path d="M25.983,8.808l-14.864,8.377l0.065,0.039v1.683l0.14-0.081v5.508l-0.14,0.087v11.077l1.2,0.724
			c0.712,0.007,1.44-0.007,2.188-0.042l-1.486-0.896l12.166-5.595v4.81c0.55-0.14,1.1-0.283,1.654-0.437l-0.007-4.333l2.894,1.254
			l0.693-1.24l-3.589-1.557l-0.004-1.476l13.571-8.149v15.508l-1.406-0.611l-0.694,1.242l1.34,0.58l-2.463,1.428l-1.217,2.172
			l5.609-3.383V17.162l-0.076,0.044l0.079-0.051L25.983,8.808z M25.253,28.13l-12.899,5.933V18.56l12.899,7.78V28.13z M25.29,24.865
			l-12.278-7.399l12.278-6.904V24.865z M26.705,25.067v-14.54l13.015,6.677L26.705,25.067z"/>
		<path d="M53.271,17.862c-0.954-3.094-4.747-4.999-10.682-5.368c-2.274-0.142-4.791-0.044-7.438,0.255l3.939,2.1
			c1.159-0.037,2.287-0.039,3.351,0.027c4.801,0.297,7.916,1.642,8.548,3.689c0.463,1.498-0.425,3.507-2.497,5.656l1.717,1.657
			C53.678,22.285,53.787,19.536,53.271,17.862z"/>
		<path d="M32.305,29.855l-1.166,2.083l2.511,1.405c-1.32,0.498-2.664,0.975-4.035,1.396c-6.706,2.071-13.297,3.029-18.559,2.707
			c-4.8-0.298-7.915-1.642-8.548-3.689c-0.631-2.045,1.186-4.912,4.983-7.863c0.941-0.732,1.988-1.444,3.104-2.137v-2.775
			c-1.673,0.968-3.218,1.979-4.568,3.028c-4.693,3.646-6.752,7.358-5.798,10.452c0.954,3.093,4.748,4.998,10.68,5.365
			c0.717,0.043,1.454,0.065,2.213,0.065c5.111,0,11.123-0.998,17.197-2.874c1.325-0.409,2.625-0.867,3.906-1.346l-1.22,2.179
			l2.084,1.166l3.242-5.792L32.305,29.855z"/>
		<path d="M29.448,13.683c-0.469,0.099-0.938,0.197-1.41,0.308v2.457c1.657-0.401,3.289-0.73,4.881-0.984L29.448,13.683z"/>
		<path d="M18.227,19.609c1.809-0.738,3.696-1.422,5.657-2.026c0.117-0.036,0.235-0.066,0.353-0.102v-2.484
			c-0.353,0.104-0.704,0.197-1.057,0.305c-2.619,0.808-5.135,1.743-7.49,2.778L18.227,19.609z"/>
	</g>
</g>
<g>
</g>
<g>
</g>
<g>
</g>
<g>
</g>
<g>
</g>
<g>
</g>
<g>
</g>
<g>
</g>
<g>
</g>
<g>
</g>
<g>
</g>
<g>
</g>
<g>
</g>
<g>
</g>
<g>
</g>
</svg>
