<?xml version="1.0" encoding="iso-8859-1"?>
<!-- Generator: Adobe Illustrator 16.0.0, SVG Export Plug-In . SVG Version: 6.00 Build 0)  -->
<!DOCTYPE svg PUBLIC "-//W3C//DTD SVG 1.1//EN" "http://www.w3.org/Graphics/SVG/1.1/DTD/svg11.dtd">
<svg version="1.1" id="Capa_1" xmlns="http://www.w3.org/2000/svg" xmlns:xlink="http://www.w3.org/1999/xlink" x="0px" y="0px"
	 width="55.505px" height="55.505px" viewBox="0 0 55.505 55.505" style="enable-background:new 0 0 55.505 55.505;"
	 xml:space="preserve">
<g>
	<g>
		<path d="M50.336,19.307h-16.75V11.89H21.918v7.417H5.169c-0.875,0-1.584,0.709-1.584,1.583c0,0.874,0.709,1.583,1.584,1.583
			h16.749v7.417h3.905v2.404c0,0.856,0.563,1.575,1.336,1.825c0.047,0.802,0.23,1.336,0.574,1.709
			c0.605,0.656,1.551,0.654,2.765,0.646c0.354,0,0.737-0.003,1.153,0.01c0.787,0.024,1.195,0.162,1.365,0.254
			c-0.375,0.308-1.947,0.822-5.251,0.492c-1.772-0.181-4.224-0.297-5.024,0.781c-0.216,0.291-0.408,0.794-0.098,1.54
			c0.253,0.61,0.765,0.931,1.386,1.104l-4.004,2.119l0.058,0.108l-0.065-0.013v10.57l8.747,2.063l6.721-3.699l-0.017-10.319
			l0.009-0.229l-0.009-0.001v-0.019l-0.024,0.013l-7.14-1.527l-0.977-0.209l-0.81-0.173l-0.98,0.52
			c-0.925-0.043-1.752-0.164-1.97-0.691c-0.158-0.378-0.057-0.516-0.023-0.561c0.168-0.225,0.899-0.711,4.199-0.375
			c3.117,0.313,5.537-0.082,6.173-1.008c0.19-0.279,0.218-0.601,0.073-0.885c-0.332-0.656-1.438-0.827-2.307-0.854
			c-0.431-0.014-0.828-0.014-1.189-0.01c-0.996,0.006-1.719,0.008-2.024-0.326c-0.165-0.178-0.261-0.508-0.3-0.977
			c0.864-0.191,1.512-0.959,1.512-1.881v-2.404h3.905v-7.417h16.75c0.874,0,1.583-0.709,1.583-1.583
			C51.919,20.017,51.21,19.307,50.336,19.307z M28.323,54.876l-7.841-1.806v-9.623l7.841,1.688V54.876z"/>
		<path d="M20.795,16.202h0.332v-3.375h-0.332c-0.933,0-1.688,0.755-1.688,1.688C19.107,15.448,19.862,16.202,20.795,16.202z"/>
		<path d="M34.107,12.827v3.375h0.332c0.934,0,1.688-0.755,1.688-1.688c0-0.933-0.755-1.688-1.688-1.688L34.107,12.827
			L34.107,12.827z"/>
		<path d="M28.603,11.512l0.274-0.003C28.857,9.84,29.24,8.64,30.049,7.84c1.537-1.518,4.521-1.448,7.406-1.375
			c3.007,0.073,6.118,0.148,7.79-1.607c0.938-0.985,1.324-2.411,1.182-4.357l-0.996,0.073c0.12,1.649-0.177,2.825-0.908,3.594
			c-0.896,0.939-2.39,1.232-4.131,1.304c0.391-0.204,0.752-0.454,1.06-0.787c0.931-1.007,1.307-2.54,1.149-4.685l-0.998,0.073
			c0.137,1.854-0.154,3.141-0.887,3.934c-1.104,1.193-3.15,1.205-5.318,1.217c-2.357,0.014-4.795,0.028-6.338,1.598
			c-1.009,1.026-1.484,2.571-1.458,4.722l1-0.013C28.601,11.524,28.603,11.519,28.603,11.512z"/>
	</g>
</g>
<g>
</g>
<g>
</g>
<g>
</g>
<g>
</g>
<g>
</g>
<g>
</g>
<g>
</g>
<g>
</g>
<g>
</g>
<g>
</g>
<g>
</g>
<g>
</g>
<g>
</g>
<g>
</g>
<g>
</g>
</svg>
