<?xml version="1.0" encoding="iso-8859-1"?>
<!-- Generator: Adobe Illustrator 16.0.0, SVG Export Plug-In . SVG Version: 6.00 Build 0)  -->
<!DOCTYPE svg PUBLIC "-//W3C//DTD SVG 1.1//EN" "http://www.w3.org/Graphics/SVG/1.1/DTD/svg11.dtd">
<svg version="1.1" id="Capa_1" xmlns="http://www.w3.org/2000/svg" xmlns:xlink="http://www.w3.org/1999/xlink" x="0px" y="0px"
	 width="46.4px" height="46.4px" viewBox="0 0 46.4 46.4" style="enable-background:new 0 0 46.4 46.4;" xml:space="preserve">
<g>
	<g>
		<path d="M9.063,39.075l6.293-6.292l-0.883-0.532l-6.824,6.825H5.25V36.88l0.542-0.541l1.305,0.5l0.591-0.591l-1.306-0.501
			l0.824-0.822l2.33,0.896l0.592-0.591l-2.331-0.896l0.824-0.822l1.304,0.5l0.592-0.591l-1.306-0.502l0.824-0.823l1.304,0.502
			l0.592-0.592l-1.304-0.5l0.823-0.824l1.157,0.445l-0.126-0.076c-0.599-0.36-1.022-0.922-1.253-1.562l-5.979,5.979V2.075H0v42.25
			h4.15h1.1H46.4v-5.25H9.063z M4.25,3.866H2.973v0.836H4.25v1.164H1.969v0.836H4.25v1.164H2.973v0.836H4.25v1.164H2.973v0.836H4.25
			v1.164H1.969v0.836H4.25v1.164H2.973v0.836H4.25v1.164H2.973v0.836H4.25v1.164H2.973v0.836H4.25v1.164H1.969v0.836H4.25v1.164
			H2.973v0.836H4.25v1.164H2.973v0.836H4.25v1.164H2.973v0.836H4.25v1.164H1.969v0.836H4.25v1.164H2.973v0.836H4.25v1.164H2.973
			v0.836H4.25v1.164H2.973v0.836H4.25v1.164H1.969v0.836H4.25v1.164H2.973v0.836H4.25v0.373h-0.1v0.791H2.972v0.836H4.15v1.164
			H2.972v0.836H4.15v0.623H1V3.075h3.25V3.866z M45.4,43.325h-0.791v-1.277h-0.836v1.277h-1.164v-2.281h-0.836v2.281h-1.164v-1.277
			h-0.836v1.277h-1.164v-1.277h-0.836v1.277h-1.164v-2.281h-0.836v2.281h-1.164v-1.277h-0.836v1.277h-1.164v-1.277h-0.836v1.277
			h-1.164v-1.277h-0.836v1.277h-1.164v-2.281h-0.836v2.281h-1.164v-1.277h-0.836v1.277h-1.164v-1.277h-0.836v1.277h-1.164v-1.277
			h-0.836v1.277h-1.164v-2.281h-0.836v2.281h-1.164v-1.277h-0.836v1.277h-1.164v-1.277h-0.836v1.277h-1.164v-1.277h-0.836v1.277
			h-1.164v-2.281h-0.836v2.281h-1.164v-1.277H9.773v1.277H8.609v-1.277H7.773v1.277H6.609v-1.277H5.773v1.277H5.25v-3.25H45.4
			V43.325z"/>
		<polygon points="32.775,13.949 32.607,14.117 33.53,14.608 34.504,13.635 29.143,11.573 28.688,12.027 31.051,13.286 		"/>
		<path d="M10.069,27.855l10.754,6.485v0.012l0.007-0.006l0.01,0.006v-0.012l10.753-6.485V14.894l-0.054,0.031l0.056-0.036
			l-11.063-5.9L10.024,14.91l0.046,0.027L10.069,27.855L10.069,27.855z M21.196,32.937l-0.018-9.159l9.05,3.924L21.196,32.937z
			 M30.768,26.845l-9.591-4.158l-0.002-1.043l9.593-5.761V26.845z M21.041,10.204l9.199,4.72l-9.199,5.558V10.204z M20.014,32.89
			l-8.6-5.187l8.6-3.955V32.89z M20.041,10.229v10.11l-8.68-5.23L20.041,10.229z M10.895,15.883l9.119,5.5v1.265l-9.119,4.194
			V15.883z"/>
	</g>
</g>
<g>
</g>
<g>
</g>
<g>
</g>
<g>
</g>
<g>
</g>
<g>
</g>
<g>
</g>
<g>
</g>
<g>
</g>
<g>
</g>
<g>
</g>
<g>
</g>
<g>
</g>
<g>
</g>
<g>
</g>
</svg>
