<?xml version="1.0" encoding="iso-8859-1"?>
<!-- Generator: Adobe Illustrator 16.0.0, SVG Export Plug-In . SVG Version: 6.00 Build 0)  -->
<!DOCTYPE svg PUBLIC "-//W3C//DTD SVG 1.1//EN" "http://www.w3.org/Graphics/SVG/1.1/DTD/svg11.dtd">
<svg version="1.1" id="Capa_1" xmlns="http://www.w3.org/2000/svg" xmlns:xlink="http://www.w3.org/1999/xlink" x="0px" y="0px"
	 width="51px" height="51px" viewBox="0 0 51 51" style="enable-background:new 0 0 51 51;" xml:space="preserve">
<g>
	<g>
		<path d="M45.893,2.184L16.8,0.001c-0.189-0.013-0.375,0.051-0.514,0.18c-0.066,0.061-0.117,0.135-0.154,0.214L4.943,4.125
			C4.667,4.218,4.477,4.479,4.477,4.772v38.909c0,0.248,0.135,0.477,0.352,0.596l11.283,6.269c0.037,0.106,0.098,0.204,0.184,0.281
			C16.422,50.938,16.584,51,16.75,51c0.025,0,0.051-0.001,0.076-0.004l29.091-3.272c0.345-0.039,0.605-0.331,0.605-0.678V2.864
			C46.522,2.506,46.248,2.209,45.893,2.184z M15.932,48.887l-10.09-5.605V5.265L15.932,1.9V48.887z M45.158,46.436l-27.728,3.119
			V1.417l27.728,2.08V46.436z"/>
		<path d="M22.028,38.277c0.016,0,0.033,0,0.049-0.002l19.07-1.361c0.664-0.017,1.199-0.561,1.199-1.228V10.231
			c0-0.667-0.535-1.211-1.199-1.227l-19.07-1.362c-0.016-0.001-0.033-0.002-0.049-0.002c-0.678,0-1.227,0.551-1.227,1.227V37.05
			C20.803,37.728,21.352,38.277,22.028,38.277z M22.166,30.718l1.188-0.134v6.233l-1.188,0.085V30.718z M25.21,9.233v1.68
			c0,0.301,0.244,0.545,0.545,0.545l1.838,0.079c-0.049,0.201-0.076,0.41-0.076,0.625c0,0.971,0.514,1.819,1.281,2.296
			c0.451,1.01,1.424,1.727,1.424,1.727s0.973-0.717,1.424-1.727c0.768-0.477,1.279-1.326,1.279-2.296
			c0-0.135-0.012-0.266-0.031-0.396l2.316,0.1c0.301,0,0.545-0.244,0.545-0.545V9.985l5.229,0.374v25.198l-17.085,1.221v-6.237
			l15.322-0.537v5.523h0.545v-6.089l-3.147,0.111c0.827-0.262,1.53-0.646,2.082-1.147c0.403-0.365,0.745-0.815,1.021-1.327
			c-0.123,0.147-0.25,0.287-0.39,0.412c-1.008,0.919-2.615,1.385-4.586,1.385c-1.082,0-1.893-0.197-2.494-0.273v-7.011h1.439v5.753
			c0.113,0.001,0.23,0.001,0.342,0.001h0.033c0.012,0,0.021-0.015,0.033-0.015v0.024c0.258,0.045,0.646,0.045,1.023,0.045
			c2.403,0.015,3.832-1.443,3.832-4.016c0.016-2.24-1.277-3.518-3.595-3.518l-3.108-0.005v-1.416l2.947-0.025
			c0.696,0,1.313,0.055,1.864,0.161c-0.823-0.29-1.795-0.434-2.963-0.434l-3.623,0.031v0.771c0.646,0.461,0.974,1.138,0.974,1.868
			c0,0.046-0.009,0.09-0.013,0.135l2.832,0.004c0.979,0,1.724,0.25,2.211,0.742c0.472,0.474,0.707,1.176,0.699,2.094
			c0,2.138-1.095,3.319-3.082,3.333v-5.823H33.69v0.014h-2.297c-0.17,0.828-0.771,1.499-1.81,1.865v0.031
			c0.195,0.034,0.383,0.088,0.563,0.158c0.121-0.119,0.231-0.243,0.33-0.376v0.526c0.783,0.422,1.33,1.197,1.33,2.211
			c0,1.712-1.431,3.063-3.935,3.063c-1.229,0-2.285-0.341-2.832-0.698l0.396-1.32c-0.299-0.099-0.549-0.212-0.701-0.303
			l-0.752-0.451l-0.834,2.775l0.428,0.279c0.598,0.391,1.754,0.81,3.205,0.81c1.58,0,2.878-0.523,3.693-1.393v1.116l0.596,0.076
			c0.102,0.014,0.211,0.03,0.324,0.048l-8.047,0.282v0.021l-1.188,0.134V9.017L25.21,9.233z"/>
		<path d="M8.28,36.706l4.818,1.739c0.074,0.027,0.152,0.041,0.232,0.041c0.676,0,1.227-0.55,1.227-1.227V9.078
			c0-0.677-0.551-1.228-1.227-1.228c-0.045,0-0.088,0.004-0.133,0.013L8.342,8.82c-0.641,0.041-1.148,0.575-1.148,1.225v25.441
			C7.194,36.116,7.669,36.635,8.28,36.706z M8.559,10.167l4.637-0.914V31.21l-2.592,0.428v4.419l0.547,0.136V32.1l2.045-0.337v5.269
			l-4.541-1.641c-0.031-0.011-0.063-0.021-0.096-0.026V10.167z"/>
		<path d="M29.817,25.651c0-1.197-1.118-1.709-2.282-1.709h-0.888v-1.4h0.854c0.89,0,2.006-0.404,2.006-1.416
			c0-0.685-0.516-1.262-1.62-1.262c-0.822,0-1.646,0.359-2.064,0.64l-0.438-1.384c0.576-0.405,1.695-0.779,2.907-0.779
			c0.254,0,0.49,0.018,0.713,0.05c-0.502-0.201-1.098-0.322-1.802-0.322c-1.227,0-2.523,0.354-3.301,0.903l-0.408,0.287l0.859,2.728
			l0.756-0.507c0.377-0.252,1.066-0.524,1.688-0.524c0.35,0,0.939,0.075,0.939,0.58c0,0.599-0.982,0.733-1.326,0.733h-1.537v2.764
			h1.568c0.268,0,1.602,0.05,1.602,1.045c0.004,0.151-0.028,0.373-0.215,0.562c-0.229,0.233-0.621,0.357-1.137,0.357
			c-0.189,0-0.381-0.021-0.568-0.051c0.457,0.171,1.055,0.323,1.658,0.323C29.246,27.271,29.838,26.445,29.817,25.651z"/>
		<path d="M25.479,26.647l-0.039,0.128c0.211,0.069,0.441,0.132,0.684,0.173C25.852,26.845,25.626,26.735,25.479,26.647z"/>
		<path d="M25.721,43.651v-0.009c0.318-0.151,0.469-0.415,0.461-0.717c-0.012-0.378-0.299-0.685-0.836-0.639
			c-0.314,0.025-0.6,0.157-0.744,0.287l0.125,0.387c0.105-0.09,0.314-0.21,0.527-0.229c0.285-0.023,0.422,0.13,0.428,0.325
			c0.01,0.29-0.275,0.43-0.504,0.449l-0.221,0.019l0.012,0.4l0.229-0.02c0.303-0.025,0.596,0.098,0.605,0.439
			c0.012,0.228-0.133,0.477-0.51,0.508c-0.25,0.021-0.498-0.069-0.6-0.128l-0.1,0.423c0.143,0.092,0.42,0.165,0.736,0.14
			c0.645-0.055,1.002-0.475,0.986-0.963C26.305,43.933,26.039,43.688,25.721,43.651z"/>
		<path d="M28.369,42.298c-0.257-0.21-0.607-0.296-1.114-0.254c-0.293,0.024-0.568,0.07-0.785,0.129l0.092,2.952
			c0.162,0.009,0.379,0.008,0.666-0.018c0.527-0.044,0.951-0.219,1.211-0.513c0.25-0.28,0.4-0.695,0.385-1.229
			C28.809,42.854,28.637,42.512,28.369,42.298z M27.315,44.665c-0.1,0.008-0.205,0.017-0.273,0.009l-0.066-2.146
			c0.068-0.023,0.18-0.047,0.336-0.06c0.617-0.052,0.975,0.296,0.99,0.961C28.328,44.189,27.957,44.614,27.315,44.665z"/>
		<path d="M30.963,41.965c-0.308,0.026-0.531,0.07-0.693,0.116l0.086,2.73l0.451-0.038l-0.033-1.043
			c0.061,0.007,0.137,0.005,0.223-0.002c0.322-0.026,0.604-0.146,0.779-0.362c0.135-0.159,0.203-0.385,0.193-0.646
			c-0.006-0.26-0.109-0.468-0.262-0.592C31.543,41.994,31.297,41.937,30.963,41.965z M30.983,43.334
			c-0.094,0.008-0.168,0.01-0.223-0.002l-0.029-0.938c0.047-0.016,0.138-0.036,0.263-0.047c0.313-0.025,0.512,0.122,0.521,0.43
			C31.524,43.104,31.324,43.306,30.983,43.334z"/>
		<path d="M33.199,42.521c-0.191,0.017-0.398,0.179-0.479,0.47l-0.015,0.001l-0.025-0.382l-0.396,0.034
			c0.018,0.181,0.027,0.373,0.035,0.645l0.043,1.354l0.453-0.039l-0.031-1.035c-0.002-0.057,0.004-0.11,0.01-0.156
			c0.033-0.229,0.179-0.398,0.396-0.417c0.055-0.004,0.096,0,0.133,0.005l-0.016-0.478C33.27,42.519,33.244,42.517,33.199,42.521z"
			/>
		<polygon points="33.617,42.53 33.678,44.531 34.137,44.492 34.074,42.492 		"/>
		<path d="M33.834,42.224c0.158-0.013,0.254-0.141,0.25-0.292c-0.01-0.156-0.107-0.267-0.265-0.253
			c-0.151,0.013-0.252,0.141-0.248,0.296C33.578,42.126,33.682,42.235,33.834,42.224z"/>
		<path d="M35.553,42.32c-0.299,0.025-0.488,0.231-0.562,0.395l-0.011,0.001l-0.03-0.298l-0.4,0.034
			c0.016,0.172,0.025,0.364,0.033,0.595l0.045,1.405l0.457-0.039l-0.035-1.174c-0.002-0.059,0-0.119,0.012-0.167
			c0.045-0.156,0.166-0.311,0.346-0.326c0.25-0.021,0.352,0.188,0.361,0.476l0.035,1.13l0.455-0.039l-0.037-1.187
			C36.201,42.493,35.869,42.294,35.553,42.32z"/>
		<path d="M37.469,43.839c-0.176,0.015-0.238-0.108-0.246-0.35l-0.027-0.884l0.434-0.037l-0.012-0.378l-0.434,0.038l-0.018-0.57
			l-0.439,0.156l0.014,0.452l-0.258,0.022l0.01,0.378l0.26-0.022l0.029,0.94c0.008,0.263,0.059,0.439,0.158,0.547
			c0.088,0.095,0.23,0.145,0.396,0.131c0.145-0.012,0.262-0.043,0.328-0.078L37.644,43.8C37.604,43.814,37.545,43.833,37.469,43.839
			z"/>
		<path d="M38.703,42.054c-0.576,0.048-0.863,0.596-0.847,1.15c0.021,0.611,0.375,0.98,0.959,0.932
			c0.261-0.021,0.474-0.094,0.625-0.177l-0.075-0.343c-0.138,0.068-0.287,0.114-0.498,0.132c-0.289,0.024-0.55-0.11-0.57-0.472
			l1.205-0.102c0.008-0.046,0.012-0.121,0.01-0.215C39.498,42.521,39.289,42.005,38.703,42.054z M38.285,42.926
			c0.012-0.208,0.123-0.501,0.403-0.524c0.304-0.025,0.388,0.272,0.39,0.457L38.285,42.926z"/>
		<path d="M40.75,41.88c-0.191,0.017-0.398,0.179-0.479,0.469l-0.015,0.001l-0.026-0.38l-0.396,0.034
			c0.018,0.18,0.026,0.373,0.035,0.644l0.043,1.356l0.455-0.039l-0.033-1.035c-0.002-0.057,0.004-0.111,0.01-0.158
			c0.033-0.229,0.178-0.396,0.395-0.416c0.057-0.004,0.098,0,0.135,0.005l-0.016-0.477C40.819,41.878,40.795,41.877,40.75,41.88z"/>
	</g>
</g>
<g>
</g>
<g>
</g>
<g>
</g>
<g>
</g>
<g>
</g>
<g>
</g>
<g>
</g>
<g>
</g>
<g>
</g>
<g>
</g>
<g>
</g>
<g>
</g>
<g>
</g>
<g>
</g>
<g>
</g>
</svg>
