<?xml version="1.0" encoding="iso-8859-1"?>
<!-- Generator: Adobe Illustrator 16.0.0, SVG Export Plug-In . SVG Version: 6.00 Build 0)  -->
<!DOCTYPE svg PUBLIC "-//W3C//DTD SVG 1.1//EN" "http://www.w3.org/Graphics/SVG/1.1/DTD/svg11.dtd">
<svg version="1.1" id="Capa_1" xmlns="http://www.w3.org/2000/svg" xmlns:xlink="http://www.w3.org/1999/xlink" x="0px" y="0px"
	 width="56.575px" height="56.575px" viewBox="0 0 56.575 56.575" style="enable-background:new 0 0 56.575 56.575;"
	 xml:space="preserve">
<g>
	<g>
		<path d="M39.768,47.095v-5.033l-4.201-0.811l-3.043,1.611l0.027,0.051l-0.031-0.006v4.953l4.1,0.967L39.768,47.095z
			 M36.413,48.534l-3.675-0.847v-4.511l3.675,0.791V48.534z M32.814,42.971l2.787-1.474l3.799,0.762l-2.793,1.529L32.814,42.971z"/>
		<path d="M22.653,53.884c0,0,5.165,1.056,13.95,1.056c8.785,0,14.068-1.056,14.068-1.056v-0.355H22.653V53.884z"/>
		<rect x="26.517" y="39.923" width="0.83" height="0.131"/>
		<rect x="26.517" y="40.225" width="3.051" height="0.13"/>
		<rect x="26.517" y="40.614" width="3.051" height="0.131"/>
		<rect x="26.517" y="41.46" width="3.051" height="0.131"/>
		<rect x="26.517" y="41.77" width="2.335" height="0.13"/>
		<path d="M47.157,47.423h-4.563v3.882h4.563V47.423z M46.768,50.913h-3.783v-3.1h3.783V50.913z"/>
		<rect x="45.693" y="48.107" width="0.83" height="0.171"/>
		<rect x="43.227" y="48.107" width="0.416" height="0.83"/>
		<rect x="45.189" y="49.059" width="0.918" height="0.306"/>
		<rect x="45.189" y="49.511" width="0.918" height="0.305"/>
		<rect x="45.189" y="49.954" width="0.918" height="0.305"/>
		<circle cx="44.932" cy="42.751" r="0.424"/>
		<path d="M44.031,41.469c0.051,0.051,0.133,0.051,0.184,0c0.025-0.024,0.038-0.058,0.038-0.091s-0.013-0.066-0.038-0.092
			l-0.13-0.129h0.718v1.012h0.258v-1.012h0.717l-0.129,0.129c-0.051,0.051-0.051,0.133,0,0.184c0.051,0.05,0.133,0.05,0.182,0
			l0.352-0.352c0.024-0.024,0.039-0.058,0.039-0.093c0-0.034-0.014-0.067-0.039-0.091l-0.352-0.352
			c-0.049-0.051-0.131-0.051-0.182,0c-0.025,0.025-0.039,0.059-0.039,0.092s0.014,0.066,0.039,0.091l0.129,0.13h-0.717v-0.591
			l0.129,0.13c0.052,0.051,0.134,0.051,0.185,0c0.05-0.051,0.05-0.133,0-0.184L45.023,39.9c-0.024-0.024-0.057-0.038-0.092-0.038
			c-0.033,0-0.066,0.014-0.092,0.038l-0.352,0.353c-0.049,0.05-0.049,0.132,0,0.183c0.025,0.024,0.059,0.038,0.092,0.038
			s0.066-0.014,0.091-0.038l0.13-0.13v0.59h-0.717l0.13-0.129c0.05-0.051,0.05-0.132,0-0.184c-0.051-0.049-0.133-0.049-0.184,0
			l-0.351,0.353c-0.024,0.022-0.039,0.056-0.039,0.091c0,0.034,0.015,0.067,0.039,0.092L44.031,41.469z"/>
		<path d="M10.959,23.566l0.028,0.054l-0.033-0.006v5.283l4.372,1.032l3.36-1.849v-5.368l-4.482-0.863L10.959,23.566z
			 M15.106,29.614l-3.918-0.902v-4.81l3.918,0.844V29.614z M18.292,22.922l-2.978,1.631l-4.044-0.871l2.971-1.571L18.292,22.922z"/>
		<path d="M55.635,36.321c-1.962-2.964-6.625-4.4-10.377-4.513c-0.064,0.003-0.125,0.021-0.186,0.047
			c-0.061-0.028-0.126-0.047-0.198-0.047c-0.806,0-1.715,0.017-2.69,0.034c-4.392,0.08-10.408,0.189-13.81-1.196
			c-0.012-0.004-0.024-0.003-0.037-0.006V5.628h-13.05c0.805-0.731,2.303-0.702,3.758-0.665c1.548,0.038,3.15,0.076,4.011-0.827
			c0.483-0.508,0.682-1.242,0.608-2.244L23.15,1.931c0.063,0.85-0.09,1.455-0.467,1.851c-0.46,0.484-1.229,0.635-2.126,0.671
			c0.201-0.105,0.387-0.234,0.545-0.405c0.479-0.519,0.673-1.308,0.592-2.412L21.18,1.673c0.071,0.955-0.079,1.617-0.457,2.026
			c-0.568,0.614-1.622,0.62-2.739,0.625c-1.213,0.007-2.468,0.015-3.261,0.823c-0.138,0.139-0.25,0.303-0.35,0.481H0v28.339h28.338
			V31.63c2.689,0.996,6.525,1.199,10.213,1.199c1.252,0,2.486-0.022,3.649-0.043c0.969-0.019,1.873-0.035,2.673-0.035
			c0.066,0,0.129-0.014,0.188-0.039c0.052,0.023,0.107,0.037,0.166,0.039c3.396,0.101,7.854,1.422,9.621,4.091
			c0.92,1.391,1.025,3.021,0.307,4.864c-0.184,0.549-1.037,1.193-1.862,1.815c-1,0.754-2.132,1.608-2.653,2.653
			c-0.654,1.162-0.119,2.305,0.31,3.222c0.269,0.575,0.522,1.117,0.354,1.401c-0.125,0.215-0.656,0.587-2.635,0.76V38.76
			c0-0.324-0.262-0.587-0.585-0.587H25.24c-0.323,0-0.585,0.263-0.585,0.587v13.472c0,0.324,0.262,0.586,0.585,0.586h22.845
			c0.22,0,0.405-0.127,0.505-0.307c2.047-0.159,3.112-0.531,3.526-1.234c0.418-0.711,0.046-1.508-0.313-2.277
			c-0.39-0.834-0.758-1.623-0.33-2.383c0.434-0.867,1.428-1.617,2.389-2.343c0.982-0.741,1.912-1.442,2.18-2.248
			C56.871,39.901,56.732,37.981,55.635,36.321z M3.551,11.277c0-1.422,1.153-2.574,2.575-2.574h7.847
			c0,0.393-0.001,0.841-0.001,1.308h-2.461v3.818h-0.408v-1.534h-0.171c-0.481,0-0.869,0.389-0.869,0.869
			c0,0.268,0.124,0.506,0.316,0.665H3.551V11.277z M24.788,28.321c0,1.422-1.152,2.572-2.574,2.572H6.126
			c-1.422,0-2.575-1.15-2.575-2.572V15.458h7.959v3.819h2.01v1.237c0,0.491,0.357,0.896,0.825,0.977l0.499-0.044
			c0.385-0.137,0.662-0.5,0.662-0.933v-1.237h2.011v-3.819h7.271V28.321z M24.788,13.829h-6.279
			c0.192-0.159,0.316-0.397,0.316-0.665c0-0.48-0.389-0.869-0.869-0.869h-0.171v1.534h-0.269v-3.818h-2.887c0-0.468,0-0.916,0-1.308
			h7.583c1.421,0,2.574,1.152,2.574,2.574v2.552H24.788z M47.498,51.646H25.826V39.345h21.672V51.646z"/>
		<path d="M28.359,48.118v0.392l0.846-0.007c0.63,0,0.98,0.349,0.979,0.957c0,0.701-0.39,1.06-1.043,1.056
			c-0.104,0-0.208,0-0.278-0.013v-1.53H28.36v1.907c0.163,0.021,0.384,0.037,0.678,0.037c0.536,0,0.974-0.127,1.247-0.377
			c0.262-0.236,0.43-0.604,0.43-1.096c0-0.47-0.164-0.797-0.43-1.014c-0.253-0.212-0.609-0.318-1.124-0.318L28.359,48.118z"/>
		<path d="M27.143,50.518c-0.262,0-0.52-0.104-0.626-0.169l-0.119,0.395c0.148,0.096,0.436,0.189,0.77,0.189
			c0.681,0,1.07-0.368,1.07-0.833c0-0.373-0.271-0.626-0.605-0.687v-0.008c0.338-0.119,0.507-0.354,0.507-0.643
			c0-0.359-0.292-0.674-0.858-0.674c-0.33,0-0.634,0.103-0.791,0.212l0.119,0.377c0.114-0.077,0.338-0.175,0.562-0.175
			c0.3,0,0.44,0.158,0.44,0.344c0,0.275-0.305,0.385-0.546,0.385h-0.232v0.381h0.241c0.317,0,0.622,0.139,0.622,0.465
			C27.702,50.294,27.54,50.518,27.143,50.518z"/>
	</g>
</g>
<g>
</g>
<g>
</g>
<g>
</g>
<g>
</g>
<g>
</g>
<g>
</g>
<g>
</g>
<g>
</g>
<g>
</g>
<g>
</g>
<g>
</g>
<g>
</g>
<g>
</g>
<g>
</g>
<g>
</g>
</svg>
