<?xml version="1.0" encoding="iso-8859-1"?>
<!-- Generator: Adobe Illustrator 16.0.0, SVG Export Plug-In . SVG Version: 6.00 Build 0)  -->
<!DOCTYPE svg PUBLIC "-//W3C//DTD SVG 1.1//EN" "http://www.w3.org/Graphics/SVG/1.1/DTD/svg11.dtd">
<svg version="1.1" id="Capa_1" xmlns="http://www.w3.org/2000/svg" xmlns:xlink="http://www.w3.org/1999/xlink" x="0px" y="0px"
	 width="50.933px" height="50.933px" viewBox="0 0 50.933 50.933" style="enable-background:new 0 0 50.933 50.933;"
	 xml:space="preserve">
<g>
	<g>
		<path d="M45.831,2.18L16.778,0.001c-0.189-0.013-0.374,0.051-0.513,0.18c-0.066,0.061-0.116,0.134-0.155,0.214L4.937,4.12
			C4.659,4.212,4.47,4.473,4.47,4.766v38.859c0,0.247,0.135,0.474,0.352,0.595l11.269,6.259c0.036,0.107,0.097,0.204,0.183,0.281
			c0.127,0.112,0.289,0.173,0.454,0.173c0.026,0,0.051-0.001,0.077-0.005l29.054-3.268c0.342-0.04,0.604-0.331,0.604-0.677V2.859
			C46.462,2.502,46.187,2.208,45.831,2.18z M15.909,48.821L5.833,43.223V5.257l10.076-3.359V48.821z M45.098,46.376L17.409,49.49
			V1.415l27.689,2.077V46.376z"/>
		<path d="M21.999,38.228c0.016,0,0.034,0,0.049-0.002l19.046-1.36c0.663-0.016,1.199-0.559,1.199-1.225V10.218
			c0-0.666-0.536-1.21-1.199-1.225l-19.046-1.36c-0.015-0.001-0.033-0.002-0.049-0.002c-0.677,0-1.225,0.55-1.225,1.225v28.146
			C20.775,37.678,21.322,38.228,21.999,38.228z M30.438,15.951c0.022-0.018,0.043-0.038,0.064-0.058
			c0.007-0.005,0.012-0.01,0.02-0.017c0.019-0.019,0.039-0.035,0.06-0.055c-0.001,0-0.003,0-0.003,0
			c0.32-0.305,0.762-0.791,1.025-1.382c0.768-0.477,1.278-1.323,1.278-2.293c0-0.134-0.013-0.266-0.03-0.395l2.312,0.1
			c0.299,0,0.542-0.244,0.542-0.545V9.972l5.223,0.373v25.167l-17.063,1.219v-6.229l15.304-0.536v5.517h0.544v-6.083l-6.412,0.226
			V19.548l-0.093,0.053l-2.985-1.198c0.134-0.038,0.278-0.07,0.404-0.098c0.496-0.111,1.008-0.226,1.18-0.609
			c0.095-0.207,0.067-0.447-0.079-0.713c-0.297-0.543-0.726-0.65-1.041-0.729c-0.173-0.043-0.3-0.08-0.382-0.189
			C30.345,16.033,30.388,15.995,30.438,15.951z M29.595,19.622v0.567l-3.068,1.099V20.72L29.595,19.622z M26.526,20.38v-0.487
			l3.068-1.186v0.573L26.526,20.38z M29.595,20.529v0.567l-3.068,1.101v-0.568L29.595,20.529z M29.595,21.436v0.567l-3.068,1.1
			v-0.566L29.595,21.436z M29.595,22.345v0.567l-3.068,1.099v-0.567L29.595,22.345z M29.595,23.252v0.567l-3.068,1.1v-0.567
			L29.595,23.252z M29.595,24.16v0.567l-3.068,1.1V25.26L29.595,24.16z M29.595,25.068v0.567l-3.068,1.101V26.17L29.595,25.068z
			 M29.595,25.977v0.567l-3.068,1.1v-0.568L29.595,25.977z M29.595,26.885v0.566l-3.068,1.101v-0.567L29.595,26.885z M29.595,27.792
			v1.963l-3.068,0.106v-0.97L29.595,27.792z M32.983,20.715v0.567l-3.066-1.099v-0.568L32.983,20.715z M29.916,19.275v-0.568
			l3.065,1.186v0.482L29.916,19.275z M32.983,21.624v0.568l-3.066-1.1v-0.567L32.983,21.624z M32.983,22.531v0.567l-3.066-1.1
			v-0.567L32.983,22.531z M32.983,23.44v0.567l-3.066-1.099V22.34L32.983,23.44z M32.983,24.347v0.567l-3.066-1.1v-0.568
			L32.983,24.347z M32.983,25.255v0.566l-3.066-1.099v-0.567L32.983,25.255z M32.983,26.164v0.567l-3.066-1.101v-0.567
			L32.983,26.164z M32.983,27.07v0.568l-3.066-1.1v-0.567L32.983,27.07z M32.983,27.979v0.567l-3.066-1.101V26.88L32.983,27.979z
			 M32.983,28.887v0.749l-3.066,0.107v-1.957L32.983,28.887z M22.136,9.004l3.041,0.217v1.678c0,0.301,0.244,0.545,0.545,0.545
			l1.835,0.079c-0.049,0.201-0.077,0.409-0.077,0.624c0,0.97,0.514,1.816,1.281,2.293c0.219,0.491,0.561,0.91,0.854,1.213
			c0.006,0.229,0.094,0.454,0.094,0.454s0.354,0.562,0.847,0.686c0.272,0.068,0.509,0.126,0.688,0.457
			c0.062,0.116,0.072,0.188,0.061,0.217c-0.061,0.13-0.503,0.229-0.796,0.294c-0.507,0.114-1.03,0.23-1.217,0.625l0.016,0.007
			L26.296,19.6l-0.091-0.051v10.325l-2.883,0.102v0.019l-1.187,0.136L22.136,9.004L22.136,9.004z M22.136,30.677l1.187-0.133v6.226
			l-1.187,0.085V30.677z"/>
		<path d="M8.269,36.657l4.812,1.737c0.075,0.028,0.154,0.041,0.233,0.041c0.675,0,1.225-0.549,1.225-1.226V9.065
			c0-0.676-0.55-1.226-1.225-1.226c-0.044,0-0.088,0.004-0.132,0.013L8.331,8.809c-0.64,0.041-1.146,0.574-1.146,1.222v25.408
			C7.185,36.068,7.659,36.587,8.269,36.657z M8.547,10.154l4.63-0.914v21.929l-2.588,0.427v4.415l0.545,0.136v-4.088l2.043-0.337
			v5.261l-4.535-1.637c-0.032-0.011-0.063-0.021-0.095-0.027V10.154z"/>
		<path d="M25.686,43.594v-0.007c0.32-0.152,0.468-0.416,0.461-0.717c-0.012-0.378-0.299-0.685-0.835-0.64
			c-0.313,0.028-0.6,0.159-0.744,0.287l0.125,0.386c0.106-0.09,0.314-0.21,0.527-0.228c0.284-0.023,0.421,0.131,0.427,0.325
			c0.01,0.289-0.275,0.43-0.504,0.448l-0.22,0.019l0.012,0.399l0.229-0.02c0.303-0.025,0.595,0.097,0.604,0.439
			c0.012,0.228-0.133,0.475-0.508,0.509c-0.251,0.019-0.497-0.07-0.601-0.129l-0.099,0.424c0.142,0.09,0.419,0.164,0.735,0.138
			c0.645-0.054,1-0.474,0.984-0.961C26.27,43.875,26.006,43.632,25.686,43.594z"/>
		<path d="M27.22,41.988c-0.293,0.024-0.568,0.069-0.784,0.128l0.09,2.949c0.162,0.008,0.379,0.008,0.666-0.017
			c0.525-0.045,0.949-0.22,1.211-0.513c0.248-0.279,0.398-0.693,0.383-1.228c-0.016-0.511-0.188-0.853-0.453-1.067
			C28.075,42.032,27.725,41.946,27.22,41.988z M27.278,44.606c-0.099,0.008-0.205,0.017-0.271,0.009l-0.066-2.143
			c0.068-0.024,0.18-0.047,0.334-0.062c0.617-0.052,0.976,0.298,0.99,0.959C28.29,44.133,27.92,44.556,27.278,44.606z"/>
		<path d="M30.922,41.909c-0.308,0.026-0.531,0.069-0.692,0.115l0.086,2.729l0.45-0.038l-0.032-1.042
			c0.061,0.008,0.137,0.005,0.223-0.001c0.32-0.028,0.603-0.147,0.777-0.363c0.133-0.161,0.203-0.384,0.193-0.646
			c-0.006-0.26-0.109-0.468-0.263-0.591C31.5,41.939,31.256,41.882,30.922,41.909z M30.944,43.278
			c-0.095,0.007-0.168,0.009-0.225-0.002L30.69,42.34c0.049-0.016,0.139-0.035,0.264-0.047c0.313-0.024,0.511,0.122,0.521,0.43
			C31.483,43.048,31.282,43.249,30.944,43.278z"/>
		<path d="M33.153,42.466c-0.189,0.016-0.396,0.177-0.478,0.468l-0.015,0.001l-0.026-0.379l-0.396,0.032
			c0.018,0.18,0.026,0.373,0.035,0.644l0.041,1.354l0.455-0.039l-0.031-1.034c-0.002-0.059,0.004-0.112,0.01-0.158
			c0.033-0.229,0.178-0.396,0.396-0.415c0.055-0.005,0.096,0,0.131,0.006l-0.015-0.476C33.225,42.464,33.2,42.461,33.153,42.466z"/>
		<polygon points="33.571,42.475 33.633,44.473 34.091,44.434 34.028,42.436 		"/>
		<path d="M33.789,42.169c0.157-0.015,0.254-0.142,0.249-0.292c-0.01-0.156-0.106-0.266-0.264-0.253
			c-0.151,0.012-0.25,0.141-0.246,0.296C33.532,42.07,33.636,42.181,33.789,42.169z"/>
		<path d="M35.505,42.266c-0.299,0.025-0.487,0.229-0.562,0.393l-0.009,0.001l-0.032-0.299l-0.398,0.034
			c0.015,0.172,0.025,0.364,0.031,0.594l0.045,1.402l0.457-0.04l-0.035-1.172c-0.002-0.059,0-0.119,0.013-0.166
			c0.044-0.156,0.166-0.311,0.347-0.326c0.248-0.021,0.35,0.189,0.358,0.475l0.036,1.13l0.455-0.039l-0.038-1.186
			C36.153,42.437,35.821,42.238,35.505,42.266z"/>
		<path d="M37.418,43.781c-0.175,0.016-0.236-0.106-0.244-0.35l-0.028-0.881l0.434-0.037l-0.012-0.379l-0.433,0.038l-0.019-0.57
			l-0.438,0.156l0.015,0.451l-0.259,0.022l0.011,0.376l0.26-0.021l0.029,0.938c0.008,0.263,0.059,0.44,0.156,0.548
			c0.088,0.095,0.23,0.145,0.396,0.13c0.143-0.013,0.262-0.043,0.326-0.077l-0.019-0.385C37.556,43.759,37.495,43.775,37.418,43.781
			z"/>
		<path d="M38.651,41.999c-0.574,0.048-0.861,0.596-0.845,1.147c0.021,0.612,0.375,0.981,0.959,0.931
			c0.259-0.021,0.472-0.094,0.623-0.175l-0.075-0.344c-0.137,0.07-0.287,0.115-0.498,0.133c-0.289,0.025-0.55-0.108-0.57-0.471
			l1.205-0.102c0.008-0.047,0.012-0.12,0.009-0.214C39.444,42.467,39.237,41.949,38.651,41.999z M38.233,42.869
			c0.012-0.208,0.125-0.501,0.404-0.523c0.303-0.025,0.387,0.271,0.389,0.457L38.233,42.869z"/>
		<path d="M40.694,41.824c-0.19,0.017-0.396,0.18-0.478,0.469l-0.015,0.002l-0.025-0.38l-0.396,0.032
			c0.018,0.18,0.026,0.373,0.035,0.645l0.041,1.354l0.457-0.038l-0.033-1.033c-0.002-0.059,0.004-0.112,0.01-0.158
			c0.033-0.229,0.177-0.396,0.394-0.416c0.058-0.004,0.099,0,0.136,0.006l-0.017-0.477C40.766,41.822,40.741,41.821,40.694,41.824z"
			/>
	</g>
</g>
<g>
</g>
<g>
</g>
<g>
</g>
<g>
</g>
<g>
</g>
<g>
</g>
<g>
</g>
<g>
</g>
<g>
</g>
<g>
</g>
<g>
</g>
<g>
</g>
<g>
</g>
<g>
</g>
<g>
</g>
</svg>
