<?xml version="1.0" encoding="iso-8859-1"?>
<!-- Generator: Adobe Illustrator 16.0.0, SVG Export Plug-In . SVG Version: 6.00 Build 0)  -->
<!DOCTYPE svg PUBLIC "-//W3C//DTD SVG 1.1//EN" "http://www.w3.org/Graphics/SVG/1.1/DTD/svg11.dtd">
<svg version="1.1" id="Capa_1" xmlns="http://www.w3.org/2000/svg" xmlns:xlink="http://www.w3.org/1999/xlink" x="0px" y="0px"
	 width="53.416px" height="53.416px" viewBox="0 0 53.416 53.416" style="enable-background:new 0 0 53.416 53.416;"
	 xml:space="preserve">
<g>
	<g>
		<path d="M20.981,14.41v-3.853c-1.064,0-1.926,0.863-1.926,1.926C19.056,13.547,19.917,14.41,20.981,14.41z"/>
		<path d="M34.36,12.482c0-1.063-0.861-1.926-1.926-1.926v3.853C33.499,14.41,34.36,13.547,34.36,12.482z"/>
		<path d="M49.333,0H4.083c-1.379,0-2.5,1.121-2.5,2.5v48.416c0,1.379,1.121,2.5,2.5,2.5h45.25c1.379,0,2.5-1.121,2.5-2.5V2.5
			C51.833,1.121,50.712,0,49.333,0z M4.583,10.185h17.096v11.223h3.404v2.038c0,0.293,0.083,0.564,0.217,0.802
			c-0.039,0.269-0.067,0.548-0.067,0.843c0,1.29,0.903,2.38,1.304,2.8l-2.069,3.213h-7.601v8.498h8.498v-2.084h1.876
			c0.467,1.485,1.607,2.615,3.039,3.086H4.583V10.185z M29.034,33.449l0.432-0.338c0.669-0.524,1.471-0.803,2.316-0.803
			c2.076,0,3.767,1.689,3.767,3.768s-1.688,3.767-3.767,3.767c-1.772,0-3.282-1.207-3.672-2.936l-0.088-0.39h-3.659V38.6h-6.498
			v-6.498h7.146l1.578-2.447L29.034,33.449z M19.056,48.941c0,0.552-0.448,1-1,1h-8.96c-0.553,0-1-0.448-1-1v-4c0-0.553,0.447-1,1-1
			h8.96c0.552,0,1,0.447,1,1V48.941z M41.208,43.083h-3.25v-1h3.25V43.083z M45.958,43.083h-3.25v-1h3.25V43.083z M48.833,40.604
			H33.201c1.933-0.608,3.348-2.396,3.348-4.527c0-2.628-2.138-4.768-4.767-4.768c-0.889,0-1.738,0.241-2.485,0.702l-2.545-3.95
			c0.127-0.117,1.472-1.396,1.472-2.971c0-0.296-0.027-0.576-0.067-0.846c0.134-0.238,0.216-0.508,0.216-0.8v-2.038h3.406V10.185
			h17.055V40.604z M48.833,8.65H31.778V5.825h-10.1V8.65H4.583V3h44.25V8.65z"/>
	</g>
</g>
<g>
</g>
<g>
</g>
<g>
</g>
<g>
</g>
<g>
</g>
<g>
</g>
<g>
</g>
<g>
</g>
<g>
</g>
<g>
</g>
<g>
</g>
<g>
</g>
<g>
</g>
<g>
</g>
<g>
</g>
</svg>
