<?xml version="1.0" encoding="iso-8859-1"?>
<!-- Generator: Adobe Illustrator 16.0.0, SVG Export Plug-In . SVG Version: 6.00 Build 0)  -->
<!DOCTYPE svg PUBLIC "-//W3C//DTD SVG 1.1//EN" "http://www.w3.org/Graphics/SVG/1.1/DTD/svg11.dtd">
<svg version="1.1" id="Capa_1" xmlns="http://www.w3.org/2000/svg" xmlns:xlink="http://www.w3.org/1999/xlink" x="0px" y="0px"
	 width="57.863px" height="57.863px" viewBox="0 0 57.863 57.863" style="enable-background:new 0 0 57.863 57.863;"
	 xml:space="preserve">
<g>
	<g>
		<path d="M49.198,15.529c-0.158-0.285-0.416-0.491-0.729-0.582l-13.245-3.796V3.394c0-0.289-0.16-0.553-0.414-0.688
			c-0.092-0.048-0.189-0.07-0.29-0.08c-0.002,0-0.003-0.001-0.005-0.001l-1.565-0.291c0.688-0.282,1.611-0.278,2.409,0.052
			c0.458,0.178,0.908,0.513,1.386,0.868c0.647,0.483,1.318,0.981,2.181,1.227c2.67,0.648,5.215-0.963,7.074-2.14
			c0.242-0.153,0.312-0.473,0.16-0.715c-0.152-0.241-0.474-0.313-0.715-0.161c-1.702,1.079-4.033,2.553-6.256,2.014
			c-0.062-0.018-0.122-0.048-0.185-0.07c2.617,0.414,5.016-1.242,6.778-2.464c0.235-0.164,0.294-0.486,0.131-0.721
			c-0.163-0.236-0.486-0.295-0.722-0.131c-1.654,1.149-3.921,2.72-6.167,2.274c-0.664-0.16-1.275-0.576-1.867-0.979
			C36.63,1.03,36.087,0.659,35.5,0.459c-1.376-0.502-2.99-0.275-3.928,0.552c-0.302,0.266-0.525,0.584-0.676,0.944l-2.491-0.462
			c-0.118-0.022-0.242-0.001-0.348,0.058l-5.205,2.922c-0.122,0.068-0.202,0.182-0.239,0.31c-0.059,0.11-0.091,0.233-0.091,0.36
			v2.185L10.074,3.759C9.96,3.726,9.847,3.71,9.732,3.71c-0.539,0-1.019,0.362-1.168,0.879C8.474,4.902,8.51,5.23,8.667,5.515
			C8.825,5.8,9.083,6.006,9.396,6.096L22.522,9.86v7.856c0,0.354,0.239,0.664,0.582,0.753l6.049,1.576V9.227h0.563v10.854
			c0.014-0.003,0.029-0.002,0.043-0.007c0.027-0.009,0.052-0.025,0.078-0.037c0.042-0.019,0.084-0.033,0.123-0.06l4.925-3.37
			c0.212-0.145,0.339-0.385,0.339-0.642v-2.284l12.566,3.604c0.646,0.186,1.328-0.204,1.509-0.831
			C49.389,16.142,49.353,15.814,49.198,15.529z M29.169,5.578l-4.422-0.861L24.602,4.68l3.8-2.134l2.288,0.401
			c-0.012,0.32,0.016,0.656,0.097,1.008c0.009,0.033,0.024,0.062,0.039,0.091c0.003,0.196,0.02,0.397,0.055,0.604L29.169,5.578z
			 M31.861,4.119c-0.02-0.357,0.027-0.672,0.15-0.94l1.195,0.21L31.861,4.119z"/>
		<path d="M30.474,54.539L29.846,54.9l0.001-1.769l-1.772,1.044v1.744l-2.413,1.39v-2.112l4.56-2.758
			c-0.007-0.069-0.007-0.141,0-0.211v-0.236l-4.56,2.757v-1.47l4.56-2.758v-0.212c-0.008-0.07-0.008-0.145,0-0.216v-0.021
			l-4.56,2.757v-1.469l4.56-2.758v-0.429c0-0.006,0-0.013,0-0.02l-4.56,2.757v-1.471l4.56-2.757v-0.447l-4.56,2.757v-1.47
			l4.56-2.757c0-0.004,0-0.008,0-0.011V44.32l-4.56,2.756v-1.471l4.56-2.757v-0.011c-0.008-0.072-0.008-0.146,0-0.216v-0.221
			l-4.56,2.758v-1.47l4.696-2.84c0.088-0.151,0.215-0.28,0.373-0.371c0.074-0.044,0.155-0.077,0.237-0.099l0.896-0.441l0.572-0.348
			v0.065l0.385-0.189v-0.108l0.017-0.009l-0.017-0.026v-1.882l0.017-0.01l-0.017-0.026v-1.882l0.017-0.01l-0.017-0.025v-1.883
			l0.017-0.009l-0.017-0.026v-2.44l-0.038,0.021l-7.007-3.373c1.029-0.113,2.501-0.085,3.191-0.073
			c0.246,0.005,0.456,0.009,0.61,0.009c0.085,0,0.227,0.005,0.408,0.011c2.37,0.08,4.039-0.002,4.48-0.668
			c0.144-0.215,0.156-0.475,0.037-0.732c-0.448-0.964-1.777-0.902-3.063-0.842c-0.498,0.022-1.002,0.044-1.444,0.012
			c0.71-0.301,1.209-1.005,1.209-1.826v-3.824c-0.396,0.394-1.042,0.843-1.947,0.853c-0.903,0.01-1.385-0.183-2.015-0.586v3.557
			c0,0.687,0.35,1.292,0.88,1.647c0.061,0.105,0.128,0.204,0.21,0.292c0.679,0.72,1.931,0.661,3.143,0.604
			c1.046-0.048,2.125-0.099,2.386,0.441c-0.082,0.139-0.623,0.452-3.851,0.343c-0.191-0.006-0.342-0.012-0.432-0.012
			c-0.151,0-0.356-0.004-0.597-0.008c-2.004-0.038-4.015-0.032-4.666,0.485c-0.204,0.146-0.336,0.321-0.401,0.504
			c-0.014-0.005-0.025-0.01-0.039-0.015l-0.401,0.101c0.215,0.046,0.423,0.11,0.635,0.166l-5.956,2.933l-0.035-0.021v2.452
			l-0.016,0.025l0.016,0.011V35.5l-0.016,0.025l0.016,0.01v1.882l-0.016,0.025l0.016,0.01v1.882l-0.016,0.025l0.016,0.011v1.882
			l-0.016,0.026l0.016,0.01v1.882l-0.016,0.026l0.016,0.009v1.882l-0.016,0.026l0.016,0.009v1.882l-0.016,0.026l0.016,0.009v1.882
			l-0.015,0.031l0.016,0.009v1.882l-0.016,0.026l0.016,0.009v2.75l7.16,4.125l0.192,0.11l0.191-0.11l4.159-2.396h0.025v-0.015
			l0.95-0.548l-0.068-0.04C30.629,54.7,30.546,54.622,30.474,54.539z M32.437,39.142l-6.775,4.099V41.77l6.775-4.098V39.142z
			 M32.437,37.224l-6.775,4.099v-1.471l6.775-4.098V37.224z M32.437,35.307l-6.775,4.099v-1.471l6.775-4.098V35.307z M32.437,33.389
			l-6.775,4.099v-1.792l6.775-3.903V33.389z M25.278,57.31l-6.776-3.902v-2.297l6.776,4.099V57.31z M25.278,54.76l-6.776-4.098
			v-1.469l6.776,4.097V54.76z M25.278,52.842l-6.776-4.098v-1.471l6.776,4.1V52.842z M25.278,50.923l-6.776-4.097v-1.471
			l6.776,4.099V50.923z M25.278,49.006l-6.776-4.098v-1.471l6.776,4.1V49.006z M25.278,47.088l-6.776-4.098v-1.47l6.776,4.099
			V47.088z M25.278,45.17l-6.776-4.099v-1.47l6.776,4.099V45.17z M25.278,43.251l-6.776-4.098v-1.47l6.776,4.099V43.251z
			 M25.278,41.333l-6.776-4.098v-1.47l6.776,4.099V41.333z M25.278,39.416l-6.776-4.099v-1.47l6.776,4.099V39.416z M25.278,37.499
			l-6.776-4.1v-1.606l6.776,3.903V37.499z M29.461,55.122l-1.004,0.579v-1.306l1.005-0.593L29.461,55.122z"/>
		<path d="M38.918,42.474l-0.01-0.015v-1.358l-0.021,0.014l-4.117-1.983l-4.022,1.981l-0.021-0.012v1.365l-0.009,0.014l0.009,0.006
			v1.048l-0.009,0.014l0.009,0.006V44.6l-0.009,0.016l0.009,0.005v1.047l-0.009,0.014l0.009,0.005v1.047l-0.009,0.016l0.009,0.006
			v1.047l-0.009,0.014l0.009,0.006v1.047l-0.009,0.015l0.009,0.005v1.048l-0.009,0.015l0.009,0.005v1.048l-0.009,0.014l0.009,0.005
			v1.049l-0.009,0.014l0.009,0.006v1.53l3.985,2.295l0.107,0.061l0.105-0.061l2.313-1.333h0.015v-0.008l1.655-0.954v-1.537
			l0.01-0.005l-0.01-0.016v-1.047l0.01-0.005l-0.01-0.015v-1.044l0.01-0.005l-0.008-0.016v-1.047l0.01-0.006l-0.01-0.015v-1.048
			l0.01-0.005l-0.01-0.015V46.75l0.01-0.005l-0.01-0.016v-1.048l0.01-0.005l-0.01-0.016v-1.047l0.01-0.006l-0.01-0.015v-1.047
			l0.01-0.005l-0.01-0.016v-1.047L38.918,42.474z M34.711,55.67l-3.771-2.172v-1.277l3.771,2.281V55.67z M34.711,54.252
			l-3.771-2.281v-0.816l3.771,2.279V54.252z M34.711,53.184l-3.771-2.279v-0.818l3.771,2.28V53.184z M34.711,52.118l-3.771-2.28
			v-0.818l3.771,2.28V52.118z M34.711,51.049l-3.771-2.281v-0.816l3.771,2.279V51.049z M34.711,49.982l-3.771-2.279v-0.818
			l3.771,2.28V49.982z M34.711,48.915l-3.771-2.28v-0.818l3.771,2.281V48.915z M34.711,47.847l-3.771-2.28V44.75l3.771,2.281V47.847
			z M34.711,46.78L30.94,44.5v-0.818l3.771,2.281V46.78z M34.711,45.713l-3.771-2.281v-0.817l3.771,2.28V45.713z M34.711,44.645
			l-3.771-2.279V41.47l3.771,2.172V44.645z M37.041,54.453l-0.561,0.321v-0.726l0.561-0.33V54.453z M38.697,53.499l-1.442,0.831
			v-0.984l-0.986,0.581v0.971l-1.342,0.773v-1.175l3.771-2.281L38.697,53.499L38.697,53.499z M38.697,51.965l-3.771,2.28v-0.818
			l3.771-2.281V51.965z M38.697,50.897l-3.771,2.281v-0.817l3.771-2.281V50.897z M38.697,49.831l-3.771,2.28v-0.817l3.771-2.281
			V49.831z M38.697,48.763l-3.771,2.28v-0.817l3.771-2.28V48.763z M38.697,47.696l-3.771,2.28v-0.817l3.771-2.281V47.696z
			 M38.697,46.628l-3.771,2.281v-0.818l3.771-2.28V46.628z M38.697,45.56l-3.771,2.281v-0.818l3.771-2.28V45.56z M38.697,44.494
			l-3.771,2.279v-0.817l3.771-2.28V44.494z M38.697,43.426l-3.771,2.28v-0.818l3.771-2.28V43.426z M38.697,42.358l-3.771,2.281
			v-0.997l3.771-2.172V42.358z"/>
	</g>
</g>
<g>
</g>
<g>
</g>
<g>
</g>
<g>
</g>
<g>
</g>
<g>
</g>
<g>
</g>
<g>
</g>
<g>
</g>
<g>
</g>
<g>
</g>
<g>
</g>
<g>
</g>
<g>
</g>
<g>
</g>
</svg>
