<?xml version="1.0" encoding="iso-8859-1"?>
<!-- Generator: Adobe Illustrator 16.0.0, SVG Export Plug-In . SVG Version: 6.00 Build 0)  -->
<!DOCTYPE svg PUBLIC "-//W3C//DTD SVG 1.1//EN" "http://www.w3.org/Graphics/SVG/1.1/DTD/svg11.dtd">
<svg version="1.1" id="Capa_1" xmlns="http://www.w3.org/2000/svg" xmlns:xlink="http://www.w3.org/1999/xlink" x="0px" y="0px"
	 width="48.334px" height="48.334px" viewBox="0 0 48.334 48.334" style="enable-background:new 0 0 48.334 48.334;"
	 xml:space="preserve">
<g>
	<g>
		<g>
			<path d="M46.751,26.362h-16.75v-7.417H18.333v7.417H1.584C0.709,26.362,0,27.071,0,27.945s0.709,1.583,1.584,1.583h16.749v7.417
				h3.905v2.404c0,1.065,0.864,1.929,1.929,1.929c1.065,0,1.929-0.863,1.929-1.929v-2.404h3.905v-7.417h16.75
				c0.874,0,1.583-0.709,1.583-1.583S47.625,26.362,46.751,26.362z"/>
		</g>
		<g>
			<path d="M17.21,23.258h0.332v-3.375H17.21c-0.933,0-1.688,0.755-1.688,1.688C15.522,22.504,16.277,23.258,17.21,23.258z"/>
		</g>
		<g>
			<path d="M30.521,19.883v3.375h0.332c0.934,0,1.688-0.755,1.688-1.688s-0.755-1.688-1.688-1.688L30.521,19.883L30.521,19.883z"/>
		</g>
		<g>
			<path d="M25.018,18.567l0.274-0.003c-0.021-1.669,0.362-2.869,1.172-3.669c1.537-1.518,4.521-1.448,7.406-1.375
				c3.007,0.073,6.118,0.148,7.79-1.607c0.938-0.985,1.324-2.411,1.182-4.357l-0.996,0.073c0.12,1.649-0.177,2.825-0.908,3.594
				c-0.896,0.939-2.39,1.232-4.131,1.304c0.391-0.204,0.752-0.454,1.06-0.787c0.931-1.007,1.307-2.54,1.149-4.685l-0.998,0.073
				c0.137,1.854-0.154,3.141-0.887,3.934c-1.104,1.193-3.15,1.205-5.318,1.217c-2.357,0.014-4.795,0.028-6.338,1.598
				c-1.009,1.026-1.485,2.571-1.458,4.722l1-0.013C25.016,18.58,25.018,18.575,25.018,18.567z"/>
		</g>
	</g>
</g>
<g>
</g>
<g>
</g>
<g>
</g>
<g>
</g>
<g>
</g>
<g>
</g>
<g>
</g>
<g>
</g>
<g>
</g>
<g>
</g>
<g>
</g>
<g>
</g>
<g>
</g>
<g>
</g>
<g>
</g>
</svg>
