<?xml version="1.0" encoding="iso-8859-1"?>
<!-- Generator: Adobe Illustrator 16.0.0, SVG Export Plug-In . SVG Version: 6.00 Build 0)  -->
<!DOCTYPE svg PUBLIC "-//W3C//DTD SVG 1.1//EN" "http://www.w3.org/Graphics/SVG/1.1/DTD/svg11.dtd">
<svg version="1.1" id="Capa_1" xmlns="http://www.w3.org/2000/svg" xmlns:xlink="http://www.w3.org/1999/xlink" x="0px" y="0px"
	 width="51px" height="51px" viewBox="0 0 51 51" style="enable-background:new 0 0 51 51;" xml:space="preserve">
<g>
	<g>
		<path d="M26.417,29.483c0.329,0,0.629-0.181,0.783-0.473c0.068-0.129,0.103-0.268,0.103-0.414c0-0.237-0.092-0.459-0.259-0.627
			c-0.168-0.167-0.391-0.259-0.627-0.259c-0.489,0-0.888,0.397-0.888,0.886c0,0.146,0.035,0.284,0.102,0.412
			C25.785,29.301,26.086,29.483,26.417,29.483z"/>
		<path d="M37.014,27.711c-0.49,0-0.889,0.397-0.889,0.886c0,0.031,0.002,0.063,0.004,0.093c0.047,0.452,0.428,0.794,0.885,0.794
			c0.482,0,0.876-0.387,0.886-0.866v-0.002l-0.001-0.03C37.895,28.104,37.496,27.711,37.014,27.711z"/>
		<path d="M34.026,24.473c0-0.603-3.544,0-3.544,0l-1.538,1.28l5.082-0.394C34.026,25.357,34.026,25.076,34.026,24.473z"/>
		<path d="M45.893,2.184L16.8,0.001c-0.189-0.013-0.375,0.051-0.514,0.18c-0.066,0.061-0.117,0.135-0.154,0.214L4.943,4.125
			C4.667,4.218,4.477,4.479,4.477,4.772v38.909c0,0.248,0.135,0.477,0.352,0.596l11.283,6.269c0.037,0.106,0.098,0.204,0.184,0.281
			C16.422,50.938,16.584,51,16.75,51c0.025,0,0.051-0.001,0.076-0.004l29.091-3.272c0.345-0.039,0.605-0.331,0.605-0.678V2.864
			C46.522,2.506,46.248,2.209,45.893,2.184z M15.932,48.887l-10.09-5.605V5.265L15.932,1.9V48.887z M45.158,46.436l-27.728,3.119
			V1.417l27.728,2.08V46.436z"/>
		<path d="M22.028,38.277c0.016,0,0.033,0,0.049-0.002l19.07-1.361c0.664-0.017,1.199-0.561,1.199-1.228V10.231
			c0-0.667-0.535-1.211-1.199-1.227l-19.07-1.362c-0.016-0.001-0.033-0.002-0.049-0.002c-0.678,0-1.227,0.551-1.227,1.227V37.05
			C20.803,37.728,21.352,38.277,22.028,38.277z M31.646,14.459c0.769-0.477,1.278-1.326,1.278-2.296c0-0.135-0.012-0.266-0.03-0.396
			l2.315,0.1c0.302,0,0.545-0.244,0.545-0.545V9.986l5.229,0.374v25.198l-17.084,1.22v-6.237l15.322-0.537v5.523h0.545v-6.089
			l-1.858,0.065c0.199-0.198,0.336-0.462,0.369-0.758l-0.158,0.009c-0.093,0.295-0.265,0.55-0.48,0.758l-1.456,0.051
			c-0.241-0.208-0.409-0.5-0.442-0.834c-0.006-0.043-0.008-0.088-0.008-0.133c0-0.707,0.573-1.28,1.281-1.28
			c0.471,0,0.865,0.268,1.088,0.646c0,0.002,0,0.003-0.001,0.005l0.007,0.002c0.105,0.186,0.184,0.387,0.186,0.614
			c0,0.004,0.002,0.008,0.002,0.012c0,0.051-0.01,0.1-0.017,0.149l0.179-0.011l0.063-0.228c-0.013-0.206-0.067-0.399-0.151-0.575
			c0.522-1.739-0.266-2.444-0.478-2.593c-0.147-0.58-0.587-1.303-0.849-1.703c-0.004-0.021-0.004-0.043-0.01-0.067
			c-0.041-0.137-0.195-0.455-0.715-0.455c-0.16,0-0.34,0.028-0.49,0.055c0.053-0.095,0.105-0.19,0.123-0.296
			c0.102-0.603-0.287-0.995-1.166-1.17c-0.242-0.052-0.752-0.066-1.633-0.087c-1.133-0.027-4.142-0.097-4.453-0.432
			c0,0,0.016-0.044,0.102-0.125c0.722-0.645,2.609-0.591,4.123-0.551c0.688,0.021,1.341,0.038,1.828-0.012
			c0.098-0.012,0.201-0.021,0.31-0.03c0.541-0.046,1.215-0.104,1.58-0.566c0.206-0.26,0.278-0.603,0.218-1.019
			c-0.169-1.143-1.704-1.299-2.621-1.392l-0.523-0.059c-0.908-0.106-2.43-0.284-2.903-0.954c-0.138-0.193-0.171-0.427-0.114-0.709
			C31.008,15.46,31.401,15.005,31.646,14.459z M25.003,29.142c-0.302-0.066-0.524-0.174-0.569-0.342
			c-0.171-0.629-0.427-1.296,0.006-1.375c0,0-0.314-1.433,3.647-1.727c0,0,1.387-1.269,1.871-1.522l0.392-0.1
			c1.153-0.184,4.396-0.289,5.94-0.085c0,0,0.391-0.086,0.629-0.085c0.262,0.415,0.627,1.053,0.74,1.54l0.012,0.053l0.048,0.027
			c0.036,0.022,0.851,0.547,0.462,2.121c-0.276-0.342-0.694-0.563-1.168-0.563c-0.643,0-1.189,0.401-1.41,0.967h-7.777
			c-0.221-0.564-0.768-0.967-1.409-0.967c-0.836,0-1.517,0.679-1.517,1.515C24.899,28.79,24.938,28.972,25.003,29.142z
			 M26.417,27.316c0.707,0,1.28,0.573,1.28,1.28c0,0.216-0.055,0.419-0.147,0.597c-0.215,0.406-0.641,0.685-1.132,0.685
			c-0.493,0-0.92-0.279-1.135-0.688c-0.093-0.178-0.146-0.379-0.146-0.594C25.136,27.89,25.708,27.316,26.417,27.316z M27.57,29.354
			l7.18-0.406c0.112,0.259,0.295,0.473,0.508,0.65l-8.429,0.295C27.117,29.777,27.375,29.598,27.57,29.354z M22.166,9.017
			l3.045,0.218v1.68c0,0.301,0.244,0.545,0.545,0.545l1.838,0.079c-0.049,0.201-0.076,0.41-0.076,0.625
			c0,0.971,0.514,1.819,1.281,2.296c0.291,0.651,0.795,1.176,1.119,1.47c-0.017,0.365,0.076,0.694,0.281,0.981
			c0.668,0.942,2.328,1.136,3.428,1.265l0.535,0.061c0.653,0.066,1.871,0.19,1.955,0.755c0.029,0.203,0.008,0.353-0.063,0.444
			c-0.165,0.208-0.659,0.25-1.056,0.284c-0.117,0.01-0.229,0.021-0.33,0.032c-0.432,0.044-1.059,0.027-1.724,0.008
			c-1.733-0.05-3.698-0.104-4.651,0.748c-0.387,0.364-0.377,0.68-0.299,0.881c0.28,0.735,1.881,0.901,5.142,0.977
			c0.672,0.016,1.307,0.031,1.52,0.076c0.544,0.108,0.573,0.208,0.558,0.309c-0.026,0.159-0.34,0.369-0.506,0.369v0.004
			c-0.441-0.02-0.886-0.027-1.248-0.027c-1.383,0-2.856,0.081-3.582,0.198l-0.43,0.106l-0.123,0.047
			c-0.438,0.229-1.381,1.061-1.781,1.422c-1.832,0.16-3.031,0.604-3.565,1.322c-0.151,0.204-0.229,0.399-0.265,0.564
			c-0.044,0.043-0.083,0.093-0.117,0.146c-0.251,0.405-0.107,0.911,0.046,1.446l0.062,0.218c0.1,0.367,0.428,0.616,0.976,0.739
			l0.056,0.012c0.228,0.297,0.541,0.506,0.892,0.617l-2.271,0.08v0.021l-1.188,0.134V9.017H22.166z M22.166,30.718l1.188-0.134
			v6.233l-1.188,0.085V30.718z"/>
		<path d="M8.28,36.706l4.818,1.739c0.074,0.027,0.152,0.041,0.232,0.041c0.676,0,1.227-0.55,1.227-1.227V9.078
			c0-0.677-0.551-1.228-1.227-1.228c-0.045,0-0.088,0.004-0.133,0.013L8.342,8.82c-0.641,0.041-1.148,0.575-1.148,1.225v25.441
			C7.194,36.116,7.669,36.635,8.28,36.706z M8.559,10.167l4.637-0.914V31.21l-2.592,0.428v4.419l0.547,0.136V32.1l2.045-0.337v5.269
			l-4.541-1.641c-0.031-0.011-0.063-0.021-0.096-0.026V10.167z"/>
		<path d="M25.721,43.651v-0.009c0.318-0.151,0.469-0.415,0.461-0.717c-0.012-0.378-0.299-0.685-0.836-0.639
			c-0.314,0.025-0.6,0.157-0.744,0.287l0.125,0.387c0.105-0.09,0.314-0.21,0.527-0.229c0.285-0.023,0.422,0.13,0.428,0.325
			c0.01,0.29-0.275,0.43-0.504,0.449l-0.221,0.019l0.012,0.4l0.229-0.02c0.303-0.025,0.596,0.098,0.605,0.439
			c0.012,0.228-0.133,0.477-0.51,0.508c-0.25,0.021-0.498-0.069-0.6-0.128l-0.1,0.423c0.143,0.092,0.42,0.165,0.736,0.14
			c0.645-0.055,1.002-0.475,0.986-0.963C26.305,43.933,26.039,43.688,25.721,43.651z"/>
		<path d="M27.255,42.044c-0.293,0.024-0.568,0.07-0.785,0.129l0.092,2.952c0.162,0.009,0.379,0.008,0.666-0.018
			c0.527-0.044,0.951-0.219,1.211-0.513c0.25-0.28,0.4-0.695,0.385-1.229c-0.016-0.513-0.188-0.854-0.455-1.068
			C28.112,42.088,27.762,42.002,27.255,42.044z M27.315,44.665c-0.1,0.008-0.205,0.017-0.273,0.009l-0.066-2.146
			c0.068-0.023,0.18-0.047,0.336-0.06c0.617-0.052,0.975,0.296,0.99,0.961C28.328,44.189,27.957,44.614,27.315,44.665z"/>
		<path d="M30.963,41.965c-0.308,0.026-0.531,0.07-0.693,0.116l0.086,2.73l0.451-0.038l-0.033-1.043
			c0.061,0.007,0.137,0.005,0.223-0.002c0.322-0.026,0.604-0.146,0.779-0.362c0.135-0.159,0.203-0.385,0.193-0.646
			c-0.006-0.26-0.109-0.468-0.262-0.592C31.543,41.994,31.297,41.937,30.963,41.965z M30.983,43.334
			c-0.094,0.008-0.168,0.01-0.223-0.002l-0.029-0.938c0.047-0.016,0.138-0.036,0.263-0.047c0.313-0.025,0.512,0.122,0.521,0.43
			C31.524,43.104,31.324,43.306,30.983,43.334z"/>
		<path d="M33.199,42.521c-0.191,0.017-0.398,0.179-0.479,0.47l-0.015,0.001l-0.025-0.382l-0.396,0.034
			c0.018,0.181,0.027,0.373,0.035,0.645l0.043,1.354l0.453-0.039l-0.031-1.035c-0.002-0.057,0.004-0.11,0.01-0.156
			c0.033-0.229,0.179-0.398,0.396-0.417c0.055-0.004,0.096,0,0.133,0.005l-0.016-0.478C33.27,42.519,33.244,42.517,33.199,42.521z"
			/>
		<polygon points="33.617,42.53 33.678,44.531 34.137,44.492 34.074,42.492 		"/>
		<path d="M33.834,42.224c0.158-0.013,0.254-0.141,0.25-0.292c-0.01-0.156-0.107-0.267-0.265-0.253
			c-0.151,0.013-0.252,0.141-0.248,0.296C33.578,42.126,33.682,42.235,33.834,42.224z"/>
		<path d="M35.553,42.32c-0.299,0.025-0.488,0.231-0.562,0.395l-0.011,0.001l-0.03-0.298l-0.4,0.034
			c0.016,0.172,0.025,0.364,0.033,0.595l0.045,1.405l0.457-0.039l-0.035-1.174c-0.002-0.059,0-0.119,0.012-0.167
			c0.045-0.156,0.166-0.311,0.346-0.326c0.25-0.021,0.352,0.188,0.361,0.476l0.035,1.13l0.455-0.039l-0.037-1.187
			C36.201,42.493,35.869,42.294,35.553,42.32z"/>
		<path d="M37.469,43.839c-0.176,0.015-0.238-0.108-0.246-0.35l-0.027-0.884l0.434-0.037l-0.012-0.378l-0.434,0.038l-0.018-0.57
			l-0.439,0.156l0.014,0.452l-0.258,0.022l0.01,0.378l0.26-0.022l0.029,0.94c0.008,0.263,0.059,0.439,0.158,0.547
			c0.088,0.095,0.23,0.145,0.396,0.131c0.145-0.012,0.262-0.043,0.328-0.078L37.644,43.8C37.604,43.814,37.545,43.833,37.469,43.839
			z"/>
		<path d="M38.703,42.054c-0.576,0.048-0.863,0.596-0.847,1.15c0.021,0.611,0.375,0.98,0.959,0.932
			c0.261-0.021,0.474-0.094,0.625-0.177l-0.075-0.343c-0.138,0.068-0.287,0.114-0.498,0.132c-0.289,0.024-0.55-0.11-0.57-0.472
			l1.205-0.102c0.008-0.046,0.012-0.121,0.01-0.215C39.498,42.521,39.289,42.005,38.703,42.054z M38.285,42.926
			c0.012-0.208,0.123-0.501,0.403-0.524c0.304-0.025,0.388,0.272,0.39,0.457L38.285,42.926z"/>
		<path d="M40.75,41.88c-0.191,0.017-0.398,0.179-0.479,0.469l-0.015,0.001l-0.026-0.38l-0.396,0.034
			c0.018,0.18,0.026,0.373,0.035,0.644l0.043,1.356l0.455-0.039l-0.033-1.035c-0.002-0.057,0.004-0.111,0.01-0.158
			c0.033-0.229,0.178-0.396,0.395-0.416c0.057-0.004,0.098,0,0.135,0.005l-0.016-0.477C40.819,41.878,40.795,41.877,40.75,41.88z"/>
	</g>
</g>
<g>
</g>
<g>
</g>
<g>
</g>
<g>
</g>
<g>
</g>
<g>
</g>
<g>
</g>
<g>
</g>
<g>
</g>
<g>
</g>
<g>
</g>
<g>
</g>
<g>
</g>
<g>
</g>
<g>
</g>
</svg>
