<?xml version="1.0" encoding="iso-8859-1"?>
<!-- Generator: Adobe Illustrator 16.0.0, SVG Export Plug-In . SVG Version: 6.00 Build 0)  -->
<!DOCTYPE svg PUBLIC "-//W3C//DTD SVG 1.1//EN" "http://www.w3.org/Graphics/SVG/1.1/DTD/svg11.dtd">
<svg version="1.1" id="Capa_1" xmlns="http://www.w3.org/2000/svg" xmlns:xlink="http://www.w3.org/1999/xlink" x="0px" y="0px"
	 width="42.994px" height="42.994px" viewBox="0 0 42.994 42.994" style="enable-background:new 0 0 42.994 42.994;"
	 xml:space="preserve">
<g>
	<g>
		<path d="M33.465,0.441c-5.255,0-9.529,4.274-9.529,9.529c0,0.782,0.104,1.538,0.283,2.266L13.104,9.97L0.017,16.893l0.116,0.221
			L0,17.086v21.306l17.63,4.161l13.55-7.456V19.212c0.733,0.182,1.496,0.289,2.285,0.289c5.256,0,9.529-4.275,9.529-9.53
			C42.994,4.716,38.721,0.441,33.465,0.441z M16.742,41.285l-15.805-3.64V18.246l15.805,3.402V41.285z M17.584,20.871L1.273,17.36
			l11.981-6.338l11.301,2.303c0.405,1.072,0.996,2.051,1.734,2.898L17.584,20.871z M29.618,13.79c-0.947,0-1.763-0.264-2.183-0.54
			l0.336-1.115c0.3,0.18,1.031,0.479,1.773,0.479c1.128,0,1.584-0.636,1.571-1.247c0-0.924-0.863-1.319-1.763-1.319h-0.685V8.969
			h0.659c0.684,0,1.548-0.313,1.548-1.092c0-0.527-0.396-0.972-1.248-0.972c-0.635,0-1.271,0.276-1.595,0.492L27.697,6.33
			c0.443-0.312,1.308-0.6,2.242-0.6c1.606,0,2.436,0.888,2.436,1.907c0,0.815-0.479,1.486-1.439,1.822v0.024
			c0.947,0.168,1.715,0.888,1.715,1.942C32.652,12.746,31.549,13.79,29.618,13.79z M39.389,12.639
			c-0.804,0.731-2.086,1.104-3.658,1.104c-0.862,0-1.512-0.048-1.99-0.108V5.684c0.646-0.108,1.477-0.168,2.352-0.168
			c1.512,0,2.555,0.312,3.299,0.936c0.778,0.636,1.258,1.595,1.258,2.974C40.646,10.863,40.156,11.943,39.389,12.639z"/>
		<path d="M36.223,6.666c-0.469,0-0.804,0.036-1.008,0.084v5.78c0.204,0.036,0.516,0.036,0.815,0.036
			c1.919,0.012,3.059-1.043,3.059-3.094C39.102,7.685,38.068,6.666,36.223,6.666z"/>
	</g>
</g>
<g>
</g>
<g>
</g>
<g>
</g>
<g>
</g>
<g>
</g>
<g>
</g>
<g>
</g>
<g>
</g>
<g>
</g>
<g>
</g>
<g>
</g>
<g>
</g>
<g>
</g>
<g>
</g>
<g>
</g>
</svg>
