<?xml version="1.0" encoding="iso-8859-1"?>
<!-- Generator: Adobe Illustrator 16.0.0, SVG Export Plug-In . SVG Version: 6.00 Build 0)  -->
<!DOCTYPE svg PUBLIC "-//W3C//DTD SVG 1.1//EN" "http://www.w3.org/Graphics/SVG/1.1/DTD/svg11.dtd">
<svg version="1.1" id="Capa_1" xmlns="http://www.w3.org/2000/svg" xmlns:xlink="http://www.w3.org/1999/xlink" x="0px" y="0px"
	 width="48.272px" height="48.272px" viewBox="0 0 48.272 48.272" style="enable-background:new 0 0 48.272 48.272;"
	 xml:space="preserve">
<g>
	<g>
		<path d="M47.135,4.868H1.138C0.509,4.868,0,5.377,0,6.006v26.088c0,0.629,0.509,1.139,1.138,1.139h19.337v7.548h0.846v-7.548h5.63
			v7.548h0.846v-7.548h19.338c0.629,0,1.138-0.51,1.138-1.139V6.006C48.272,5.377,47.764,4.868,47.135,4.868z M45.996,30.957H2.276
			V7.143h43.72V30.957z"/>
		<path d="M31.016,40.617c-0.203,0.218-0.867,0.511-1.187,0.511H18.443c-0.318,0-0.984-0.293-1.186-0.511V38.06h-2.276v2.678
			c0,1.727,2.287,2.667,3.461,2.667h11.387c1.175,0,3.461-0.94,3.461-2.667V38.06h-2.276v2.558H31.016z"/>
		<path d="M29.707,21.894v-9.566l-7.986-1.538l-5.782,3.06l0.051,0.097l-0.059-0.012v9.414l7.791,1.839L29.707,21.894z
			 M23.329,24.628l-6.986-1.608v-8.573l6.986,1.502V24.628z M16.492,14.055l5.294-2.801l7.222,1.448l-5.309,2.907L16.492,14.055z"/>
		<rect x="4.523" y="8.264" width="1.576" height="0.248"/>
		<rect x="4.523" y="8.836" width="5.8" height="0.249"/>
		<rect x="4.523" y="9.578" width="5.8" height="0.249"/>
		<rect x="4.523" y="11.186" width="5.8" height="0.249"/>
		<rect x="4.523" y="11.774" width="4.438" height="0.247"/>
		<path d="M43.749,22.519h-8.674v7.376h8.674V22.519z M43.008,29.153h-7.19v-5.892h7.19V29.153z"/>
		<rect x="40.969" y="23.818" width="1.576" height="0.325"/>
		<rect x="36.281" y="23.818" width="0.789" height="1.577"/>
		<rect x="40.01" y="25.628" width="1.746" height="0.58"/>
		<rect x="40.01" y="26.486" width="1.746" height="0.58"/>
		<rect x="40.01" y="27.33" width="1.746" height="0.578"/>
		<circle cx="39.52" cy="13.637" r="0.805"/>
		<path d="M37.809,11.2c0.097,0.097,0.252,0.097,0.35,0c0.047-0.047,0.07-0.11,0.07-0.172c0-0.063-0.023-0.126-0.07-0.176
			l-0.248-0.246h1.362v1.924h0.493v-1.924h1.361l-0.246,0.249c-0.098,0.094-0.098,0.251,0,0.348c0.096,0.095,0.252,0.095,0.346,0
			l0.668-0.668c0.046-0.046,0.07-0.107,0.07-0.175c0-0.064-0.024-0.126-0.07-0.173L41.227,9.52c-0.094-0.096-0.25-0.096-0.346,0
			c-0.049,0.049-0.072,0.112-0.072,0.174c0,0.063,0.023,0.126,0.072,0.173l0.246,0.248h-1.361V8.992l0.244,0.246
			c0.098,0.095,0.254,0.095,0.351,0c0.096-0.096,0.096-0.253,0-0.348l-0.667-0.667C39.647,8.177,39.584,8.15,39.52,8.15
			c-0.065,0-0.127,0.027-0.174,0.073L38.678,8.89c-0.094,0.094-0.094,0.251,0,0.348c0.049,0.048,0.111,0.072,0.174,0.072
			c0.063,0,0.125-0.024,0.174-0.072l0.248-0.246v1.122h-1.362l0.248-0.246c0.095-0.096,0.095-0.252,0-0.348
			c-0.097-0.096-0.252-0.096-0.351,0l-0.664,0.669c-0.047,0.045-0.073,0.107-0.073,0.174c0,0.065,0.026,0.126,0.073,0.172
			L37.809,11.2z"/>
		<path d="M8.202,24.863L6.79,24.876v0.69l1.49-0.011c1.11,0,1.729,0.611,1.722,1.686c0,1.232-0.685,1.866-1.837,1.859
			c-0.18,0-0.367,0-0.49-0.021v-2.697H6.79v3.359c0.288,0.036,0.676,0.064,1.195,0.064c0.944,0,1.714-0.223,2.197-0.662
			c0.462-0.418,0.757-1.066,0.757-1.93c0-0.83-0.289-1.406-0.757-1.787C9.737,25.052,9.109,24.863,8.202,24.863z"/>
		<path d="M4.648,29.104c-0.462,0-0.917-0.188-1.103-0.299l-0.209,0.695c0.261,0.17,0.769,0.334,1.357,0.334
			c1.2,0,1.885-0.648,1.885-1.469c0-0.656-0.477-1.104-1.065-1.207v-0.016c0.596-0.209,0.894-0.625,0.894-1.133
			c0-0.633-0.514-1.185-1.513-1.185c-0.581,0-1.118,0.179-1.394,0.373l0.209,0.663c0.201-0.135,0.596-0.307,0.99-0.307
			c0.529,0,0.776,0.276,0.776,0.604c0,0.483-0.537,0.679-0.962,0.679H4.104v0.67h0.424c0.558,0,1.095,0.246,1.095,0.819
			C5.632,28.71,5.348,29.104,4.648,29.104z"/>
	</g>
</g>
<g>
</g>
<g>
</g>
<g>
</g>
<g>
</g>
<g>
</g>
<g>
</g>
<g>
</g>
<g>
</g>
<g>
</g>
<g>
</g>
<g>
</g>
<g>
</g>
<g>
</g>
<g>
</g>
<g>
</g>
</svg>
