<?xml version="1.0" encoding="iso-8859-1"?>
<!-- Generator: Adobe Illustrator 16.0.0, SVG Export Plug-In . SVG Version: 6.00 Build 0)  -->
<!DOCTYPE svg PUBLIC "-//W3C//DTD SVG 1.1//EN" "http://www.w3.org/Graphics/SVG/1.1/DTD/svg11.dtd">
<svg version="1.1" id="Capa_1" xmlns="http://www.w3.org/2000/svg" xmlns:xlink="http://www.w3.org/1999/xlink" x="0px" y="0px"
	 width="53.416px" height="53.416px" viewBox="0 0 53.416 53.416" style="enable-background:new 0 0 53.416 53.416;"
	 xml:space="preserve">
<g>
	<g>
		<path d="M19.056,12.482c0,1.064,0.861,1.927,1.926,1.927v-3.853C19.917,10.557,19.056,11.419,19.056,12.482z"/>
		<path d="M34.36,12.482c0-1.063-0.861-1.926-1.926-1.926v3.853C33.499,14.41,34.36,13.547,34.36,12.482z"/>
		<path d="M49.333,0H4.083c-1.379,0-2.5,1.121-2.5,2.5v48.416c0,1.379,1.121,2.5,2.5,2.5h45.25c1.379,0,2.5-1.121,2.5-2.5V2.5
			C51.833,1.121,50.712,0,49.333,0z M19.056,48.941c0,0.552-0.448,1-1,1h-8.96c-0.553,0-1-0.448-1-1v-4c0-0.553,0.447-1,1-1h8.96
			c0.552,0,1,0.447,1,1V48.941z M41.208,43.083h-3.25v-1h3.25V43.083z M45.958,43.083h-3.25v-1h3.25V43.083z M48.833,40.604H4.583
			V10.185h17.096v11.223h3.404v2.038c0,0.293,0.083,0.564,0.217,0.802c-0.039,0.269-0.067,0.548-0.067,0.843
			c0,1.653,1.496,2.993,1.496,2.993s1.497-1.34,1.497-2.993c0-0.296-0.029-0.576-0.068-0.846c0.134-0.238,0.216-0.508,0.216-0.8
			v-2.038h3.405V10.185h17.056L48.833,40.604L48.833,40.604z M48.833,8.65H31.778V5.825h-10.1V8.65H4.583V3h44.25V8.65z"/>
	</g>
</g>
<g>
</g>
<g>
</g>
<g>
</g>
<g>
</g>
<g>
</g>
<g>
</g>
<g>
</g>
<g>
</g>
<g>
</g>
<g>
</g>
<g>
</g>
<g>
</g>
<g>
</g>
<g>
</g>
<g>
</g>
</svg>
