<?xml version="1.0" encoding="iso-8859-1"?>
<!-- Generator: Adobe Illustrator 16.0.0, SVG Export Plug-In . SVG Version: 6.00 Build 0)  -->
<!DOCTYPE svg PUBLIC "-//W3C//DTD SVG 1.1//EN" "http://www.w3.org/Graphics/SVG/1.1/DTD/svg11.dtd">
<svg version="1.1" id="Capa_1" xmlns="http://www.w3.org/2000/svg" xmlns:xlink="http://www.w3.org/1999/xlink" x="0px" y="0px"
	 width="56.125px" height="56.125px" viewBox="0 0 56.125 56.125" style="enable-background:new 0 0 56.125 56.125;"
	 xml:space="preserve">
<g>
	<g>
		<path d="M30.001,6.933c1.397-1.271,3.997-1.219,6.522-1.154c2.688,0.065,5.469,0.132,6.963-1.437
			c0.838-0.881,1.184-2.154,1.056-3.894L43.65,0.513c0.107,1.474-0.156,2.524-0.812,3.212c-0.799,0.839-2.134,1.101-3.689,1.165
			c0.349-0.182,0.672-0.405,0.945-0.703c0.832-0.899,1.168-2.27,1.027-4.187l-0.893,0.065c0.125,1.658-0.136,2.809-0.789,3.518
			c-0.985,1.065-2.816,1.076-4.754,1.087c-2.106,0.013-4.285,0.025-5.662,1.428c-0.238,0.242-0.434,0.527-0.606,0.836H3.467v49.191
			h49.191V6.933H30.001z M46.494,16.736v4.43H35.596c0.331-0.276,0.547-0.688,0.547-1.154c0-0.833-0.675-1.509-1.508-1.509h-0.297
			v2.663h-0.465v-6.628h-5.012c0-0.813,0-1.589,0.002-2.27h13.162C44.494,12.268,46.494,14.268,46.494,16.736z M14.1,12.268h13.621
			c-0.001,0.682-0.002,1.458-0.002,2.27h-4.273v6.628h-0.707v-2.663h-0.297c-0.834,0-1.508,0.676-1.508,1.509
			c0,0.466,0.215,0.878,0.548,1.154H9.631v-4.43C9.631,14.268,11.632,12.268,14.1,12.268z M35.02,50.207
			c0-0.594,0.48-1.073,1.073-1.073s1.073,0.479,1.073,1.073c0,0.221-0.082,0.413-0.195,0.583h-1.755
			C35.102,50.62,35.02,50.426,35.02,50.207z M42.025,50.79H40.98l0.092-0.032l0.029-0.551l-0.029-0.553l-1.37-0.487l-0.593-0.21
			l0.27-0.57l0.622-1.308c-0.229-0.287-0.492-0.552-0.778-0.783l-1.312,0.625l-0.567,0.271L37.134,46.6l-0.487-1.371l-0.553-0.031
			l-0.554,0.031L35.055,46.6l-0.211,0.592l-0.568-0.271l-1.31-0.622c-0.288,0.229-0.551,0.493-0.782,0.78l0.623,1.312l0.271,0.568
			l-0.592,0.211l-1.37,0.486l-0.031,0.551l0.031,0.551l0.092,0.032H14.1c-2.468,0-4.469-2-4.469-4.468V23.995h13.814v6.628h3.489
			v2.148c0,0.852,0.62,1.555,1.432,1.693c0.196,1.153,0.812,1.282,2.174,1.379l0.729,0.049c0.256,0.01,0.854,0.029,0.879,0.215
			c-0.01,0.017-0.262,0.404-2.625,0.504c-0.609,0.027-1.207,0.068-1.795,0.107c-0.953,0.065-1.854,0.127-2.765,0.127
			c-0.014,0-0.024,0-0.042,0c-0.817,0-3.446,0.079-3.968,1.086c-0.126,0.272-0.109,0.553,0.044,0.789
			c0.544,0.836,2.79,0.948,7.624,0.885c1.354-0.018,3.033-0.039,3.271,0.039c0.06,0.047,0.099,0.104,0.125,0.207h-1.314
			c0.141,0.799,0.062,1.644-0.282,2.441c-0.938,2.18-3.465,3.182-5.642,2.242c-1.864-0.805-2.857-2.77-2.521-4.684h-2.17
			c-0.054,0.461-0.063,0.92-0.017,1.373l-1.87,1.639c0.167,0.609,0.402,1.201,0.698,1.761l2.485-0.091
			c0.294,0.379,0.631,0.725,1.01,1.033l-0.163,2.486c0.271,0.153,0.553,0.297,0.847,0.426c0.294,0.127,0.59,0.23,0.89,0.324
			l1.696-1.824c0.486,0.062,0.971,0.07,1.445,0.022l1.64,1.87c0.61-0.166,1.2-0.4,1.759-0.698l-0.091-2.487
			c0.379-0.295,0.726-0.633,1.034-1.012l2.486,0.164c0.153-0.271,0.299-0.552,0.424-0.848c0.129-0.293,0.232-0.592,0.326-0.891
			l-1.822-1.695c0.06-0.469,0.066-0.936,0.025-1.396l0.057-0.006c-0.004-0.028-0.01-0.058-0.012-0.085l0.076-0.068h-0.086
			c-0.047-0.324-0.152-0.652-0.492-0.916c-0.322-0.242-1.061-0.26-3.826-0.224c-2.024,0.026-6.178,0.08-6.817-0.435
			c0.282-0.278,1.761-0.539,3.13-0.539c0.018,0.002,0.029,0,0.042,0c0.942,0,1.857-0.062,2.826-0.129
			c0.581-0.039,1.17-0.08,1.815-0.107c1.819-0.077,2.813-0.327,3.222-0.812c0.163-0.194,0.233-0.424,0.204-0.646
			c-0.082-0.986-1.236-1.025-1.729-1.044l-0.696-0.044c-0.961-0.068-1.269-0.102-1.369-0.562c0.668-0.238,1.147-0.869,1.147-1.619
			v-2.148h3.49v-6.628h12.621v22.327C46.494,48.79,44.494,50.79,42.025,50.79z"/>
		<path d="M26.48,42.74c1.186,0,2.146-0.961,2.146-2.146c0-0.262-0.054-0.509-0.14-0.74h-4.015c-0.086,0.231-0.14,0.479-0.14,0.74
			C24.333,41.779,25.294,42.74,26.48,42.74z"/>
	</g>
</g>
<g>
</g>
<g>
</g>
<g>
</g>
<g>
</g>
<g>
</g>
<g>
</g>
<g>
</g>
<g>
</g>
<g>
</g>
<g>
</g>
<g>
</g>
<g>
</g>
<g>
</g>
<g>
</g>
<g>
</g>
</svg>
