<?xml version="1.0" encoding="iso-8859-1"?>
<!-- Generator: Adobe Illustrator 16.0.0, SVG Export Plug-In . SVG Version: 6.00 Build 0)  -->
<!DOCTYPE svg PUBLIC "-//W3C//DTD SVG 1.1//EN" "http://www.w3.org/Graphics/SVG/1.1/DTD/svg11.dtd">
<svg version="1.1" id="Capa_1" xmlns="http://www.w3.org/2000/svg" xmlns:xlink="http://www.w3.org/1999/xlink" x="0px" y="0px"
	 width="50.25px" height="50.25px" viewBox="0 0 50.25 50.25" style="enable-background:new 0 0 50.25 50.25;" xml:space="preserve"
	>
<g>
	<g>
		<path d="M17.473,13.649c0,1.064,0.861,1.927,1.926,1.927v-3.853C18.334,11.724,17.473,12.586,17.473,13.649z"/>
		<path d="M32.777,13.649c0-1.063-0.861-1.926-1.926-1.926v3.853C31.916,15.577,32.777,14.714,32.777,13.649z"/>
		<path d="M47.75,1.167H2.5c-1.379,0-2.5,1.121-2.5,2.5v42.916c0,1.379,1.121,2.5,2.5,2.5h45.25c1.379,0,2.5-1.121,2.5-2.5V3.667
			C50.25,2.288,49.129,1.167,47.75,1.167z M17.473,44.608c0,0.552-0.448,1-1,1h-8.96c-0.553,0-1-0.448-1-1v-4c0-0.553,0.447-1,1-1
			h8.96c0.552,0,1,0.447,1,1V44.608z M39.625,38.75h-3.25v-1h3.25V38.75z M44.375,38.75h-3.25v-1h3.25V38.75z M47.25,36.271H3
			V11.352h17.096v11.223H23.5v2.037c0,0.294,0.083,0.564,0.217,0.803c-0.039,0.27-0.067,0.548-0.067,0.843
			c0,1.653,1.496,2.993,1.496,2.993s1.497-1.34,1.497-2.993c0-0.296-0.029-0.575-0.068-0.846c0.134-0.238,0.216-0.509,0.216-0.8
			v-2.038h3.405V11.352h17.056L47.25,36.271L47.25,36.271z M47.25,9.817H30.195V6.992h-10.1v2.825H3v-5.65h44.25V9.817z"/>
	</g>
</g>
<g>
</g>
<g>
</g>
<g>
</g>
<g>
</g>
<g>
</g>
<g>
</g>
<g>
</g>
<g>
</g>
<g>
</g>
<g>
</g>
<g>
</g>
<g>
</g>
<g>
</g>
<g>
</g>
<g>
</g>
</svg>
