<?xml version="1.0" encoding="iso-8859-1"?>
<!-- Generator: Adobe Illustrator 16.0.0, SVG Export Plug-In . SVG Version: 6.00 Build 0)  -->
<!DOCTYPE svg PUBLIC "-//W3C//DTD SVG 1.1//EN" "http://www.w3.org/Graphics/SVG/1.1/DTD/svg11.dtd">
<svg version="1.1" id="Capa_1" xmlns="http://www.w3.org/2000/svg" xmlns:xlink="http://www.w3.org/1999/xlink" x="0px" y="0px"
	 width="59.052px" height="59.052px" viewBox="0 0 59.052 59.052" style="enable-background:new 0 0 59.052 59.052;"
	 xml:space="preserve">
<g>
	<g>
		<path d="M52.11,19.307H35.36V11.89H23.692v7.417H6.943c-0.875,0-1.584,0.709-1.584,1.583s0.709,1.583,1.584,1.583h16.749v7.417
			h3.905v2.404c0,1,0.766,1.813,1.741,1.91c0.25,0.782,0.818,1.021,1.475,1.184c0.489,0.123,0.914,0.228,1.239,0.822
			c0.115,0.21,0.131,0.34,0.106,0.392c-0.104,0.234-0.903,0.414-1.431,0.53c-0.911,0.204-1.854,0.415-2.189,1.124l0.027,0.014
			l-5.416,2.17l-0.165-0.092V58.73l0.577,0.03V57.16l5.523-1.979v3.85l0.577,0.021v-3.879l5.522,1.979v1.625l0.577-0.047V40.344
			l-0.168,0.096l-5.374-2.156c0.241-0.067,0.5-0.125,0.727-0.176c0.891-0.199,1.812-0.406,2.124-1.095
			c0.169-0.372,0.121-0.805-0.142-1.284c-0.536-0.978-1.311-1.17-1.875-1.312c-0.334-0.083-0.576-0.146-0.718-0.378
			c0.66-0.307,1.119-0.971,1.119-1.745V29.89h3.904v-7.417h16.75c0.874,0,1.583-0.709,1.583-1.583S52.984,19.307,52.11,19.307z
			 M29.086,54.566l-5.523,1.979v-1.021l5.523-1.979V54.566z M29.086,52.934l-5.523,1.979v-1.021l5.523-1.979V52.934z M29.086,51.3
			l-5.523,1.979v-1.021l5.523-1.979V51.3z M29.086,49.666l-5.523,1.979v-1.02l5.523-1.979V49.666z M29.086,48.031l-5.523,1.979
			V48.99l5.523-1.979V48.031z M29.086,46.398l-5.523,1.979v-1.021l5.523-1.979V46.398z M29.086,44.766l-5.523,1.979v-1.021
			l5.523-1.979V44.766z M29.086,43.131l-5.523,1.979v-1.021l5.523-1.979V43.131z M29.086,41.498l-5.523,1.979v-1.021l5.523-1.979
			V41.498z M29.086,39.863l-5.523,1.979v-0.876l5.523-2.134V39.863z M35.186,56.537l-5.522-1.979v-1.021l5.522,1.979V56.537z
			 M35.186,54.902l-5.522-1.979v-1.021l5.522,1.979V54.902z M35.186,53.27l-5.522-1.979V50.27l5.522,1.979V53.27z M35.186,51.636
			l-5.522-1.979v-1.021l5.522,1.979V51.636z M35.186,50.003l-5.522-1.979v-1.021l5.522,1.979V50.003z M35.186,48.369l-5.522-1.979
			v-1.021l5.522,1.979V48.369z M35.186,46.734l-5.522-1.979v-1.021l5.522,1.979V46.734z M35.186,45.102l-5.522-1.979v-1.021
			l5.522,1.979V45.102z M35.186,43.467l-5.522-1.979v-1.021l5.522,1.979V43.467z M35.186,41.834l-5.522-1.979v-1.022l5.522,2.134
			V41.834z"/>
		<path d="M22.569,16.202h0.332v-3.375h-0.332c-0.933,0-1.688,0.755-1.688,1.688C20.881,15.448,21.636,16.202,22.569,16.202z"/>
		<path d="M35.881,12.827v3.375h0.332c0.934,0,1.688-0.755,1.688-1.688c0-0.933-0.755-1.688-1.688-1.688L35.881,12.827
			L35.881,12.827z"/>
		<path d="M30.377,11.512l0.274-0.003C30.631,9.84,31.014,8.64,31.823,7.84c1.537-1.518,4.521-1.448,7.406-1.375
			c3.007,0.073,6.118,0.148,7.79-1.607c0.938-0.985,1.324-2.411,1.182-4.357l-0.996,0.073c0.12,1.649-0.177,2.825-0.908,3.594
			c-0.896,0.939-2.39,1.232-4.131,1.304c0.391-0.204,0.752-0.454,1.06-0.787c0.931-1.007,1.307-2.54,1.149-4.685l-0.998,0.073
			c0.137,1.854-0.154,3.141-0.887,3.934c-1.104,1.193-3.15,1.205-5.318,1.217c-2.357,0.014-4.795,0.028-6.338,1.598
			c-1.009,1.026-1.484,2.571-1.458,4.722l1-0.013C30.375,11.524,30.377,11.519,30.377,11.512z"/>
	</g>
</g>
<g>
</g>
<g>
</g>
<g>
</g>
<g>
</g>
<g>
</g>
<g>
</g>
<g>
</g>
<g>
</g>
<g>
</g>
<g>
</g>
<g>
</g>
<g>
</g>
<g>
</g>
<g>
</g>
<g>
</g>
</svg>
