<?xml version="1.0" encoding="iso-8859-1"?>
<!-- Generator: Adobe Illustrator 16.0.0, SVG Export Plug-In . SVG Version: 6.00 Build 0)  -->
<!DOCTYPE svg PUBLIC "-//W3C//DTD SVG 1.1//EN" "http://www.w3.org/Graphics/SVG/1.1/DTD/svg11.dtd">
<svg version="1.1" id="Capa_1" xmlns="http://www.w3.org/2000/svg" xmlns:xlink="http://www.w3.org/1999/xlink" x="0px" y="0px"
	 width="50.993px" height="50.993px" viewBox="0 0 50.993 50.993" style="enable-background:new 0 0 50.993 50.993;"
	 xml:space="preserve">
<g>
	<g>
		<path d="M35.453,31.141l-0.012-0.002v-0.023l-0.03,0.016L24.415,28.78l-7.998,4.23l0.07,0.134l-0.08-0.017v13.021l10.774,2.543
			l8.28-4.558L35.441,31.42L35.453,31.141z M26.64,47.917l-9.66-2.224V33.836l9.66,2.08V47.917z"/>
		<polygon points="38.391,6.434 33.359,2.301 12.601,2.301 12.601,8.848 38.391,8.848 		"/>
		<path d="M48.393,10.506h-7.31h-2.692h-25.79h-1.352H2.598c-1.434,0-2.598,1.166-2.598,2.6v18.948c0,1.435,1.164,2.603,2.598,2.603
			h12.753v-1.17l-0.198-0.38H14.54l0.002-7.464h22.5v7.461h-0.556l0.003,1.553h11.903c1.433,0,2.601-1.168,2.601-2.604V13.106
			C50.99,11.671,49.824,10.506,48.393,10.506z M16.057,16.668H4.969v-1.475h11.088V16.668z M44.266,18.457
			c-1.391,0-2.522-1.133-2.522-2.526s1.133-2.525,2.522-2.525c1.396,0,2.527,1.132,2.527,2.525S45.66,18.457,44.266,18.457z"/>
	</g>
</g>
<g>
</g>
<g>
</g>
<g>
</g>
<g>
</g>
<g>
</g>
<g>
</g>
<g>
</g>
<g>
</g>
<g>
</g>
<g>
</g>
<g>
</g>
<g>
</g>
<g>
</g>
<g>
</g>
<g>
</g>
</svg>
