<?xml version="1.0" encoding="iso-8859-1"?>
<!-- Generator: Adobe Illustrator 16.0.0, SVG Export Plug-In . SVG Version: 6.00 Build 0)  -->
<!DOCTYPE svg PUBLIC "-//W3C//DTD SVG 1.1//EN" "http://www.w3.org/Graphics/SVG/1.1/DTD/svg11.dtd">
<svg version="1.1" id="Capa_1" xmlns="http://www.w3.org/2000/svg" xmlns:xlink="http://www.w3.org/1999/xlink" x="0px" y="0px"
	 width="57.852px" height="57.851px" viewBox="0 0 57.852 57.851" style="enable-background:new 0 0 57.852 57.851;"
	 xml:space="preserve">
<g>
	<g>
		<path d="M35.339,30.037V19.645l-8.676-1.671l-6.282,3.325l0.056,0.105l-0.064-0.013v10.227l8.463,1.999L35.339,30.037z
			 M28.41,33.007l-7.589-1.748v-9.312l7.589,1.632V33.007z M20.983,21.521l5.751-3.042l7.844,1.573l-5.766,3.158L20.983,21.521z"/>
		<rect x="7.979" y="15.23" width="1.713" height="0.269"/>
		<rect x="7.979" y="15.851" width="6.301" height="0.269"/>
		<rect x="7.979" y="16.657" width="6.301" height="0.27"/>
		<rect x="7.979" y="18.405" width="6.301" height="0.269"/>
		<rect x="7.979" y="19.043" width="4.821" height="0.27"/>
		<circle cx="45.999" cy="21.067" r="0.875"/>
		<path d="M44.14,18.42c0.104,0.105,0.274,0.105,0.379,0c0.052-0.051,0.078-0.12,0.078-0.188c0-0.068-0.026-0.137-0.078-0.19
			l-0.269-0.267h1.48v2.09h0.535v-2.09h1.479l-0.268,0.269c-0.105,0.103-0.105,0.273,0,0.378c0.104,0.103,0.274,0.103,0.376,0
			l0.726-0.726c0.052-0.05,0.078-0.117,0.078-0.189c0-0.071-0.026-0.138-0.078-0.188l-0.726-0.726c-0.102-0.104-0.271-0.104-0.376,0
			c-0.052,0.053-0.078,0.122-0.078,0.189c0,0.068,0.026,0.137,0.078,0.188l0.268,0.269h-1.479v-1.221l0.266,0.268
			c0.105,0.103,0.274,0.103,0.379,0c0.104-0.105,0.104-0.275,0-0.378l-0.725-0.724c-0.049-0.05-0.117-0.08-0.188-0.08
			c-0.071,0-0.139,0.029-0.19,0.08l-0.725,0.724c-0.103,0.103-0.103,0.273,0,0.378c0.052,0.051,0.12,0.078,0.188,0.078
			c0.069,0,0.137-0.026,0.188-0.078l0.269-0.268v1.219h-1.479l0.269-0.267c0.104-0.105,0.104-0.273,0-0.378
			c-0.105-0.104-0.273-0.104-0.379,0l-0.723,0.727c-0.051,0.048-0.08,0.116-0.08,0.188c0,0.07,0.027,0.138,0.08,0.188L44.14,18.42z"
			/>
		<g>
			<path d="M0,43.32v0.734c0,0,10.665,2.181,28.803,2.181c18.141,0,29.049-2.181,29.049-2.181V43.32H0z"/>
			<path d="M41.172,38.731h9.423v-8.015h-9.423V38.731z M41.978,31.522h7.812v6.401h-7.812V31.522z"/>
			<rect x="47.572" y="32.128" width="1.713" height="0.353"/>
			<rect x="42.48" y="32.128" width="0.857" height="1.713"/>
			<rect x="46.531" y="34.093" width="1.896" height="0.631"/>
			<rect x="46.531" y="35.026" width="1.896" height="0.63"/>
			<rect x="46.531" y="35.943" width="1.896" height="0.628"/>
			<path d="M52.511,11.617H5.342c-0.667,0-1.209,0.542-1.209,1.21v27.817c0,0.668,0.542,1.209,1.209,1.209h47.17
				c0.455,0,1.209-0.182,1.199-0.635l0.01-1.967V12.827C53.72,12.159,53.179,11.617,52.511,11.617z M51.3,39.435H6.551v-25.4h44.748
				L51.3,39.435L51.3,39.435z"/>
		</g>
		<path d="M11.781,32.148v0.811l1.746-0.013c1.302,0,2.026,0.718,2.02,1.976c0,1.444-0.804,2.187-2.154,2.178
			c-0.211,0-0.43,0-0.575-0.024v-3.161h-1.037v3.938c0.336,0.043,0.792,0.076,1.4,0.076c1.106,0,2.01-0.26,2.575-0.776
			c0.542-0.49,0.887-1.25,0.887-2.263c0-0.971-0.338-1.646-0.887-2.094c-0.522-0.438-1.257-0.658-2.321-0.658L11.781,32.148z"/>
		<path d="M9.27,37.103c-0.541,0-1.073-0.217-1.292-0.35l-0.245,0.813c0.306,0.2,0.9,0.392,1.59,0.392c1.406,0,2.21-0.759,2.21-1.72
			c0-0.771-0.559-1.293-1.249-1.416v-0.017c0.698-0.246,1.047-0.734,1.047-1.328c0-0.743-0.602-1.391-1.772-1.391
			c-0.682,0-1.31,0.211-1.633,0.438l0.245,0.777c0.236-0.158,0.699-0.358,1.16-0.358c0.62,0,0.91,0.323,0.91,0.708
			c0,0.568-0.629,0.795-1.127,0.795H8.635v0.786h0.497c0.656,0,1.284,0.288,1.284,0.96C10.424,36.642,10.091,37.103,9.27,37.103z"/>
	</g>
</g>
<g>
</g>
<g>
</g>
<g>
</g>
<g>
</g>
<g>
</g>
<g>
</g>
<g>
</g>
<g>
</g>
<g>
</g>
<g>
</g>
<g>
</g>
<g>
</g>
<g>
</g>
<g>
</g>
<g>
</g>
</svg>
