<?xml version="1.0" encoding="iso-8859-1"?>
<!-- Generator: Adobe Illustrator 16.0.0, SVG Export Plug-In . SVG Version: 6.00 Build 0)  -->
<!DOCTYPE svg PUBLIC "-//W3C//DTD SVG 1.1//EN" "http://www.w3.org/Graphics/SVG/1.1/DTD/svg11.dtd">
<svg version="1.1" id="Capa_1" xmlns="http://www.w3.org/2000/svg" xmlns:xlink="http://www.w3.org/1999/xlink" x="0px" y="0px"
	 width="51px" height="51px" viewBox="0 0 51 51" style="enable-background:new 0 0 51 51;" xml:space="preserve">
<g>
	<g>
		<circle cx="35.352" cy="25.132" r="0.571"/>
		<path d="M28.742,26.805c0.709,0,1.286-0.577,1.286-1.286s-0.577-1.286-1.286-1.286c-0.707,0-1.285,0.577-1.285,1.286
			C27.458,26.229,28.035,26.805,28.742,26.805z M28.742,24.666c0.471,0,0.854,0.382,0.854,0.853s-0.384,0.854-0.854,0.854
			c-0.47,0-0.854-0.383-0.854-0.854S28.271,24.666,28.742,24.666z"/>
		<path d="M45.893,2.184L16.8,0.001c-0.189-0.013-0.375,0.051-0.514,0.18c-0.066,0.061-0.117,0.135-0.154,0.214L4.943,4.125
			C4.667,4.218,4.477,4.479,4.477,4.772v38.909c0,0.248,0.135,0.477,0.352,0.596l11.283,6.269c0.037,0.106,0.098,0.204,0.184,0.281
			C16.422,50.938,16.584,51,16.75,51c0.025,0,0.051-0.001,0.076-0.004l29.091-3.272c0.345-0.039,0.605-0.331,0.605-0.678V2.864
			C46.522,2.506,46.248,2.209,45.893,2.184z M15.932,48.887l-10.09-5.605V5.265L15.932,1.9V48.887z M45.158,46.436l-27.728,3.119
			V1.417l27.728,2.08V46.436z"/>
		<path d="M22.028,38.277c0.016,0,0.033,0,0.049-0.002l19.07-1.361c0.664-0.017,1.199-0.561,1.199-1.228V10.231
			c0-0.667-0.535-1.211-1.199-1.227l-19.07-1.362c-0.016-0.001-0.033-0.002-0.049-0.002c-0.678,0-1.227,0.551-1.227,1.227V37.05
			C20.803,37.728,21.352,38.277,22.028,38.277z M31.646,14.459c0.769-0.477,1.278-1.326,1.278-2.296c0-0.135-0.012-0.266-0.03-0.396
			l2.315,0.1c0.302,0,0.545-0.244,0.545-0.545V9.986l5.229,0.374v25.198l-17.084,1.22v-6.237l15.322-0.537v5.523h0.545v-6.089
			l-10.396,0.365c0.07-0.083,0.131-0.174,0.17-0.281l0.215-0.607l0.584,0.277c0.306,0.143,0.688,0.097,0.945-0.109
			c0.275-0.217,0.531-0.473,0.764-0.759c0.217-0.268,0.261-0.642,0.113-0.956l-0.277-0.582l0.256-0.092
			c0.033,0.092,0.082,0.18,0.146,0.26c0.148,0.187,0.321,0.358,0.514,0.514c0.264,0.209,0.644,0.254,0.945,0.113
			c0.123,0.341,0.438,0.574,0.799,0.594l0.295,0.016l0.334-0.016c0.363-0.02,0.677-0.253,0.8-0.593
			c0.118,0.054,0.25,0.083,0.38,0.083c0.203,0,0.402-0.069,0.562-0.195c0.188-0.149,0.36-0.321,0.518-0.515
			c0.216-0.269,0.26-0.641,0.115-0.948c0.337-0.125,0.57-0.435,0.594-0.804l0.016-0.323l-0.016-0.306
			c-0.023-0.359-0.256-0.669-0.596-0.793c0.145-0.31,0.101-0.68-0.113-0.945c-0.152-0.191-0.325-0.365-0.518-0.518
			c-0.263-0.208-0.646-0.25-0.941-0.112c-0.124-0.341-0.438-0.573-0.803-0.592l-0.326-0.017l-0.297,0.017
			c-0.365,0.019-0.68,0.252-0.803,0.593c-0.201-0.093-0.435-0.099-0.648-0.033c-0.243-0.204-0.658-0.401-1.143-0.628
			c-0.568-0.269-1.521-0.719-1.627-1.029c-0.029-0.083-0.057-0.196-0.018-0.256c0.146-0.224,0.928-0.283,1.396-0.318
			c0.441-0.034,0.824-0.063,1.062-0.178c1.003-0.43,1.189-0.979,1.171-1.366c-0.03-0.602-0.612-1.151-1.513-1.434
			c-0.215-0.072-0.448-0.125-0.68-0.178c-0.863-0.196-1.213-0.332-1.193-0.879C30.879,15.607,31.363,15.091,31.646,14.459z
			 M24.727,26.174c-0.089-0.031-0.15-0.112-0.155-0.207l-0.024-0.436l0.024-0.461c0.005-0.094,0.066-0.175,0.155-0.207l1.31-0.465
			l-0.598-1.255c-0.038-0.081-0.027-0.177,0.029-0.246c0.2-0.247,0.42-0.466,0.656-0.653c0.069-0.056,0.164-0.066,0.245-0.028
			l1.252,0.595l0.465-1.31c0.031-0.088,0.111-0.149,0.205-0.154l0.438-0.025l0.465,0.025c0.095,0.005,0.177,0.066,0.207,0.154
			l0.466,1.31l1.252-0.597c0.08-0.039,0.176-0.028,0.246,0.029c0.238,0.192,0.459,0.413,0.652,0.655
			c0.057,0.069,0.066,0.165,0.027,0.245l-0.594,1.252l1.291,0.459c0.004-0.094,0.063-0.175,0.153-0.206l0.694-0.247l-0.317-0.665
			c-0.038-0.081-0.026-0.177,0.028-0.247c0.125-0.154,0.265-0.291,0.41-0.409c0.07-0.055,0.166-0.065,0.246-0.027l0.662,0.315
			l0.248-0.695c0.03-0.088,0.111-0.149,0.205-0.154l0.266-0.015l0.291,0.015c0.094,0.005,0.175,0.065,0.205,0.154l0.246,0.694
			l0.664-0.316c0.08-0.039,0.176-0.027,0.246,0.029c0.149,0.12,0.287,0.258,0.408,0.41c0.057,0.07,0.066,0.165,0.027,0.246
			l-0.314,0.663l0.695,0.248c0.087,0.032,0.148,0.113,0.154,0.207l0.015,0.264l-0.015,0.289c-0.006,0.094-0.067,0.175-0.154,0.207
			l-0.694,0.248l0.315,0.664c0.039,0.081,0.027,0.177-0.028,0.246c-0.124,0.153-0.262,0.29-0.411,0.409
			c-0.068,0.055-0.164,0.065-0.244,0.028l-0.664-0.315l-0.246,0.695c-0.03,0.087-0.111,0.147-0.205,0.154l-0.266,0.015
			c-0.005,0-0.009,0-0.014,0c-0.004,0-0.01,0-0.014,0l-0.264-0.015c-0.094-0.005-0.174-0.066-0.205-0.154l-0.246-0.695l-0.666,0.315
			c-0.08,0.038-0.176,0.026-0.244-0.028c-0.153-0.123-0.291-0.26-0.41-0.409c-0.055-0.069-0.066-0.165-0.028-0.245l0.315-0.666
			l-0.656-0.233l-0.02,0.34c-0.004,0.093-0.064,0.175-0.154,0.207l-1.309,0.467l0.598,1.253c0.037,0.081,0.027,0.176-0.029,0.246
			c-0.197,0.245-0.418,0.465-0.656,0.653c-0.07,0.056-0.166,0.064-0.244,0.028l-1.252-0.596l-0.466,1.311
			c-0.03,0.088-0.112,0.148-0.207,0.154l-0.438,0.024c-0.004,0-0.008,0-0.014,0c-0.005,0-0.008,0-0.014,0l-0.436-0.024
			c-0.095-0.005-0.174-0.065-0.205-0.154l-0.467-1.311l-1.254,0.596c-0.08,0.037-0.176,0.026-0.246-0.029
			c-0.242-0.195-0.462-0.414-0.652-0.653c-0.056-0.07-0.067-0.165-0.029-0.246l0.596-1.254L24.727,26.174z M32.17,23.782
			c-0.041,0.015-0.08,0.033-0.119,0.053l-0.168-0.06l0.203-0.43C32.078,23.491,32.105,23.641,32.17,23.782z M32.196,22.524
			c0.097,0.05,0.183,0.097,0.257,0.142c-0.057,0.059-0.117,0.104-0.17,0.169c-0.016,0.018-0.027,0.036-0.041,0.055
			C32.254,22.766,32.234,22.643,32.196,22.524z M22.166,9.017l3.045,0.218v1.68c0,0.301,0.244,0.545,0.545,0.545l1.838,0.079
			c-0.049,0.201-0.076,0.41-0.076,0.625c0,0.971,0.514,1.819,1.281,2.296c0.256,0.574,0.678,1.047,0.996,1.354
			c-0.069,1.292,1.023,1.558,1.779,1.729c0.206,0.047,0.414,0.093,0.612,0.16c0.627,0.196,0.966,0.518,0.978,0.734
			c0.01,0.189-0.26,0.424-0.718,0.62c-0.12,0.059-0.497,0.087-0.801,0.11c-0.765,0.058-1.63,0.123-1.985,0.667
			c-0.117,0.18-0.225,0.488-0.068,0.934c0.087,0.254,0.299,0.477,0.574,0.682l-0.41,0.196l-0.215-0.605
			c-0.121-0.345-0.438-0.582-0.806-0.602l-0.501-0.027l-0.474,0.027c-0.366,0.021-0.682,0.257-0.802,0.6l-0.216,0.609l-0.581-0.276
			c-0.307-0.145-0.692-0.098-0.949,0.108c-0.275,0.218-0.531,0.473-0.759,0.754c-0.219,0.268-0.265,0.643-0.116,0.96l0.278,0.582
			l-0.609,0.216c-0.344,0.122-0.58,0.438-0.601,0.805l-0.025,0.498l0.025,0.472c0.021,0.366,0.258,0.683,0.601,0.801l0.61,0.217
			l-0.277,0.586c-0.148,0.315-0.105,0.681,0.111,0.949c0.222,0.277,0.477,0.533,0.757,0.759c0.264,0.211,0.647,0.258,0.954,0.111
			l0.584-0.276l0.216,0.605c0.05,0.144,0.14,0.262,0.246,0.359l-3.854,0.135v0.021l-1.188,0.134V9.017z M22.166,30.718l1.188-0.134
			v6.233l-1.188,0.085V30.718z"/>
		<path d="M8.28,36.706l4.818,1.739c0.074,0.027,0.152,0.041,0.232,0.041c0.676,0,1.227-0.55,1.227-1.227V9.078
			c0-0.677-0.551-1.228-1.227-1.228c-0.045,0-0.088,0.004-0.133,0.013L8.342,8.82c-0.641,0.041-1.148,0.575-1.148,1.225v25.441
			C7.194,36.116,7.669,36.635,8.28,36.706z M8.559,10.167l4.637-0.914V31.21l-2.592,0.428v4.419l0.547,0.136V32.1l2.045-0.337v5.269
			l-4.541-1.641c-0.031-0.011-0.063-0.021-0.096-0.026V10.167z"/>
		<path d="M25.721,43.651v-0.009c0.318-0.151,0.469-0.415,0.461-0.717c-0.012-0.378-0.299-0.685-0.836-0.639
			c-0.314,0.025-0.6,0.157-0.744,0.287l0.125,0.387c0.105-0.09,0.314-0.21,0.527-0.229c0.285-0.023,0.422,0.13,0.428,0.325
			c0.01,0.29-0.275,0.43-0.504,0.449l-0.221,0.019l0.012,0.4l0.229-0.02c0.303-0.025,0.596,0.098,0.605,0.439
			c0.012,0.228-0.133,0.477-0.51,0.508c-0.25,0.021-0.498-0.069-0.6-0.128l-0.1,0.423c0.143,0.092,0.42,0.165,0.736,0.14
			c0.645-0.055,1.002-0.475,0.986-0.963C26.305,43.933,26.039,43.688,25.721,43.651z"/>
		<path d="M27.255,42.044c-0.293,0.024-0.568,0.07-0.785,0.129l0.092,2.952c0.162,0.009,0.379,0.008,0.666-0.018
			c0.527-0.044,0.951-0.219,1.211-0.513c0.25-0.28,0.4-0.695,0.385-1.229c-0.016-0.513-0.188-0.854-0.455-1.068
			C28.112,42.088,27.762,42.002,27.255,42.044z M27.315,44.665c-0.1,0.008-0.205,0.017-0.273,0.009l-0.066-2.146
			c0.068-0.023,0.18-0.047,0.336-0.06c0.617-0.052,0.975,0.296,0.99,0.961C28.328,44.189,27.957,44.614,27.315,44.665z"/>
		<path d="M30.963,41.965c-0.308,0.026-0.531,0.07-0.693,0.116l0.086,2.73l0.451-0.038l-0.033-1.043
			c0.061,0.007,0.137,0.005,0.223-0.002c0.322-0.026,0.604-0.146,0.779-0.362c0.135-0.159,0.203-0.385,0.193-0.646
			c-0.006-0.26-0.109-0.468-0.262-0.592C31.543,41.994,31.297,41.937,30.963,41.965z M30.983,43.334
			c-0.094,0.008-0.168,0.01-0.223-0.002l-0.029-0.938c0.047-0.016,0.138-0.036,0.263-0.047c0.313-0.025,0.512,0.122,0.521,0.43
			C31.524,43.104,31.324,43.306,30.983,43.334z"/>
		<path d="M33.199,42.521c-0.191,0.017-0.398,0.179-0.479,0.47l-0.015,0.001l-0.025-0.382l-0.396,0.034
			c0.018,0.181,0.027,0.373,0.035,0.645l0.043,1.354l0.453-0.039l-0.031-1.035c-0.002-0.057,0.004-0.11,0.01-0.156
			c0.033-0.229,0.179-0.398,0.396-0.417c0.055-0.004,0.096,0,0.133,0.005l-0.016-0.478C33.27,42.519,33.244,42.517,33.199,42.521z"
			/>
		<polygon points="33.617,42.53 33.678,44.531 34.137,44.492 34.074,42.492 		"/>
		<path d="M33.834,42.224c0.158-0.013,0.254-0.141,0.25-0.292c-0.01-0.156-0.107-0.267-0.265-0.253
			c-0.151,0.013-0.252,0.141-0.248,0.296C33.578,42.126,33.682,42.235,33.834,42.224z"/>
		<path d="M35.553,42.32c-0.299,0.025-0.488,0.231-0.562,0.395l-0.011,0.001l-0.03-0.298l-0.4,0.034
			c0.016,0.172,0.025,0.364,0.033,0.595l0.045,1.405l0.457-0.039l-0.035-1.174c-0.002-0.059,0-0.119,0.012-0.167
			c0.045-0.156,0.166-0.311,0.346-0.326c0.25-0.021,0.352,0.188,0.361,0.476l0.035,1.13l0.455-0.039l-0.037-1.187
			C36.201,42.493,35.869,42.294,35.553,42.32z"/>
		<path d="M37.469,43.839c-0.176,0.015-0.238-0.108-0.246-0.35l-0.027-0.884l0.434-0.037l-0.012-0.378l-0.434,0.038l-0.018-0.57
			l-0.439,0.156l0.014,0.452l-0.258,0.022l0.01,0.378l0.26-0.022l0.029,0.94c0.008,0.263,0.059,0.439,0.158,0.547
			c0.088,0.095,0.23,0.145,0.396,0.131c0.145-0.012,0.262-0.043,0.328-0.078L37.644,43.8C37.604,43.814,37.545,43.833,37.469,43.839
			z"/>
		<path d="M38.703,42.054c-0.576,0.048-0.863,0.596-0.847,1.15c0.021,0.611,0.375,0.98,0.959,0.932
			c0.261-0.021,0.474-0.094,0.625-0.177l-0.075-0.343c-0.138,0.068-0.287,0.114-0.498,0.132c-0.289,0.024-0.55-0.11-0.57-0.472
			l1.205-0.102c0.008-0.046,0.012-0.121,0.01-0.215C39.498,42.521,39.289,42.005,38.703,42.054z M38.285,42.926
			c0.012-0.208,0.123-0.501,0.403-0.524c0.304-0.025,0.388,0.272,0.39,0.457L38.285,42.926z"/>
		<path d="M40.75,41.88c-0.191,0.017-0.398,0.179-0.479,0.469l-0.015,0.001l-0.026-0.38l-0.396,0.034
			c0.018,0.18,0.026,0.373,0.035,0.644l0.043,1.356l0.455-0.039l-0.033-1.035c-0.002-0.057,0.004-0.111,0.01-0.158
			c0.033-0.229,0.178-0.396,0.395-0.416c0.057-0.004,0.098,0,0.135,0.005l-0.016-0.477C40.819,41.878,40.795,41.877,40.75,41.88z"/>
	</g>
</g>
<g>
</g>
<g>
</g>
<g>
</g>
<g>
</g>
<g>
</g>
<g>
</g>
<g>
</g>
<g>
</g>
<g>
</g>
<g>
</g>
<g>
</g>
<g>
</g>
<g>
</g>
<g>
</g>
<g>
</g>
</svg>
