<?xml version="1.0" encoding="iso-8859-1"?>
<!-- Generator: Adobe Illustrator 16.0.0, SVG Export Plug-In . SVG Version: 6.00 Build 0)  -->
<!DOCTYPE svg PUBLIC "-//W3C//DTD SVG 1.1//EN" "http://www.w3.org/Graphics/SVG/1.1/DTD/svg11.dtd">
<svg version="1.1" id="Capa_1" xmlns="http://www.w3.org/2000/svg" xmlns:xlink="http://www.w3.org/1999/xlink" x="0px" y="0px"
	 width="612px" height="612px" viewBox="0 0 612 612" style="enable-background:new 0 0 612 612;" xml:space="preserve">
<g>
	<path d="M572.516,284.432c-14.579,0-27.164,7.985-34.005,19.742h-96.124c142.438-74.299,156.14-227.822,156.14-282.606
		c0-10.897-8.835-19.742-19.742-19.742c-10.897,0-19.742,8.844-19.742,19.742c0,50.174-13.138,194.646-154.332,256.122v-22.871
		c0-10.897-8.845-19.742-19.742-19.742H246.774c-10.898,0-19.742,8.844-19.742,19.742v49.355H73.489
		c-6.84-11.756-19.426-19.742-34.005-19.742C17.679,284.432,0,302.111,0,323.916c0,21.805,17.679,39.483,39.484,39.483
		c14.58,0,27.165-7.985,34.005-19.741h60.154C18.439,399.34,0,500.557,0,590.432c0,10.897,8.844,19.742,19.742,19.742
		c10.898,0,19.742-8.845,19.742-19.742c0-103.25,24.688-201.684,187.548-236.508v39.089c0,10.897,8.844,19.742,19.742,19.742
		h138.193c10.897,0,19.742-8.845,19.742-19.742v-49.354h133.801c6.841,11.756,19.426,19.741,34.005,19.741
		c21.806,0,39.484-17.679,39.484-39.483C612,302.111,594.321,284.432,572.516,284.432z M365.226,373.271h-98.709v-98.709h98.709
		V373.271z"/>
</g>
<g>
</g>
<g>
</g>
<g>
</g>
<g>
</g>
<g>
</g>
<g>
</g>
<g>
</g>
<g>
</g>
<g>
</g>
<g>
</g>
<g>
</g>
<g>
</g>
<g>
</g>
<g>
</g>
<g>
</g>
</svg>
