<?xml version="1.0" encoding="iso-8859-1"?>
<!-- Generator: Adobe Illustrator 16.0.0, SVG Export Plug-In . SVG Version: 6.00 Build 0)  -->
<!DOCTYPE svg PUBLIC "-//W3C//DTD SVG 1.1//EN" "http://www.w3.org/Graphics/SVG/1.1/DTD/svg11.dtd">
<svg version="1.1" id="Capa_1" xmlns="http://www.w3.org/2000/svg" xmlns:xlink="http://www.w3.org/1999/xlink" x="0px" y="0px"
	 width="632.137px" height="632.137px" viewBox="0 0 632.137 632.137" style="enable-background:new 0 0 632.137 632.137;"
	 xml:space="preserve">
<g>
	<g>
		<path d="M225.408,20.392c-6.525,0-12.653,3.13-16.486,8.401C200.795,39.967,10.063,303.782,10.063,416.792
			c0,118.74,96.605,215.345,215.344,215.345c118.75,0,215.365-96.604,215.365-215.345c0-113.01-190.742-376.825-198.857-387.999
			C238.071,23.521,231.943,20.392,225.408,20.392z M225.408,591.354c-96.248,0-174.561-78.313-174.561-174.562
			c0-75.306,113.907-253.945,174.561-340.823c60.675,86.878,174.583,265.518,174.583,340.823
			C399.99,513.04,321.666,591.354,225.408,591.354z"/>
		<path d="M123.45,414.753c0-11.267-9.125-20.392-20.391-20.392c-11.256,0-20.392,9.125-20.392,20.392
			c0,78.018,63.489,141.497,141.507,141.497c11.256,0,20.392-9.115,20.392-20.392c0-11.257-9.136-20.392-20.392-20.392
			C168.638,515.467,123.45,470.279,123.45,414.753z"/>
		<path d="M526.284,8.401C522.44,3.13,516.303,0,509.777,0s-12.652,3.13-16.486,8.401c-15.997,22.013-95.789,134.584-95.789,189.203
			c0,61.909,50.356,112.275,112.275,112.275c61.909,0,112.296-50.367,112.296-112.275C622.063,142.985,542.271,30.414,526.284,8.401
			z M509.777,269.097c-39.416,0-71.492-32.066-71.492-71.493c0-27.264,38.917-93.597,71.492-141.67
			c32.576,48.073,71.514,114.406,71.514,141.67C581.28,237.031,549.204,269.097,509.777,269.097z"/>
	</g>
</g>
<g>
</g>
<g>
</g>
<g>
</g>
<g>
</g>
<g>
</g>
<g>
</g>
<g>
</g>
<g>
</g>
<g>
</g>
<g>
</g>
<g>
</g>
<g>
</g>
<g>
</g>
<g>
</g>
<g>
</g>
</svg>
