<?xml version="1.0" encoding="iso-8859-1"?>
<!-- Generator: Adobe Illustrator 16.0.0, SVG Export Plug-In . SVG Version: 6.00 Build 0)  -->
<!DOCTYPE svg PUBLIC "-//W3C//DTD SVG 1.1//EN" "http://www.w3.org/Graphics/SVG/1.1/DTD/svg11.dtd">
<svg version="1.1" id="Capa_1" xmlns="http://www.w3.org/2000/svg" xmlns:xlink="http://www.w3.org/1999/xlink" x="0px" y="0px"
	 width="612px" height="612px" viewBox="0 0 612 612" style="enable-background:new 0 0 612 612;" xml:space="preserve">
<g>
	<path d="M611.526,15.527c-0.05-0.237-0.158-0.464-0.218-0.691c-0.345-1.342-0.829-2.625-1.44-3.84
		c-0.099-0.197-0.129-0.424-0.237-0.622c-0.108-0.208-0.286-0.355-0.404-0.553c-0.701-1.195-1.501-2.3-2.419-3.317
		c-0.157-0.168-0.276-0.375-0.444-0.543c-1.096-1.125-2.339-2.083-3.672-2.922c-0.325-0.207-0.681-0.365-1.017-0.553
		c-1.076-0.592-2.211-1.076-3.396-1.461c-0.404-0.128-0.8-0.276-1.224-0.375C595.516,0.267,593.926,0,592.258,0H306
		c-6.278,0-12.171,2.981-15.892,8.025L16.682,379.104C6.209,388.64,0,402.538,0,419.517v137.206C0,589.386,22.614,612,55.277,612
		h265.529c20.363,0,36.424-8.795,45.644-23.335c2.023-1.382,3.889-3.04,5.33-5.202l236.903-355.354
		c2.161-3.238,3.316-7.058,3.316-10.947V19.742C612,18.291,611.822,16.889,611.526,15.527z M315.979,39.484h239.657L406.27,266.516
		H148.687L315.979,39.484z M320.807,365.226H75.957L119.597,306h260.702l-40.866,62.118
		C333.708,366.361,327.568,365.226,320.807,365.226z M369.608,394.089l35.102-53.353V462.89l-29.613,44.419v-87.792
		C375.097,409.961,373.054,401.492,369.608,394.089z M320.807,572.516H55.277c-10.858,0-15.793-4.935-15.793-15.793V419.517
		c0-3.801,0.642-6.703,1.895-8.943c1.521-1.136,2.952-2.419,4.136-4.027l0.02-0.03c2.448-1.253,5.676-1.806,9.743-1.806h260.594
		h4.936c3.583,0,6.356,0.483,8.538,1.451c1.273,1.815,2.883,3.435,4.798,4.777c0.986,2.191,1.471,4.975,1.471,8.578v137.206
		C335.613,567.581,331.664,572.516,320.807,572.516z M444.193,403.663V280.721L572.516,85.67v125.51L444.193,403.663z"/>
</g>
<g>
</g>
<g>
</g>
<g>
</g>
<g>
</g>
<g>
</g>
<g>
</g>
<g>
</g>
<g>
</g>
<g>
</g>
<g>
</g>
<g>
</g>
<g>
</g>
<g>
</g>
<g>
</g>
<g>
</g>
</svg>
