<?xml version="1.0" encoding="iso-8859-1"?>
<!-- Generator: Adobe Illustrator 16.0.0, SVG Export Plug-In . SVG Version: 6.00 Build 0)  -->
<!DOCTYPE svg PUBLIC "-//W3C//DTD SVG 1.1//EN" "http://www.w3.org/Graphics/SVG/1.1/DTD/svg11.dtd">
<svg version="1.1" id="Capa_1" xmlns="http://www.w3.org/2000/svg" xmlns:xlink="http://www.w3.org/1999/xlink" x="0px" y="0px"
	 width="612px" height="612px" viewBox="0 0 612 612" style="enable-background:new 0 0 612 612;" xml:space="preserve">
<g>
	<g>
		<path d="M345.484,39.484h246.773c10.897,0,19.742-8.844,19.742-19.742C612,8.844,603.155,0,592.258,0H345.484
			c-10.898,0-19.742,8.844-19.742,19.742C325.742,30.64,334.586,39.484,345.484,39.484z"/>
		<path d="M345.484,118.452h118.451c10.897,0,19.742-8.844,19.742-19.742c0-10.897-8.845-19.742-19.742-19.742H345.484
			c-10.898,0-19.742,8.844-19.742,19.742C325.742,109.607,334.586,118.452,345.484,118.452z"/>
		<path d="M592.258,78.968h-69.097c-10.897,0-19.742,8.844-19.742,19.742c0,10.898,8.845,19.742,19.742,19.742h69.097
			c10.897,0,19.742-8.844,19.742-19.742C612,87.812,603.155,78.968,592.258,78.968z"/>
		<path d="M592.258,167.807H444.193c-10.897,0-19.742,8.844-19.742,19.742s8.845,19.742,19.742,19.742h148.064
			c10.897,0,19.742-8.845,19.742-19.742S603.155,167.807,592.258,167.807z"/>
		<path d="M345.484,207.291h39.483c10.897,0,19.742-8.845,19.742-19.742s-8.845-19.742-19.742-19.742h-39.483
			c-10.898,0-19.742,8.844-19.742,19.742S334.586,207.291,345.484,207.291z"/>
		<path d="M19.742,276.387h236.903c10.898,0,19.742-8.844,19.742-19.742V19.742C276.387,8.844,267.543,0,256.645,0H19.742
			C8.844,0,0,8.844,0,19.742v236.903C0,267.543,8.844,276.387,19.742,276.387z M39.484,39.484h197.419v197.419H39.484V39.484z"/>
		<path d="M19.742,365.226h424.452c10.897,0,19.742-8.844,19.742-19.741c0-10.898-8.845-19.742-19.742-19.742H19.742
			C8.844,325.742,0,334.586,0,345.484C0,356.382,8.844,365.226,19.742,365.226z"/>
		<path d="M592.258,325.742h-88.839c-10.897,0-19.741,8.844-19.741,19.742c0,10.897,8.844,19.741,19.741,19.741h88.839
			c10.897,0,19.742-8.844,19.742-19.741C612,334.586,603.155,325.742,592.258,325.742z"/>
		<path d="M592.258,404.71H256.645c-10.897,0-19.742,8.844-19.742,19.741c0,10.898,8.844,19.742,19.742,19.742h335.613
			c10.897,0,19.742-8.844,19.742-19.742C612,413.554,603.155,404.71,592.258,404.71z"/>
		<path d="M19.742,444.193h177.678c10.897,0,19.742-8.844,19.742-19.742c0-10.897-8.844-19.741-19.742-19.741H19.742
			C8.844,404.71,0,413.554,0,424.451C0,435.35,8.844,444.193,19.742,444.193z"/>
		<path d="M592.258,246.774H345.484c-10.898,0-19.742,8.844-19.742,19.742s8.844,19.742,19.742,19.742h246.773
			c10.897,0,19.742-8.844,19.742-19.742S603.155,246.774,592.258,246.774z"/>
		<path d="M306,572.516H19.742C8.844,572.516,0,581.36,0,592.258S8.844,612,19.742,612H306c10.897,0,19.742-8.845,19.742-19.742
			S316.897,572.516,306,572.516z"/>
		<path d="M19.742,533.032h59.226c10.897,0,19.742-8.845,19.742-19.742s-8.844-19.741-19.742-19.741H19.742
			C8.844,493.549,0,502.393,0,513.29S8.844,533.032,19.742,533.032z"/>
		<path d="M118.452,513.29c0,10.897,8.844,19.742,19.742,19.742h148.064c10.898,0,19.742-8.845,19.742-19.742
			s-8.844-19.741-19.742-19.741H138.193C127.296,493.549,118.452,502.393,118.452,513.29z"/>
		<path d="M592.258,493.549H345.484c-10.898,0-19.742,8.844-19.742,19.741s8.844,19.742,19.742,19.742h246.773
			c10.897,0,19.742-8.845,19.742-19.742S603.155,493.549,592.258,493.549z"/>
	</g>
</g>
<g>
</g>
<g>
</g>
<g>
</g>
<g>
</g>
<g>
</g>
<g>
</g>
<g>
</g>
<g>
</g>
<g>
</g>
<g>
</g>
<g>
</g>
<g>
</g>
<g>
</g>
<g>
</g>
<g>
</g>
</svg>
