<?xml version="1.0" encoding="iso-8859-1"?>
<!-- Generator: Adobe Illustrator 16.0.0, SVG Export Plug-In . SVG Version: 6.00 Build 0)  -->
<!DOCTYPE svg PUBLIC "-//W3C//DTD SVG 1.1//EN" "http://www.w3.org/Graphics/SVG/1.1/DTD/svg11.dtd">
<svg version="1.1" id="Capa_1" xmlns="http://www.w3.org/2000/svg" xmlns:xlink="http://www.w3.org/1999/xlink" x="0px" y="0px"
	 width="611.993px" height="611.993px" viewBox="0 0 611.993 611.993" style="enable-background:new 0 0 611.993 611.993;"
	 xml:space="preserve">
<g>
	<g>
		<path d="M594.434,139.016c22.473-22.473,23.503-58.65,2.354-82.37l-24.739-27.751C561.14,16.653,545.602,9.639,529.406,9.639
			c-15.694,0-30.909,6.661-41.769,18.275L356.535,168.336c-5.562,5.945-9.73,12.968-12.359,20.512L5.015,566.775
			c-4.875,5.435-6.327,13.135-3.777,19.973c2.551,6.837,8.701,11.692,15.94,12.595c3.325,0.422,25.573,3.012,60.544,3.012
			c104.146,0,321.003-23.032,485.771-195.286c7.377-7.71,7.229-19.894-0.304-27.437l-105.501-105.51
			c3.228-2.148,6.249-4.601,8.996-7.357L594.434,139.016z M516.311,54.704c3.64-3.894,8.368-5.827,13.096-5.827
			c4.856,0,9.712,2.05,13.351,6.131l24.74,27.751c7.18,8.053,6.808,20.894-0.814,28.516L438.954,239.033
			c-4.091,4.09-9.761,6.18-15.421,6.18c-4.885,0-9.779-1.55-13.654-4.718l-22.846-18.638c-4.925-4.022-7.161-9.839-6.72-15.568
			c1.177-2.266,1.873-4.688,2.108-7.161c0.756-1.413,1.639-2.776,2.796-4.012L516.311,54.704z M61.507,562.577l289.515-322.603
			c3.109,4.562,6.856,8.73,11.212,12.282l22.847,18.638c7.514,6.131,16.519,10.192,26.063,12.154L521.657,393.56
			C360.998,550.119,148.223,564.117,61.507,562.577z"/>
		<path d="M328.951,311.485L201.429,448.817c-7.367,7.945-6.906,20.354,1.02,27.731c3.787,3.502,8.574,5.238,13.351,5.238
			c5.258,0,10.506-2.109,14.381-6.269l127.521-137.332c7.367-7.945,6.906-20.354-1.02-27.731
			C348.736,303.088,336.338,303.54,328.951,311.485z"/>
		<circle cx="431.616" cy="197.313" r="19.619"/>
		<circle cx="529.711" cy="99.219" r="19.619"/>
	</g>
</g>
<g>
</g>
<g>
</g>
<g>
</g>
<g>
</g>
<g>
</g>
<g>
</g>
<g>
</g>
<g>
</g>
<g>
</g>
<g>
</g>
<g>
</g>
<g>
</g>
<g>
</g>
<g>
</g>
<g>
</g>
</svg>
