<?xml version="1.0" encoding="iso-8859-1"?>
<!-- Generator: Adobe Illustrator 16.0.0, SVG Export Plug-In . SVG Version: 6.00 Build 0)  -->
<!DOCTYPE svg PUBLIC "-//W3C//DTD SVG 1.1//EN" "http://www.w3.org/Graphics/SVG/1.1/DTD/svg11.dtd">
<svg version="1.1" id="Capa_1" xmlns="http://www.w3.org/2000/svg" xmlns:xlink="http://www.w3.org/1999/xlink" x="0px" y="0px"
	 width="615.123px" height="615.123px" viewBox="0 0 615.123 615.123" style="enable-background:new 0 0 615.123 615.123;"
	 xml:space="preserve">
<g>
	<path d="M383.38,250.573l48.295-48.304c10.763,9.122,24.241,14.105,38.516,14.105c15.956,0,30.937-6.197,42.196-17.447
		l83.718-83.717c11.25-11.25,17.457-26.241,17.457-42.197c0-15.976-6.217-30.956-17.478-42.216l-13.35-13.35
		C571.465,6.197,556.483,0,540.528,0c-15.956,0-30.937,6.197-42.196,17.447l-83.717,83.717
		c-11.251,11.25-17.458,26.241-17.458,42.197c0,10.484,2.726,20.531,7.759,29.404l-63.742,63.743c-7.77,7.769-7.77,20.362,0,28.131
		L559.22,482.685l-84.403,84.403l-24.62-24.62l24.63-24.63c11.25-11.25,17.457-26.24,17.457-42.196
		c0-15.966-6.207-30.946-17.467-42.206l-294.72-294.7c-11.27-11.26-26.251-17.458-42.207-17.458
		c-15.945,0-30.936,6.197-42.196,17.448l-76.684,76.684C7.759,226.66,1.562,241.65,1.562,257.606s6.197,30.946,17.467,42.207
		l294.71,294.71c11.27,11.26,26.251,17.457,42.206,17.457c15.956,0,30.937-6.197,42.196-17.447l23.924-23.924l38.686,38.686
		c3.889,3.89,8.972,5.829,14.065,5.829c5.093,0,10.176-1.939,14.065-5.829L601.426,496.76c3.73-3.73,5.829-8.793,5.829-14.065
		s-2.099-10.335-5.829-14.065L383.38,250.573z M442.756,129.295l83.707-83.707c3.869-3.87,8.962-5.799,14.065-5.799
		c5.103,0,10.196,1.93,14.065,5.799l13.369,13.369c7.739,7.729,7.739,20.402,0,28.131l-83.707,83.707
		c-3.869,3.87-8.962,5.799-14.065,5.799c-5.103,0-10.196-1.93-14.065-5.799l-13.369-13.369
		C435.017,149.697,435.017,137.024,442.756,129.295z M370.011,566.392c-3.869,3.869-8.962,5.799-14.065,5.799
		c-5.103,0-10.196-1.93-14.065-5.799L47.15,271.682c-7.739-7.729-7.739-20.402,0-28.131l76.674-76.674
		c3.87-3.87,8.962-5.799,14.065-5.799s10.196,1.93,14.065,5.799l294.729,294.719c7.739,7.729,7.739,20.402,0,28.132L370.011,566.392
		z"/>
</g>
<g>
</g>
<g>
</g>
<g>
</g>
<g>
</g>
<g>
</g>
<g>
</g>
<g>
</g>
<g>
</g>
<g>
</g>
<g>
</g>
<g>
</g>
<g>
</g>
<g>
</g>
<g>
</g>
<g>
</g>
</svg>
