<?xml version="1.0" encoding="iso-8859-1"?>
<!-- Generator: Adobe Illustrator 16.0.0, SVG Export Plug-In . SVG Version: 6.00 Build 0)  -->
<!DOCTYPE svg PUBLIC "-//W3C//DTD SVG 1.1//EN" "http://www.w3.org/Graphics/SVG/1.1/DTD/svg11.dtd">
<svg version="1.1" id="Capa_1" xmlns="http://www.w3.org/2000/svg" xmlns:xlink="http://www.w3.org/1999/xlink" x="0px" y="0px"
	 width="612.003px" height="612.004px" viewBox="0 0 612.003 612.004" style="enable-background:new 0 0 612.003 612.004;"
	 xml:space="preserve">
<g>
	<g>
		<path d="M594.335,383.234l-34.953-34.943c-11.416-11.415-26.986-14.844-43.162-14.834c-16.175,0-31.746,9.137-43.151,20.553
			l-120.51,120.52c-11.416,11.416-17.688,24.103-17.679,40.278c0,16.175,6.303,28.861,17.709,40.277l34.963,34.942
			c11.405,11.406,26.945,20.553,43.111,20.553c16.165,0.01,31.706-3.419,43.111-14.834l120.521-120.521
			c11.405-11.405,17.708-29.81,17.708-45.996C612.003,413.055,605.741,394.64,594.335,383.234z M565.776,446.706L445.255,567.227
			c-3.923,3.923-9.429,3.025-14.592,3.025c-5.184,0-10.68-4.82-14.593-8.743l-34.953-34.953c-7.846-7.846-7.886-15.671-0.04-23.518
			l120.51-120.52c3.924-3.923,9.46-8.743,14.644-8.743c5.173,0,10.71-0.897,14.622,3.025l34.953,34.942
			C573.652,419.6,573.612,438.86,565.776,446.706z"/>
		<path d="M456.338,254.102l-78.962-122.507c-10.941-16.993-32.089-33.471-51.249-39.905L66.954,4.641
			c-6.212-2.097-12.515-3.217-18.616-3.217c-15.984,0.01-30.324,7.19-39.33,19.715C-0.42,34.229-2.559,51.443,3.119,68.345
			l86.989,259.122c6.403,19.09,22.66,40.097,39.542,51.088l121.66,79.234c10.316,6.727,23.023,10.78,35.79,10.771
			c17.547,0,34.973-6.343,46.914-18.293L448.12,336.17C469.337,314.941,472.615,279.364,456.338,254.102z M419.59,307.65
			L305.483,421.757c-4.588,4.579-11.778,6.484-18.394,6.484c-4.72-0.01-9.651-1.482-13.523-3.993l-121.781-79.365
			c-9.298-6.061-19.846-19.675-23.376-30.193L50.083,81.424l154.516,154.515c-10.135,22.307-6.232,49.485,12.091,67.809
			c23.598,23.598,61.979,23.598,85.567,0c23.599-23.588,23.599-61.979,0-85.567c-18.817-18.817-46.923-22.367-69.553-11.173
			L75.809,50.112l237.36,79.688c10.519,3.53,24.031,14.058,30.042,23.376l79.224,122.749
			C428.435,285.263,427.426,299.805,419.59,307.65z M273.737,246.71c7.876,7.876,7.876,20.643,0,28.529
			c-7.876,7.876-20.653,7.876-28.519,0c-7.876-7.876-7.876-20.643,0-28.529C253.084,238.834,265.861,238.834,273.737,246.71z"/>
	</g>
</g>
<g>
</g>
<g>
</g>
<g>
</g>
<g>
</g>
<g>
</g>
<g>
</g>
<g>
</g>
<g>
</g>
<g>
</g>
<g>
</g>
<g>
</g>
<g>
</g>
<g>
</g>
<g>
</g>
<g>
</g>
</svg>
