<?xml version="1.0" encoding="iso-8859-1"?>
<!-- Generator: Adobe Illustrator 16.0.0, SVG Export Plug-In . SVG Version: 6.00 Build 0)  -->
<!DOCTYPE svg PUBLIC "-//W3C//DTD SVG 1.1//EN" "http://www.w3.org/Graphics/SVG/1.1/DTD/svg11.dtd">
<svg version="1.1" id="Capa_1" xmlns="http://www.w3.org/2000/svg" xmlns:xlink="http://www.w3.org/1999/xlink" x="0px" y="0px"
	 width="611.99px" height="611.99px" viewBox="0 0 611.99 611.99" style="enable-background:new 0 0 611.99 611.99;"
	 xml:space="preserve">
<g>
	<path d="M600.542,155.372L460.365,15.186c-7.474-7.474-17.584-9.04-28.17-9.04c-10.605,0-20.716,6.681-28.189,14.145
		L60.077,354.307c-10.209,10.209-21.737,27.258-25.236,41.254L1.189,566.167c-2.656,10.646-0.833,20.716,5.154,28.368
		c5.59,7.166,14.343,11.29,24.007,11.29c3.033,0,6.77,0.188,9.902-0.595l172.4-31.838c13.996-3.499,33.453-12.628,43.652-22.848
		l343.938-334.006c7.474-7.474,11.736-19.993,11.746-30.588C611.99,175.344,608.016,162.835,600.542,155.372z M160.992,421.798
		l329.714-320.199l28.031,28.031L189.033,449.839L160.992,421.798z M434.732,45.625l27.933,27.933L132.96,393.767l-27.903-27.902
		L434.732,45.625z M203.336,535.222L85.105,556.176l-33.87-33.87L73.31,405.175c0.753-3.013,2.597-6.611,4.837-10.159
		l136.162,136.172C210.324,533.001,206.349,534.468,203.336,535.222z M245.244,506.05l-28.17-28.17l329.715-320.209l28.14,28.131
		L245.244,506.05z"/>
</g>
<g>
</g>
<g>
</g>
<g>
</g>
<g>
</g>
<g>
</g>
<g>
</g>
<g>
</g>
<g>
</g>
<g>
</g>
<g>
</g>
<g>
</g>
<g>
</g>
<g>
</g>
<g>
</g>
<g>
</g>
</svg>
