<?xml version="1.0" encoding="iso-8859-1"?>
<!-- Generator: Adobe Illustrator 16.0.0, SVG Export Plug-In . SVG Version: 6.00 Build 0)  -->
<!DOCTYPE svg PUBLIC "-//W3C//DTD SVG 1.1//EN" "http://www.w3.org/Graphics/SVG/1.1/DTD/svg11.dtd">
<svg version="1.1" id="Capa_1" xmlns="http://www.w3.org/2000/svg" xmlns:xlink="http://www.w3.org/1999/xlink" x="0px" y="0px"
	 width="57.32px" height="57.32px" viewBox="0 0 57.32 57.32" style="enable-background:new 0 0 57.32 57.32;" xml:space="preserve"
	>
<g>
	<g>
		<path d="M27.322,28.056c-0.039,0.125-0.077,0.257-0.117,0.373l5.577,1.315l5.501-3.026l-0.001-8.789l-7.338-1.413l-1.54,0.814
			c-0.004,0.084-0.001,0.177-0.01,0.257c-0.006,0.071-0.017,0.147-0.023,0.22l1.635-0.864l6.633,1.329l-4.877,2.67l-3.707-0.798
			c-0.02,0.119-0.039,0.246-0.057,0.352c0.005,0.009,0.01,0.02,0.016,0.028l3.408,0.733v7.972L27.322,28.056z"/>
		<path d="M28.394,13.188H51.78v21.479H27.536c0.668,0.408,1.665,0.857,3.215,1.422c0.583,0.213,1.13,0.421,1.646,0.623h20.408
			c0.564,0,1.022-0.457,1.022-1.021V12.165c0-0.565-0.458-1.023-1.022-1.023H26.831c0.14,0.133,0.279,0.268,0.398,0.397
			C27.706,12.062,28.088,12.621,28.394,13.188z"/>
		<path d="M35.241,37.951c1.853,0.897,3.013,1.686,3.739,2.36c11.574-0.389,18.34-1.737,18.34-1.737v-0.623H35.241z"/>
		<path d="M43.215,34.07h7.969v-6.777h-7.969V34.07z M43.896,27.976h6.605v5.412h-6.605V27.976z"/>
		<rect x="48.627" y="28.487" width="1.449" height="0.298"/>
		<rect x="44.323" y="28.487" width="0.724" height="1.449"/>
		<rect x="47.746" y="30.148" width="1.605" height="0.533"/>
		<rect x="47.746" y="30.938" width="1.605" height="0.533"/>
		<rect x="47.746" y="31.713" width="1.605" height="0.533"/>
		<circle cx="47.297" cy="19.134" r="0.739"/>
		<path d="M46.047,15.35c-0.09-0.088-0.232-0.088-0.32,0l-0.612,0.613c-0.043,0.042-0.067,0.099-0.067,0.159s0.024,0.118,0.067,0.16
			l0.612,0.612c0.088,0.089,0.23,0.089,0.32,0c0.043-0.044,0.065-0.101,0.065-0.16c0-0.057-0.022-0.115-0.065-0.16l-0.229-0.226
			h1.252v1.768h0.453v-1.767h1.25l-0.227,0.227c-0.088,0.087-0.088,0.231,0,0.319c0.088,0.088,0.231,0.088,0.319,0l0.612-0.613
			c0.043-0.042,0.065-0.1,0.065-0.16s-0.022-0.117-0.065-0.16l-0.612-0.612c-0.088-0.088-0.231-0.088-0.319,0
			c-0.044,0.044-0.064,0.101-0.064,0.16c0,0.058,0.021,0.115,0.064,0.16l0.227,0.227h-1.25v-1.033l0.227,0.227
			c0.088,0.088,0.23,0.088,0.32,0c0.088-0.088,0.088-0.232,0-0.319l-0.613-0.613c-0.042-0.042-0.1-0.066-0.16-0.066
			s-0.117,0.023-0.16,0.066l-0.611,0.613c-0.088,0.087-0.088,0.231,0,0.319c0.044,0.044,0.102,0.066,0.16,0.066
			c0.058,0,0.115-0.022,0.16-0.066l0.227-0.227v1.032h-1.251l0.228-0.226C46.135,15.581,46.135,15.438,46.047,15.35z"/>
		<path d="M10.584,22.107c0.261,3.497,1.638,1.989,1.922,3.521c0.685,3.692,2.242,3.033,2.242,5.049
			c0,0.365-0.023,0.707-0.066,1.033c3.454-0.243,5.562-0.329,8.756-0.168c-0.011-0.178-0.133-0.418-0.133-0.606
			c0-2.016,1.558-1.615,2.242-5.308c0.285-1.533,1.661-0.026,1.923-3.521c0-1.394-0.751-1.74-0.751-1.74s0.382-2.062,0.533-3.649
			c0.184-1.979-1.144-7.087-8.226-7.087s-8.411,5.109-8.225,7.087c0.15,1.587,0.531,3.649,0.531,3.649S10.584,20.713,10.584,22.107z
			"/>
		<path d="M29.799,37.096c-3.261-1.188-4.689-2.049-5.483-3.523c-0.08-0.148-0.154-0.304-0.222-0.465
			c-3.159-0.074-6.822-0.123-9.951,0.295c-0.079,0.135-0.166,0.264-0.261,0.391c-0.956,1.275-2.708,2.24-5.624,3.304
			C3.251,38.921,0,40.781,0,42.05s0,5.64,0,5.64h38.057c0,0,0-4.373,0-5.64C38.057,40.779,34.805,38.92,29.799,37.096z"/>
	</g>
</g>
<g>
</g>
<g>
</g>
<g>
</g>
<g>
</g>
<g>
</g>
<g>
</g>
<g>
</g>
<g>
</g>
<g>
</g>
<g>
</g>
<g>
</g>
<g>
</g>
<g>
</g>
<g>
</g>
<g>
</g>
</svg>
