<?xml version="1.0" encoding="iso-8859-1"?>
<!-- Generator: Adobe Illustrator 16.0.0, SVG Export Plug-In . SVG Version: 6.00 Build 0)  -->
<!DOCTYPE svg PUBLIC "-//W3C//DTD SVG 1.1//EN" "http://www.w3.org/Graphics/SVG/1.1/DTD/svg11.dtd">
<svg version="1.1" id="Capa_1" xmlns="http://www.w3.org/2000/svg" xmlns:xlink="http://www.w3.org/1999/xlink" x="0px" y="0px"
	 width="49.345px" height="49.345px" viewBox="0 0 49.345 49.345" style="enable-background:new 0 0 49.345 49.345;"
	 xml:space="preserve">
<g>
	<g>
		<path d="M11.631,17.473c0.287,3.842,1.801,2.186,2.113,3.871c0.752,4.059,2.463,3.333,2.463,5.549
			c0,0.402-0.025,0.777-0.072,1.135c3.795-0.267,6.111-0.361,9.623-0.184c-0.012-0.195-0.146-0.459-0.146-0.667
			c0-0.913,0.291-1.375,0.686-1.887v0.995l13.031,3.076l10.016-5.511l-0.003-16L35.982,5.278l-6.5,3.439
			c-0.906-2.349-3.27-4.955-8.572-4.955c-7.783,0-9.242,5.614-9.039,7.788c0.166,1.744,0.584,4.01,0.584,4.01
			S11.631,15.941,11.631,17.473z M38.672,28.423L26.99,25.734v-1.39c0.402-0.631,0.809-1.512,1.084-3.001
			c0.313-1.685,1.826-0.028,2.113-3.871c0-1.532-0.824-1.912-0.824-1.912s0.348-1.884,0.535-3.54l8.773,1.889V28.423z M36.094,6.056
			L48.17,8.474l-8.875,4.861l-9.338-2.01c0.02-0.517-0.039-1.175-0.238-1.897L36.094,6.056z"/>
		<path d="M32.744,33.943c-3.582-1.306-5.152-2.25-6.023-3.871c-0.088-0.164-0.17-0.334-0.244-0.512
			c-3.471-0.08-7.496-0.135-10.936,0.325c-0.086,0.146-0.182,0.289-0.287,0.429c-1.051,1.4-2.975,2.463-6.18,3.629
			C3.572,35.949,0,37.992,0,39.386s0,6.197,0,6.197h41.818c0,0,0-4.804,0-6.197S38.246,35.949,32.744,33.943z"/>
	</g>
</g>
<g>
</g>
<g>
</g>
<g>
</g>
<g>
</g>
<g>
</g>
<g>
</g>
<g>
</g>
<g>
</g>
<g>
</g>
<g>
</g>
<g>
</g>
<g>
</g>
<g>
</g>
<g>
</g>
<g>
</g>
</svg>
