<?xml version="1.0" encoding="iso-8859-1"?>
<!-- Generator: Adobe Illustrator 16.0.0, SVG Export Plug-In . SVG Version: 6.00 Build 0)  -->
<!DOCTYPE svg PUBLIC "-//W3C//DTD SVG 1.1//EN" "http://www.w3.org/Graphics/SVG/1.1/DTD/svg11.dtd">
<svg version="1.1" id="Capa_1" xmlns="http://www.w3.org/2000/svg" xmlns:xlink="http://www.w3.org/1999/xlink" x="0px" y="0px"
	 width="57.439px" height="57.44px" viewBox="0 0 57.439 57.44" style="enable-background:new 0 0 57.439 57.44;"
	 xml:space="preserve">
<g>
	<g>
		<path d="M10.377,24.761l0.027,0.052l-0.031-0.006v5.002l4.14,0.978l3.182-1.751v-5.083l-4.245-0.817L10.377,24.761z
			 M14.305,30.488l-3.711-0.854v-4.556l3.711,0.799V30.488z M17.322,24.15l-2.82,1.545l-3.83-0.825l2.813-1.488L17.322,24.15z"/>
		<path d="M18.035,7.144c1.466,0.036,2.982,0.072,3.798-0.783c0.457-0.48,0.646-1.176,0.576-2.125l-0.486,0.036
			c0.059,0.805-0.086,1.378-0.443,1.752c-0.436,0.458-1.165,0.601-2.013,0.636c0.19-0.099,0.366-0.221,0.516-0.383
			c0.454-0.491,0.637-1.238,0.56-2.284l-0.486,0.036c0.067,0.904-0.075,1.531-0.432,1.918c-0.539,0.581-1.536,0.587-2.594,0.592
			c-1.148,0.007-2.337,0.014-3.088,0.78c-0.13,0.131-0.237,0.287-0.331,0.456H0v26.836h26.836V7.774h-12.36
			C15.238,7.081,16.657,7.109,18.035,7.144z M3.363,13.122c0-1.347,1.091-2.438,2.438-2.438h7.432
			c-0.001,0.372-0.001,0.796-0.001,1.239h-2.331v3.616h-0.387v-1.453h-0.162c-0.455,0-0.823,0.369-0.823,0.823
			c0,0.253,0.117,0.479,0.3,0.629H3.363V13.122z M23.473,29.262c0,1.348-1.091,2.438-2.438,2.438H5.8
			c-1.346,0-2.438-1.09-2.438-2.438V17.082h7.537v3.616h1.903v1.171c0,0.465,0.339,0.849,0.782,0.925l0.473-0.042
			c0.364-0.13,0.626-0.474,0.626-0.883v-1.171h1.904v-3.616h6.886V29.262z M21.036,10.684c1.346,0,2.438,1.091,2.438,2.438v2.417
			h-5.947c0.182-0.15,0.3-0.376,0.3-0.629c0-0.455-0.369-0.823-0.823-0.823h-0.162v1.453h-0.254v-3.616h-2.734
			c0-0.443,0-0.868,0.001-1.239L21.036,10.684L21.036,10.684z"/>
		<path d="M54.599,27.869H40.5c-1.567,0-2.842,1.274-2.842,2.841v10.402l-0.029,0.016l0.027,0.051l-0.032-0.006v5.004l0.034,0.008
			v4.422c0,1.565,1.274,2.841,2.842,2.841h14.099c1.566,0,2.841-1.274,2.841-2.841V30.709
			C57.439,29.143,56.165,27.869,54.599,27.869z M47.531,52.83c-0.522,0-0.946-0.424-0.946-0.946c0-0.523,0.424-0.947,0.946-0.947
			s0.947,0.424,0.947,0.947C48.479,52.406,48.054,52.83,47.531,52.83z M55.546,49.186c0,0.521-0.425,0.947-0.947,0.947H40.5
			c-0.521,0-0.947-0.426-0.947-0.947V30.709c0-0.521,0.426-0.947,0.947-0.947h14.099c0.522,0,0.947,0.426,0.947,0.947V49.186z"/>
		<path d="M49.902,33.182c-0.246,0-0.486-0.099-0.586-0.157l-0.109,0.368c0.138,0.091,0.406,0.178,0.719,0.178
			c0.637,0,1.001-0.346,1.001-0.78c0-0.348-0.253-0.585-0.565-0.641v-0.009c0.316-0.11,0.474-0.332,0.474-0.601
			c0-0.336-0.272-0.629-0.802-0.629c-0.31,0-0.594,0.095-0.74,0.198l0.109,0.352c0.107-0.07,0.317-0.162,0.526-0.162
			c0.281,0,0.412,0.146,0.412,0.32c0,0.257-0.285,0.359-0.511,0.359h-0.217v0.356h0.226c0.297,0,0.581,0.13,0.581,0.435
			C50.424,32.973,50.273,33.182,49.902,33.182z"/>
		<path d="M52.729,30.397c-1.018,0-1.844,0.826-1.844,1.845s0.826,1.844,1.844,1.844c1.02,0,1.844-0.825,1.844-1.844
			S53.748,30.397,52.729,30.397z M53.607,33.191c-0.266,0.241-0.688,0.364-1.207,0.364c-0.285,0-0.498-0.017-0.656-0.037v-2.621
			c0.213-0.036,0.486-0.057,0.774-0.057c0.499,0,0.843,0.104,1.087,0.31c0.258,0.21,0.416,0.526,0.416,0.981
			C54.023,32.606,53.861,32.961,53.607,33.191z"/>
		<path d="M52.562,31.221c-0.154,0-0.265,0.012-0.332,0.027v1.906c0.067,0.012,0.17,0.012,0.27,0.012
			c0.633,0.004,1.008-0.344,1.008-1.02C53.512,31.557,53.173,31.221,52.562,31.221z"/>
		<circle cx="36.963" cy="27.023" r="0.499"/>
		<path d="M37.416,23.132c-1.152-0.111-2.312,0.284-3.184,1.084c-0.871,0.801-1.363,1.923-1.35,3.082l0.479-0.006
			c-0.013-1.022,0.422-2.016,1.193-2.724c0.771-0.709,1.799-1.059,2.816-0.96L37.416,23.132z"/>
		<path d="M37.33,24.918c-0.676-0.065-1.356,0.167-1.868,0.636c-0.511,0.47-0.798,1.128-0.79,1.807l0.43-0.004
			c-0.007-0.558,0.23-1.099,0.651-1.486c0.421-0.387,0.979-0.578,1.536-0.524L37.33,24.918z"/>
		<path d="M37.775,21.752l0.045-0.475c-1.733-0.167-3.479,0.428-4.791,1.632c-1.31,1.204-2.049,2.893-2.028,4.634l0.479-0.005
			c-0.02-1.606,0.663-3.165,1.875-4.277C34.566,22.15,36.175,21.599,37.775,21.752z"/>
		<path d="M43.876,39.006l0.026,0.051l-0.031-0.006v5.004l4.141,0.977l3.182-1.751v-5.083l-4.246-0.816L43.876,39.006z
			 M47.803,44.735l-3.711-0.854v-4.557l3.711,0.799V44.735z M50.82,38.397L48,39.942l-3.83-0.825l2.812-1.488L50.82,38.397z"/>
	</g>
</g>
<g>
</g>
<g>
</g>
<g>
</g>
<g>
</g>
<g>
</g>
<g>
</g>
<g>
</g>
<g>
</g>
<g>
</g>
<g>
</g>
<g>
</g>
<g>
</g>
<g>
</g>
<g>
</g>
<g>
</g>
</svg>
