<?xml version="1.0" encoding="iso-8859-1"?>
<!-- Generator: Adobe Illustrator 16.0.0, SVG Export Plug-In . SVG Version: 6.00 Build 0)  -->
<!DOCTYPE svg PUBLIC "-//W3C//DTD SVG 1.1//EN" "http://www.w3.org/Graphics/SVG/1.1/DTD/svg11.dtd">
<svg version="1.1" id="Capa_1" xmlns="http://www.w3.org/2000/svg" xmlns:xlink="http://www.w3.org/1999/xlink" x="0px" y="0px"
	 width="612px" height="612px" viewBox="0 0 612 612" style="enable-background:new 0 0 612 612;" xml:space="preserve">
<g>
	<g>
		<path d="M557.71,9.871H424.451c-10.897,0-19.741,8.844-19.741,19.742s8.844,19.742,19.741,19.742h128.323h4.936
			c10.857,0,14.806,3.948,14.806,14.806v133.258c0,10.897,8.845,19.742,19.742,19.742S612,208.317,612,197.419V64.161
			C612,31.498,590.373,9.871,557.71,9.871z"/>
		<path d="M19.742,217.161c10.898,0,19.742-8.844,19.742-19.742V64.161c0-10.858,4.936-14.806,15.793-14.806h122.4
			c10.898,0,19.742-8.845,19.742-19.742s-8.844-19.742-19.742-19.742h-122.4C22.614,9.871,0,31.498,0,64.161v133.258
			C0,208.317,8.844,217.161,19.742,217.161z"/>
		<path d="M592.258,404.71c-10.897,0-19.742,8.844-19.742,19.741v122.4c0,10.858-3.948,15.794-14.806,15.794H424.451
			c-10.897,0-19.741,8.844-19.741,19.741c0,10.898,8.844,19.742,19.741,19.742H557.71c32.663,0,54.29-22.614,54.29-55.277v-122.4
			C612,413.554,603.155,404.71,592.258,404.71z"/>
		<path d="M177.677,562.646h-122.4c-10.858,0-15.793-4.936-15.793-15.794v-122.4c0-10.897-8.844-19.741-19.742-19.741
			C8.844,404.71,0,413.554,0,424.451v122.4c0,32.663,22.614,55.277,55.277,55.277h122.4c10.898,0,19.742-8.844,19.742-19.742
			C197.419,571.489,188.575,562.646,177.677,562.646z"/>
		<path d="M454.064,388.916V241.839c0-32.663-21.627-54.291-54.29-54.291H213.213c-32.663,0-55.277,21.627-55.277,54.291v147.077
			c0,32.663,22.614,55.277,55.277,55.277h186.562C432.438,444.193,454.064,421.579,454.064,388.916z M414.581,388.916
			c0,10.858-3.949,15.794-14.807,15.794H213.213c-10.858,0-15.793-4.936-15.793-15.794V241.839c0-10.858,4.936-14.807,15.793-14.807
			h181.626h4.936c10.857,0,14.807,3.948,14.807,14.807V388.916z"/>
	</g>
</g>
<g>
</g>
<g>
</g>
<g>
</g>
<g>
</g>
<g>
</g>
<g>
</g>
<g>
</g>
<g>
</g>
<g>
</g>
<g>
</g>
<g>
</g>
<g>
</g>
<g>
</g>
<g>
</g>
<g>
</g>
</svg>
