<?xml version="1.0" encoding="iso-8859-1"?>
<!-- Generator: Adobe Illustrator 16.0.0, SVG Export Plug-In . SVG Version: 6.00 Build 0)  -->
<!DOCTYPE svg PUBLIC "-//W3C//DTD SVG 1.1//EN" "http://www.w3.org/Graphics/SVG/1.1/DTD/svg11.dtd">
<svg version="1.1" id="Capa_1" xmlns="http://www.w3.org/2000/svg" xmlns:xlink="http://www.w3.org/1999/xlink" x="0px" y="0px"
	 width="612px" height="612px" viewBox="0 0 612 612" style="enable-background:new 0 0 612 612;" xml:space="preserve">
<g>
	<path d="M557.71,187.548c32.663,0,54.29-22.614,54.29-55.277v-77.98C612,21.627,590.373,0,557.71,0H489.6
		c-32.663,0-55.277,21.627-55.277,54.291v14.806H177.677V54.291C177.677,21.627,156.05,0,123.387,0h-68.11
		C22.614,0,0,21.627,0,54.291v77.98c0,32.663,22.614,55.277,55.277,55.277h13.819v236.903H55.277
		C22.614,424.451,0,446.079,0,478.742v77.98C0,589.386,22.614,612,55.277,612h68.11c32.663,0,54.29-22.614,54.29-55.277v-13.819
		h256.645v13.819c0,32.663,22.614,55.277,55.277,55.277h68.11c32.663,0,54.29-22.614,54.29-55.277v-77.98
		c0-32.663-21.627-54.291-54.29-54.291h-14.807V187.548H557.71z M473.807,54.291c0-10.858,4.936-14.807,15.793-14.807h63.175h4.936
		c10.857,0,14.806,3.948,14.806,14.807v77.98c0,10.858-3.948,15.793-14.806,15.793H489.6c-10.857,0-15.793-4.936-15.793-15.793
		V54.291z M39.484,132.271v-77.98c0-10.858,4.936-14.807,15.793-14.807h63.174h4.936c10.858,0,14.806,3.948,14.806,14.807v77.98
		c0,10.858-3.948,15.793-14.806,15.793h-68.11C44.419,148.064,39.484,143.129,39.484,132.271z M138.193,556.723
		c0,10.858-3.948,15.793-14.806,15.793h-68.11c-10.858,0-15.793-4.935-15.793-15.793v-77.98c0-10.858,4.936-14.807,15.793-14.807
		h63.174h4.936c10.858,0,14.806,3.948,14.806,14.807V556.723z M557.71,463.936c10.857,0,14.806,3.948,14.806,14.807v77.98
		c0,10.858-3.948,15.793-14.806,15.793H489.6c-10.857,0-15.793-4.935-15.793-15.793v-77.98c0-10.858,4.936-14.807,15.793-14.807
		h63.175H557.71z M503.419,424.451H489.6c-32.663,0-55.277,21.628-55.277,54.291v24.677H177.677v-24.677
		c0-32.663-21.627-54.291-54.29-54.291h-14.807V187.548h14.807c32.663,0,54.29-22.614,54.29-55.277v-23.69h256.645v23.69
		c0,32.663,22.614,55.277,55.277,55.277h13.819V424.451z"/>
</g>
<g>
</g>
<g>
</g>
<g>
</g>
<g>
</g>
<g>
</g>
<g>
</g>
<g>
</g>
<g>
</g>
<g>
</g>
<g>
</g>
<g>
</g>
<g>
</g>
<g>
</g>
<g>
</g>
<g>
</g>
</svg>
