<?xml version="1.0" encoding="iso-8859-1"?>
<!-- Generator: Adobe Illustrator 16.0.0, SVG Export Plug-In . SVG Version: 6.00 Build 0)  -->
<!DOCTYPE svg PUBLIC "-//W3C//DTD SVG 1.1//EN" "http://www.w3.org/Graphics/SVG/1.1/DTD/svg11.dtd">
<svg version="1.1" id="Capa_1" xmlns="http://www.w3.org/2000/svg" xmlns:xlink="http://www.w3.org/1999/xlink" x="0px" y="0px"
	 width="612px" height="612px" viewBox="0 0 612 612" style="enable-background:new 0 0 612 612;" xml:space="preserve">
<g>
	<g>
		<path d="M469.774,387.556h-24.382c-33.616,0-56.891,22.26-56.891,55.875v25.398c0,11.215,9.103,20.316,20.318,20.316
			s20.318-9.102,20.318-20.316v-25.398c0-11.174,5.079-15.238,16.254-15.238h24.382c11.216,0,20.318-9.104,20.318-20.318
			S481,387.556,469.774,387.556z"/>
		<path d="M556.125,387.556h-25.397c-11.216,0-20.317,9.104-20.317,20.318s9.102,20.318,20.317,20.318h25.397
			c11.176,0,15.239,5.08,15.239,16.254v24.383c0,11.215,9.103,20.316,20.317,20.316c11.216,0,20.318-9.102,20.318-20.316v-24.383
			C612,410.831,589.742,387.556,556.125,387.556z"/>
		<path d="M591.682,509.464c-11.215,0-20.317,9.104-20.317,20.318v25.398c0,11.174-5.08,15.238-16.255,15.238h-24.382
			c-11.216,0-20.317,9.102-20.317,20.318c0,11.215,9.102,20.318,20.317,20.318h24.382c33.616,0,56.891-22.26,56.891-55.875v-25.398
			C612,518.567,602.908,509.464,591.682,509.464z"/>
		<path d="M469.774,570.419h-25.397c-11.175,0-15.238-5.08-15.238-16.254v-24.383c0-11.215-9.103-20.318-20.318-20.318
			s-20.318,9.104-20.318,20.318v24.383c0,33.615,22.259,56.891,55.875,56.891h25.397c11.216,0,20.318-9.104,20.318-20.318
			C490.092,579.521,481,570.419,469.774,570.419z"/>
		<path d="M402.694,278.144l-43.785-43.786l72.86-48.306c18.073-11.977,26.993-30.639,23.844-49.901
			c-3.16-19.271-17.555-34.104-38.533-39.702L66.237,2.986c-5.11-1.351-10.261-2.042-15.31-2.042
			c-16.163,0-30.883,7.071-40.402,19.394C0.67,33.077-2.448,50.073,1.951,66.958l92.061,352.397
			c6.248,23.893,24.747,39.346,47.138,39.346c16.661,0,32.113-8.9,42.414-24.422l46.559-70.098l43.268,43.268
			c11.5,11.5,27.125,17.605,43.41,17.605c16.295,0,31.93-6.562,43.42-18.053l42.394-42.395
			C426.375,340.835,426.456,301.905,402.694,278.144z M149.704,411.806c-2.784,4.205-5.811,6.258-8.564,6.258
			c-3.342,0-6.268-3.047-7.822-8.98L41.266,56.687c-2.367-9.072,1.849-15.106,9.661-15.106c1.503,0,3.108,0.213,4.846,0.681
			l350.832,93.463c10.81,2.885,12.019,10.281,2.713,16.458l-138.834,92.051c-9.326,6.167-22.004,18.834-28.171,28.15
			L149.704,411.806z M373.883,335.866l-42.394,42.395c-3.962,3.951-9.479,6.146-14.68,6.146c-5.202,0-10.749-1.748-14.691-5.699
			l-49.068-49.068l23.102-34.785c3.2-4.815,11.978-13.572,16.762-16.752l31.433-20.847l49.606,49.606
			C381.858,314.776,381.777,327.964,373.883,335.866z"/>
	</g>
</g>
<g>
</g>
<g>
</g>
<g>
</g>
<g>
</g>
<g>
</g>
<g>
</g>
<g>
</g>
<g>
</g>
<g>
</g>
<g>
</g>
<g>
</g>
<g>
</g>
<g>
</g>
<g>
</g>
<g>
</g>
</svg>
