<?xml version="1.0" encoding="iso-8859-1"?>
<!-- Generator: Adobe Illustrator 16.0.0, SVG Export Plug-In . SVG Version: 6.00 Build 0)  -->
<!DOCTYPE svg PUBLIC "-//W3C//DTD SVG 1.1//EN" "http://www.w3.org/Graphics/SVG/1.1/DTD/svg11.dtd">
<svg version="1.1" id="Capa_1" xmlns="http://www.w3.org/2000/svg" xmlns:xlink="http://www.w3.org/1999/xlink" x="0px" y="0px"
	 width="612px" height="612px" viewBox="0 0 612 612" style="enable-background:new 0 0 612 612;" xml:space="preserve">
<g>
	<path d="M557.71,0H292.181c-32.663,0-55.277,21.627-55.277,54.291v54.29h-61.2c-32.663,0-57.251,29.524-57.251,62.187v46.394
		H59.226C26.563,217.161,0,244.711,0,277.374v275.4C0,585.438,26.563,612,59.226,612h275.4c32.663,0,60.213-26.562,60.213-59.226
		v-59.226h46.394c32.663,0,62.187-24.589,62.187-57.252v-61.2h54.291c32.663,0,54.29-22.614,54.29-55.277V54.291
		C612,21.627,590.373,0,557.71,0z M355.354,552.774c0,10.857-9.87,19.741-20.729,19.741h-275.4
		c-10.858,0-19.742-8.884-19.742-19.741v-275.4c0-10.858,8.884-20.729,19.742-20.729h59.226v179.652
		c0,32.663,24.588,57.252,57.251,57.252h179.651V552.774z M463.936,436.297c0,10.858-11.835,17.768-22.703,17.768H175.703
		c-10.868,0-17.768-6.909-17.768-17.768V170.768c0-10.858,6.9-22.703,17.768-22.703h61.2v171.755
		c0,32.663,22.614,55.277,55.277,55.277h171.755V436.297z M572.516,319.819c0,10.858-3.948,15.794-14.806,15.794H292.181
		c-10.858,0-15.793-4.936-15.793-15.794V54.291c0-10.858,4.936-14.807,15.793-14.807h260.594h4.936
		c10.857,0,14.806,3.948,14.806,14.807V319.819z"/>
</g>
<g>
</g>
<g>
</g>
<g>
</g>
<g>
</g>
<g>
</g>
<g>
</g>
<g>
</g>
<g>
</g>
<g>
</g>
<g>
</g>
<g>
</g>
<g>
</g>
<g>
</g>
<g>
</g>
<g>
</g>
</svg>
