<?xml version="1.0" encoding="iso-8859-1"?>
<!-- Generator: Adobe Illustrator 16.0.0, SVG Export Plug-In . SVG Version: 6.00 Build 0)  -->
<!DOCTYPE svg PUBLIC "-//W3C//DTD SVG 1.1//EN" "http://www.w3.org/Graphics/SVG/1.1/DTD/svg11.dtd">
<svg version="1.1" id="Capa_1" xmlns="http://www.w3.org/2000/svg" xmlns:xlink="http://www.w3.org/1999/xlink" x="0px" y="0px"
	 width="614.281px" height="614.281px" viewBox="0 0 614.281 614.281" style="enable-background:new 0 0 614.281 614.281;"
	 xml:space="preserve">
<g>
	<path d="M490.413,244.929c5.027-17.092,7.843-35.125,7.843-53.814C498.266,85.728,412.528,0,307.141,0
		C201.753,0,116.026,85.728,116.026,191.105c0,18.698,2.815,36.732,7.852,53.824C52.218,272.52,1.141,341.908,1.141,423.176
		c0,105.367,85.737,191.105,191.115,191.105c43.146,0,82.863-14.545,114.885-38.756c32.022,24.211,71.738,38.756,114.895,38.756
		c105.378,0,191.105-85.729,191.105-191.105C613.141,341.908,562.073,272.52,490.413,244.929z M155.682,191.105
		c0-83.507,67.942-151.448,151.458-151.448s151.458,67.941,151.458,151.448c0,15.149-2.3,29.752-6.454,43.563
		c-9.835-1.567-19.848-2.607-30.109-2.607c-43.146,0-82.862,14.544-114.895,38.754c-32.022-24.21-71.739-38.754-114.885-38.754
		c-10.271,0-20.284,1.041-30.119,2.617C157.982,220.867,155.682,206.254,155.682,191.105z M343.704,423.176
		c0,37.564-13.83,71.906-36.554,98.408c-22.733-26.502-36.563-60.844-36.563-98.408c0-15.148,2.3-29.752,6.454-43.562
		c9.834,1.566,19.838,2.607,30.109,2.607c10.271,0,20.274-1.041,30.109-2.607C341.404,393.412,343.704,408.027,343.704,423.176z
		 M253.783,332.67c-30.773-11.641-56.758-32.956-74.237-60.309c4.204-0.357,8.427-0.645,12.72-0.645
		c31.695,0,61.121,9.825,85.47,26.54C268.584,308.816,260.465,320.287,253.783,332.67z M336.556,298.257
		c24.35-16.715,53.774-26.54,85.479-26.54c4.293,0,8.507,0.297,12.711,0.645c-17.479,27.353-43.464,48.668-74.237,60.309
		C353.816,320.287,345.707,308.816,336.556,298.257z M40.797,423.176c0-64.701,40.866-119.902,98.081-141.555
		c21.593,39.984,57.085,71.264,99.895,87.74c-5.026,17.092-7.842,35.115-7.842,53.814c0,47.756,17.736,91.369,46.805,124.908
		c-24.349,16.715-53.774,26.539-85.47,26.539C108.739,574.623,40.797,506.682,40.797,423.176z M422.035,574.623
		c-31.705,0-61.13-9.824-85.479-26.539c29.068-33.539,46.795-77.152,46.795-124.908c0-18.699-2.815-36.723-7.842-53.814
		c42.809-16.477,78.302-47.766,99.895-87.74c57.215,21.652,98.081,76.854,98.081,141.555
		C573.484,506.682,505.553,574.623,422.035,574.623z"/>
</g>
<g>
</g>
<g>
</g>
<g>
</g>
<g>
</g>
<g>
</g>
<g>
</g>
<g>
</g>
<g>
</g>
<g>
</g>
<g>
</g>
<g>
</g>
<g>
</g>
<g>
</g>
<g>
</g>
<g>
</g>
</svg>
